{
.appVersion = "926";
copyright = "Copyright (c) 26.12.2011, Johan Aakerlund (aajohan@gmail.com), with Reserved Font Name \"Comfortaa\". This Font Software is licensed under the SIL Open Font License, Version 1.1. http://scripts.sil.org/OFL";
customParameters = (
{
name = licenseURL;
value = "http://scripts.sil.org/OFL";
},
{
name = license;
value = "This Font Software is licensed under the SIL Open Font License, Version 1.1.";
},
{
name = openTypeOS2Type;
value = (
3
);
},
{
name = glyphOrder;
value = (
NULL,
CR,
space,
exclam,
quotedbl,
numbersign,
dollar,
percent,
ampersand,
quotesingle,
parenleft,
parenright,
asterisk,
plus,
comma,
hyphen,
period,
slash,
zero,
one,
two,
three,
four,
five,
six,
seven,
eight,
nine,
colon,
semicolon,
less,
equal,
greater,
question,
at,
A,
B,
C,
D,
E,
F,
G,
H,
I,
J,
K,
L,
M,
N,
O,
P,
Q,
R,
S,
T,
U,
V,
W,
X,
Y,
Z,
bracketleft,
backslash,
bracketright,
asciicircum,
underscore,
grave,
a,
b,
c,
d,
e,
f,
g,
h,
i,
j,
k,
l,
m,
n,
o,
p,
q,
r,
s,
t,
u,
v,
w,
x,
y,
z,
braceleft,
bar,
braceright,
asciitilde,
exclamdown,
cent,
sterling,
currency,
yen,
brokenbar,
section,
dieresis,
copyright,
ordfeminine,
guillemotleft,
logicalnot,
registered,
overscore,
degree,
plusminus,
uni00B2,
uni00B3,
acute,
mu,
paragraph,
middot,
cedilla,
uni00B9,
ordmasculine,
guillemotright,
onequarter,
onehalf,
threequarters,
questiondown,
Agrave,
Aacute,
Acircumflex,
Atilde,
Adieresis,
Aring,
AE,
Ccedilla,
Egrave,
Eacute,
Ecircumflex,
Edieresis,
Igrave,
Iacute,
Icircumflex,
Idieresis,
Eth,
Ntilde,
Ograve,
Oacute,
Ocircumflex,
Otilde,
Odieresis,
multiply,
Oslash,
Ugrave,
Uacute,
Ucircumflex,
Udieresis,
Yacute,
Thorn,
germandbls,
agrave,
aacute,
acircumflex,
atilde,
adieresis,
aring,
ae,
ccedilla,
egrave,
eacute,
ecircumflex,
edieresis,
igrave,
iacute,
icircumflex,
idieresis,
eth,
ntilde,
ograve,
oacute,
ocircumflex,
otilde,
odieresis,
divide,
oslash,
ugrave,
uacute,
ucircumflex,
udieresis,
yacute,
thorn,
ydieresis,
dotlessi,
circumflex,
caron,
uni02C9,
breve,

glyphs = (
{
glyphname = exclam;
lastChange = "2016-10-19 22:32:10 +0000";
layers = (
{
layerId = UUID0;
paths = (
{
closed = 1;
nodes = (
"172 107 OFFCURVE",
"141 139 OFFCURVE",
"103 139 CURVE SMOOTH",
"65 139 OFFCURVE",
"34 107 OFFCURVE",
"34 69 CURVE SMOOTH",
"34 30 OFFCURVE",
"66 0 OFFCURVE",
"103 0 CURVE SMOOTH",
"140 0 OFFCURVE",
"172 30 OFFCURVE",
"172 69 CURVE SMOOTH"
);
},
{
closed = 1;
nodes = (
"52 220 LINE SMOOTH",
"52 193 OFFCURVE",
"74 169 OFFCURVE",
"103 169 CURVE SMOOTH",
"130 169 OFFCURVE",
"154 192 OFFCURVE",
"154 220 CURVE SMOOTH",
"154 729 LINE SMOOTH",
"154 758 OFFCURVE",
"132 781 OFFCURVE",
"103 781 CURVE SMOOTH",
"74 781 OFFCURVE",
"52 758 OFFCURVE",
"52 729 CURVE SMOOTH"
);
}
);
width = 195;
}
);
unicode = 0021;
},
{
glyphname = quotedbl;
lastChange = "2016-10-19 22:32:10 +0000";
layers = (
{
layerId = UUID0;
paths = (
{
closed = 1;
nodes = (
"131 729 LINE",
"131 757 OFFCURVE",
"108 780 OFFCURVE",
"81 780 CURVE SMOOTH",
"53 780 OFFCURVE",
"30 757 OFFCURVE",
"30 729 CURVE",
"39 590 LINE",
"40 567 OFFCURVE",
"58 549 OFFCURVE",
"81 549 CURVE SMOOTH",
"104 549 OFFCURVE",
"122 567 OFFCURVE",
"122 590 CURVE"
);
},
{
closed = 1;
nodes = (
"252 730 LINE",
"252 758 OFFCURVE",
"229 781 OFFCURVE",
"201 781 CURVE SMOOTH",
"173 781 OFFCURVE",
"150 758 OFFCURVE",
"150 730 CURVE",
"160 590 LINE",
"160 567 OFFCURVE",
"178 549 OFFCURVE",
"201 549 CURVE SMOOTH",
"224 549 OFFCURVE",
"242 567 OFFCURVE",
"243 590 CURVE"
);
}
);
width = 273;
}
);
unicode = 0022;
},
{
glyphname = numbersign;
lastChange = "2016-10-19 22:32:10 +0000";
layers = (
{
layerId = UUID0;
paths = (
{
closed = 1;
nodes = (
"239 227 LINE",
"323 227 LINE",
"293 54 LINE SMOOTH",
"292 51 OFFCURVE",
"292 48 OFFCURVE",
"292 44 CURVE SMOOTH",
"292 20 OFFCURVE",
"312 0 OFFCURVE",
"338 0 CURVE SMOOTH",
"366 0 OFFCURVE",
"392 22 OFFCURVE",
"396 50 CURVE SMOOTH",
"428 227 LINE",
"491 227 LINE SMOOTH",
"522 227 OFFCURVE",
"550 253 OFFCURVE",
"550 285 CURVE SMOOTH",
"550 310 OFFCURVE",
"531 330 OFFCURVE",
"504 330 CURVE SMOOTH",
"446 330 LINE",
"468 452 LINE",
"531 452 LINE SMOOTH",
"557 452 OFFCURVE",
"585 474 OFFCURVE",
"589 502 CURVE",
"590 511 LINE SMOOTH",
"591 537 OFFCURVE",
"567 556 OFFCURVE",
"544 556 CURVE SMOOTH",
"486 556 LINE",
"516 728 LINE SMOOTH",
"517 729 OFFCURVE",
"517 731 OFFCURVE",
"517 735 CURVE SMOOTH",
"517 761 OFFCURVE",
"498 782 OFFCURVE",
"471 782 CURVE SMOOTH",
"443 782 OFFCURVE",
"417 760 OFFCURVE",
"413 732 CURVE",
"381 556 LINE",
"297 556 LINE",
"328 728 LINE SMOOTH",
"328 729 OFFCURVE",
"328 731 OFFCURVE",
"328 735 CURVE SMOOTH",
"328 762 OFFCURVE",
"310 782 OFFCURVE",
"282 782 CURVE SMOOTH",
"255 782 OFFCURVE",
"229 760 OFFCURVE",
"224 732 CURVE SMOOTH",
"192 556 LINE",
"129 556 LINE SMOOTH",
"99 556 OFFCURVE",
"70 529 OFFCURVE",
"70 497 CURVE SMOOTH",
"70 472 OFFCURVE",
"89 452 OFFCURVE",
"116 452 CURVE SMOOTH",
"174 452 LINE",
"153 330 LINE",
"90 330 LINE SMOOTH",
"63 330 OFFCURVE",
"35 308 OFFCURVE",
"31 280 CURVE",
"31 271 LINE SMOOTH",
"29 245 OFFCURVE",
"52 227 OFFCURVE",
"77 227 CURVE SMOOTH",
"135 227 LINE",
"104 54 LINE SMOOTH",
"104 52 OFFCURVE",
"104 49 OFFCURVE",
"104 46 CURVE SMOOTH",
"104 21 OFFCURVE",
"122 0 OFFCURVE",
"149 0 CURVE SMOOTH",
"177 0 OFFCURVE",
"203 22 OFFCURVE",
"208 50 CURVE SMOOTH"
);
},
{
closed = 1;
nodes = (
"363 452 LINE",
"341 330 LINE",
"258 330 LINE",
"279 452 LINE"
);
}
);
width = 625;
}
);
unicode = 0023;
},
{
glyphname = dollar;
lastChange = "2016-10-19 22:32:10 +0000";
layers = (
{
layerId = UUID0;
paths = (
{
closed = 1;
nodes = (
"223 486 LINE",
"193 503 OFFCURVE",
"176 537 OFFCURVE",
"176 570 CURVE SMOOTH",
"176 605 OFFCURVE",
"192 633 OFFCURVE",
"223 653 CURVE"
);
},
{
closed = 1;
nodes = (
"325 346 LINE",
"362 321 OFFCURVE",
"380 279 OFFCURVE",
"380 238 CURVE SMOOTH",
"380 186 OFFCURVE",
"364 159 OFFCURVE",
"325 127 CURVE"
);
},
{
closed = 1;
nodes = (
"223 -23 LINE SMOOTH",
"223 -51 OFFCURVE",
"245 -74 OFFCURVE",
"274 -74 CURVE SMOOTH",
"302 -74 OFFCURVE",
"325 -51 OFFCURVE",
"325 -23 CURVE SMOOTH",
"325 13 LINE",
"422 48 OFFCURVE",
"482 139 OFFCURVE",
"482 240 CURVE SMOOTH",
"482 337 OFFCURVE",
"417 427 OFFCURVE",
"325 460 CURVE",
"325 652 LINE",
"359 628 OFFCURVE",
"364 593 OFFCURVE",
"401 593 CURVE SMOOTH",
"431 593 OFFCURVE",
"452 615 OFFCURVE",
"452 644 CURVE SMOOTH",
"452 700 OFFCURVE",
"373 750 OFFCURVE",
"325 762 CURVE",
"325 792 LINE SMOOTH",
"325 822 OFFCURVE",
"303 843 OFFCURVE",
"274 843 CURVE SMOOTH",
"245 843 OFFCURVE",
"223 822 OFFCURVE",
"223 792 CURVE SMOOTH",
"223 762 LINE",
"134 739 OFFCURVE",
"74 659 OFFCURVE",
"74 568 CURVE SMOOTH",
"74 478 OFFCURVE",
"138 398 OFFCURVE",
"223 376 CURVE",
"223 104 LINE",
"146 116 OFFCURVE",
"135 188 OFFCURVE",
"88 188 CURVE SMOOTH",
"59 188 OFFCURVE",
"38 167 OFFCURVE",
"38 138 CURVE SMOOTH",
"38 125 OFFCURVE",
"41 115 OFFCURVE",
"48 106 CURVE",
"87 46 OFFCURVE",
"152 9 OFFCURVE",
"223 1 CURVE"
);
}
);
width = 518;
}
);
unicode = 0024;
},
{
glyphname = percent;
lastChange = "2016-10-19 22:32:10 +0000";
layers = (
{
layerId = UUID0;
paths = (
{
closed = 1;
nodes = (
"426 689 OFFCURVE",
"336 781 OFFCURVE",
"227 781 CURVE SMOOTH",
"117 781 OFFCURVE",
"27 689 OFFCURVE",
"27 581 CURVE SMOOTH",
"27 473 OFFCURVE",
"117 382 OFFCURVE",
"227 382 CURVE SMOOTH",
"336 382 OFFCURVE",
"426 473 OFFCURVE",
"426 581 CURVE SMOOTH"
);
},
{
closed = 1;
nodes = (
"434 90 OFFCURVE",
"524 0 OFFCURVE",
"633 0 CURVE SMOOTH",
"742 0 OFFCURVE",
"833 89 OFFCURVE",
"833 199 CURVE SMOOTH",
"833 310 OFFCURVE",
"741 398 OFFCURVE",
"633 398 CURVE SMOOTH",
"523 398 OFFCURVE",
"434 308 OFFCURVE",
"434 199 CURVE SMOOTH"
);
},
{
closed = 1;
nodes = (
"279 679 OFFCURVE",
"324 634 OFFCURVE",
"324 581 CURVE SMOOTH",
"324 528 OFFCURVE",
"280 484 OFFCURVE",
"227 484 CURVE SMOOTH",
"172 484 OFFCURVE",
"129 528 OFFCURVE",
"129 581 CURVE SMOOTH",
"129 634 OFFCURVE",
"172 679 OFFCURVE",
"227 679 CURVE SMOOTH"
);
},
{
closed = 1;
nodes = (
"687 296 OFFCURVE",
"731 252 OFFCURVE",
"731 199 CURVE SMOOTH",
"731 146 OFFCURVE",
"687 102 OFFCURVE",
"633 102 CURVE SMOOTH",
"580 102 OFFCURVE",
"536 146 OFFCURVE",
"536 199 CURVE SMOOTH",
"536 253 OFFCURVE",
"580 296 OFFCURVE",
"633 296 CURVE SMOOTH"
);
},
{
closed = 1;
nodes = (
"183 0 OFFCURVE",
"195 5 OFFCURVE",
"205 16 CURVE",
"736 699 LINE SMOOTH",
"743 708 OFFCURVE",
"747 718 OFFCURVE",
"747 730 CURVE SMOOTH",
"747 758 OFFCURVE",
"724 781 OFFCURVE",
"695 781 CURVE SMOOTH",
"680 781 OFFCURVE",
"666 774 OFFCURVE",
"654 761 CURVE",
"128 85 LINE",
"120 76 OFFCURVE",
"116 65 OFFCURVE",
"116 51 CURVE SMOOTH",
"116 23 OFFCURVE",
"138 0 OFFCURVE",
"167 0 CURVE SMOOTH"
);
}
);
width = 859;
}
);
unicode = 0025;
},
{
glyphname = ampersand;
lastChange = "2016-10-19 22:32:10 +0000";
layers = (
{
layerId = UUID0;
paths = (
{
closed = 1;
nodes = (
"199 542 LINE SMOOTH",
"184 557 OFFCURVE",
"177 576 OFFCURVE",
"177 598 CURVE SMOOTH",
"177 641 OFFCURVE",
"211 679 OFFCURVE",
"256 679 CURVE SMOOTH",
"299 679 OFFCURVE",
"336 643 OFFCURVE",
"336 598 CURVE SMOOTH",
"336 574 OFFCURVE",
"321 550 OFFCURVE",
"295 528 CURVE",
"249 492 LINE"
);
},
{
closed = 1;
nodes = (
"339 138 LINE",
"316 115 OFFCURVE",
"289 104 OFFCURVE",
"256 104 CURVE SMOOTH",
"192 104 OFFCURVE",
"139 153 OFFCURVE",
"139 231 CURVE SMOOTH",
"139 262 OFFCURVE",
"159 292 OFFCURVE",
"195 322 CURVE",
"239 356 LINE",
"396 199 LINE"
);
},
{
closed = 1;
nodes = (
"366 453 LINE",
"416 495 OFFCURVE",
"440 544 OFFCURVE",
"440 598 CURVE SMOOTH",
"440 697 OFFCURVE",
"357 782 OFFCURVE",
"256 782 CURVE SMOOTH",
"158 782 OFFCURVE",
"73 699 OFFCURVE",
"73 598 CURVE SMOOTH",
"73 548 OFFCURVE",
"91 505 OFFCURVE",
"126 468 CURVE",
"126 468 LINE",
"167 427 LINE",
"129 398 LINE SMOOTH",
"65 348 OFFCURVE",
"35 293 OFFCURVE",
"35 231 CURVE SMOOTH",
"35 96 OFFCURVE",
"136 0 OFFCURVE",
"256 0 CURVE SMOOTH",
"317 0 OFFCURVE",
"370 21 OFFCURVE",
"413 65 CURVE",
"469 124 LINE",
"578 14 LINE",
"588 4 OFFCURVE",
"601 0 OFFCURVE",
"614 0 CURVE SMOOTH",
"643 0 OFFCURVE",
"667 23 OFFCURVE",
"667 52 CURVE SMOOTH",
"667 65 OFFCURVE",
"662 77 OFFCURVE",
"651 87 CURVE SMOOTH",
"540 200 LINE",
"615 280 LINE SMOOTH",
"625 290 OFFCURVE",
"629 302 OFFCURVE",
"629 315 CURVE SMOOTH",
"629 345 OFFCURVE",
"606 367 OFFCURVE",
"577 367 CURVE SMOOTH",
"563 367 OFFCURVE",
"549 362 OFFCURVE",
"540 353 CURVE SMOOTH",
"466 273 LINE",
"322 419 LINE"
);
}
);
width = 703;
}
);
unicode = 0026;
},
{
glyphname = quotesingle;
lastChange = "2016-10-19 22:32:10 +0000";
layers = (
{
layerId = UUID0;
paths = (
{
closed = 1;
nodes = (
"131 729 LINE",
"131 757 OFFCURVE",
"108 780 OFFCURVE",
"81 780 CURVE SMOOTH",
"53 780 OFFCURVE",
"30 757 OFFCURVE",
"30 729 CURVE",
"39 590 LINE",
"40 567 OFFCURVE",
"58 549 OFFCURVE",
"81 549 CURVE SMOOTH",
"104 549 OFFCURVE",
"122 567 OFFCURVE",
"122 590 CURVE"
);
}
);
width = 156;
}
);
unicode = 0027;
},
{
glyphname = parenleft;
lastChange = "2016-10-19 22:32:10 +0000";
layers = (
{
layerId = UUID0;
paths = (
{
closed = 1;
nodes = (
"72 590 OFFCURVE",
"35 433 OFFCURVE",
"35 274 CURVE SMOOTH",
"35 115 OFFCURVE",
"73 -42 OFFCURVE",
"148 -200 CURVE SMOOTH",
"160 -225 OFFCURVE",
"175 -234 OFFCURVE",
"196 -234 CURVE SMOOTH",
"226 -234 OFFCURVE",
"247 -211 OFFCURVE",
"247 -182 CURVE SMOOTH",
"247 -172 OFFCURVE",
"245 -165 OFFCURVE",
"241 -157 CURVE SMOOTH",
"173 -16 OFFCURVE",
"135 132 OFFCURVE",
"135 273 CURVE SMOOTH",
"135 416 OFFCURVE",
"170 559 OFFCURVE",
"240 701 CURVE",
"244 708 OFFCURVE",
"246 716 OFFCURVE",
"247 727 CURVE",
"247 756 OFFCURVE",
"225 780 OFFCURVE",
"196 780 CURVE SMOOTH",
"176 780 OFFCURVE",
"158 768 OFFCURVE",
"148 745 CURVE"
);
}
);
width = 273;
}
);
unicode = 0028;
},
{
glyphname = parenright;
lastChange = "2016-10-19 22:32:10 +0000";
layers = (
{
layerId = UUID0;
paths = (
{
closed = 1;
nodes = (
"247 433 OFFCURVE",
"209 588 OFFCURVE",
"134 745 CURVE SMOOTH",
"123 768 OFFCURVE",
"106 780 OFFCURVE",
"85 780 CURVE SMOOTH",
"57 780 OFFCURVE",
"35 756 OFFCURVE",
"35 727 CURVE",
"36 716 OFFCURVE",
"38 708 OFFCURVE",
"42 701 CURVE",
"112 559 OFFCURVE",
"146 416 OFFCURVE",
"146 273 CURVE SMOOTH",
"146 132 OFFCURVE",
"109 -16 OFFCURVE",
"41 -157 CURVE SMOOTH",
"37 -165 OFFCURVE",
"35 -172 OFFCURVE",
"35 -182 CURVE SMOOTH",
"35 -211 OFFCURVE",
"56 -234 OFFCURVE",
"85 -234 CURVE SMOOTH",
"106 -234 OFFCURVE",
"122 -225 OFFCURVE",
"133 -200 CURVE SMOOTH",
"209 -42 OFFCURVE",
"247 114 OFFCURVE",
"247 274 CURVE"
);
}
);
width = 273;
}
);
unicode = 0029;
},
{
glyphname = asterisk;
lastChange = "2016-10-19 22:32:10 +0000";
layers = (
{
layerId = UUID0;
paths = (
{
closed = 1;
nodes = (
"98 573 LINE SMOOTH",
"82 562 OFFCURVE",
"74 548 OFFCURVE",
"74 531 CURVE SMOOTH",
"74 505 OFFCURVE",
"93 480 OFFCURVE",
"125 480 CURVE SMOOTH",
"148 480 OFFCURVE",
"167 491 OFFCURVE",
"174 514 CURVE",
"194 565 LINE",
"215 515 LINE SMOOTH",
"223 494 OFFCURVE",
"236 482 OFFCURVE",
"256 480 CURVE",
"294 480 OFFCURVE",
"314 503 OFFCURVE",
"314 531 CURVE SMOOTH",
"314 548 OFFCURVE",
"306 562 OFFCURVE",
"291 573 CURVE SMOOTH",
"250 602 LINE",
"301 604 LINE",
"331 606 OFFCURVE",
"350 629 OFFCURVE",
"350 655 CURVE SMOOTH",
"350 686 OFFCURVE",
"323 706 OFFCURVE",
"299 706 CURVE SMOOTH",
"288 706 OFFCURVE",
"277 703 OFFCURVE",
"267 695 CURVE SMOOTH",
"228 666 LINE",
"242 713 LINE SMOOTH",
"244 719 OFFCURVE",
"245 724 OFFCURVE",
"245 729 CURVE SMOOTH",
"245 758 OFFCURVE",
"223 781 OFFCURVE",
"194 781 CURVE SMOOTH",
"165 781 OFFCURVE",
"143 758 OFFCURVE",
"143 729 CURVE SMOOTH",
"143 724 OFFCURVE",
"144 719 OFFCURVE",
"146 713 CURVE SMOOTH",
"160 667 LINE",
"121 695 LINE SMOOTH",
"111 702 OFFCURVE",
"100 706 OFFCURVE",
"89 706 CURVE SMOOTH",
"65 706 OFFCURVE",
"38 686 OFFCURVE",
"38 655 CURVE SMOOTH",
"38 627 OFFCURVE",
"61 607 OFFCURVE",
"88 604 CURVE",
"138 602 LINE"
);
}
);
width = 381;
}
);
unicode = 002A;
},
{
glyphname = plus;
lastChange = "2016-10-19 22:32:10 +0000";
layers = (
{
layerId = UUID0;
paths = (
{
closed = 1;
nodes = (
"459 333 LINE SMOOTH",
"487 333 OFFCURVE",
"511 356 OFFCURVE",
"511 384 CURVE SMOOTH",
"511 413 OFFCURVE",
"487 436 OFFCURVE",
"459 436 CURVE SMOOTH",
"325 436 LINE",
"325 570 LINE SMOOTH",
"325 599 OFFCURVE",
"304 621 OFFCURVE",
"274 621 CURVE SMOOTH",
"247 621 OFFCURVE",
"223 598 OFFCURVE",
"223 570 CURVE SMOOTH",
"223 436 LINE",
"89 436 LINE SMOOTH",
"60 436 OFFCURVE",
"38 414 OFFCURVE",
"38 385 CURVE SMOOTH",
"38 355 OFFCURVE",
"60 333 OFFCURVE",
"89 333 CURVE SMOOTH",
"223 333 LINE",
"223 199 LINE SMOOTH",
"223 170 OFFCURVE",
"245 148 OFFCURVE",
"274 148 CURVE SMOOTH",
"304 148 OFFCURVE",
"325 170 OFFCURVE",
"325 199 CURVE SMOOTH",
"325 333 LINE"
);
}
);
width = 547;
}
);
unicode = 002B;
},
{
glyphname = comma;
lastChange = "2016-10-19 22:32:10 +0000";
layers = (
{
layerId = UUID0;
paths = (
{
closed = 1;
nodes = (
"172 107 OFFCURVE",
"141 139 OFFCURVE",
"103 139 CURVE SMOOTH",
"65 139 OFFCURVE",
"34 108 OFFCURVE",
"34 69 CURVE SMOOTH",
"34 30 OFFCURVE",
"74 7 OFFCURVE",
"74 -18 CURVE SMOOTH",
"74 -35 OFFCURVE",
"52 -49 OFFCURVE",
"52 -69 CURVE SMOOTH",
"52 -93 OFFCURVE",
"70 -111 OFFCURVE",
"94 -111 CURVE SMOOTH",
"145 -111 OFFCURVE",
"172 -4 OFFCURVE",
"172 69 CURVE SMOOTH"
);
}
);
width = 195;
}
);
unicode = 002C;
},
{
glyphname = hyphen;
lastChange = "2016-10-19 22:32:10 +0000";
layers = (
{
layerId = UUID0;
paths = (
{
closed = 1;
nodes = (
"310 223 LINE SMOOTH",
"339 223 OFFCURVE",
"360 244 OFFCURVE",
"360 273 CURVE SMOOTH",
"360 303 OFFCURVE",
"339 324 OFFCURVE",
"310 324 CURVE SMOOTH",
"87 324 LINE SMOOTH",
"58 324 OFFCURVE",
"36 303 OFFCURVE",
"36 273 CURVE SMOOTH",
"36 244 OFFCURVE",
"58 223 OFFCURVE",
"87 223 CURVE SMOOTH"
);
}
);
width = 391;
}
);
unicode = 002D;
},
{
glyphname = period;
lastChange = "2016-10-19 22:32:10 +0000";
layers = (
{
layerId = UUID0;
paths = (
{
closed = 1;
nodes = (
"167 107 OFFCURVE",
"136 139 OFFCURVE",
"98 139 CURVE SMOOTH",
"61 139 OFFCURVE",
"29 108 OFFCURVE",
"29 69 CURVE SMOOTH",
"29 31 OFFCURVE",
"60 0 OFFCURVE",
"98 0 CURVE SMOOTH",
"137 0 OFFCURVE",
"167 32 OFFCURVE",
"167 69 CURVE SMOOTH"
);
}
);
width = 195;
}
);
unicode = 002E;
},
{
glyphname = slash;
lastChange = "2016-10-19 22:32:10 +0000";
layers = (
{
layerId = UUID0;
paths = (
{
closed = 1;
nodes = (
"436 709 LINE SMOOTH",
"438 715 OFFCURVE",
"440 722 OFFCURVE",
"440 730 CURVE SMOOTH",
"440 758 OFFCURVE",
"417 781 OFFCURVE",
"390 781 CURVE SMOOTH",
"370 781 OFFCURVE",
"351 769 OFFCURVE",
"343 751 CURVE",
"42 -2 LINE SMOOTH",
"39 -9 OFFCURVE",
"37 -17 OFFCURVE",
"37 -23 CURVE SMOOTH",
"37 -52 OFFCURVE",
"59 -74 OFFCURVE",
"88 -74 CURVE SMOOTH",
"107 -74 OFFCURVE",
"123 -64 OFFCURVE",
"135 -44 CURVE"
);
}
);
width = 469;
}
);
unicode = 002F;
},
{
glyphname = zero;
lastChange = "2016-10-19 22:32:10 +0000";
layers = (
{
layerId = UUID0;
paths = (
{
closed = 1;
nodes = (
"38 145 OFFCURVE",
"125 0 OFFCURVE",
"277 0 CURVE SMOOTH",
"429 0 OFFCURVE",
"516 149 OFFCURVE",
"516 391 CURVE SMOOTH",
"516 633 OFFCURVE",
"429 782 OFFCURVE",
"277 782 CURVE SMOOTH",
"125 782 OFFCURVE",
"38 637 OFFCURVE",
"38 391 CURVE SMOOTH"
);
},
{
closed = 1;
nodes = (
"368 679 OFFCURVE",
"413 554 OFFCURVE",
"413 391 CURVE SMOOTH",
"413 227 OFFCURVE",
"369 104 OFFCURVE",
"277 104 CURVE SMOOTH",
"186 104 OFFCURVE",
"141 224 OFFCURVE",
"141 391 CURVE SMOOTH",
"141 556 OFFCURVE",
"185 679 OFFCURVE",
"277 679 CURVE SMOOTH"
);
}
);
width = 547;
}
);
unicode = 0030;
},
{
glyphname = one;
lastChange = "2016-10-19 22:32:10 +0000";
layers = (
{
layerId = UUID0;
paths = (
{
closed = 1;
nodes = (
"141 51 LINE SMOOTH",
"141 23 OFFCURVE",
"164 0 OFFCURVE",
"191 0 CURVE SMOOTH",
"220 0 OFFCURVE",
"243 23 OFFCURVE",
"243 51 CURVE SMOOTH",
"243 729 LINE SMOOTH",
"243 759 OFFCURVE",
"220 781 OFFCURVE",
"190 781 CURVE SMOOTH",
"185 781 OFFCURVE",
"180 779 OFFCURVE",
"174 777 CURVE SMOOTH",
"63 740 LINE",
"41 730 OFFCURVE",
"30 713 OFFCURVE",
"30 692 CURVE SMOOTH",
"30 663 OFFCURVE",
"51 642 OFFCURVE",
"81 642 CURVE SMOOTH",
"98 642 OFFCURVE",
"121 652 OFFCURVE",
"141 659 CURVE"
);
}
);
width = 273;
}
);
unicode = 0031;
},
{
glyphname = two;
lastChange = "2016-10-19 22:32:10 +0000";
layers = (
{
layerId = UUID0;
paths = (
{
closed = 1;
nodes = (
"38 517 OFFCURVE",
"61 494 OFFCURVE",
"89 494 CURVE SMOOTH",
"118 494 OFFCURVE",
"140 517 OFFCURVE",
"140 544 CURVE SMOOTH",
"140 620 OFFCURVE",
"200 679 OFFCURVE",
"274 679 CURVE SMOOTH",
"347 679 OFFCURVE",
"409 617 OFFCURVE",
"409 544 CURVE SMOOTH",
"409 507 OFFCURVE",
"396 475 OFFCURVE",
"369 448 CURVE",
"52 87 LINE",
"43 78 OFFCURVE",
"38 65 OFFCURVE",
"38 51 CURVE SMOOTH",
"38 23 OFFCURVE",
"60 0 OFFCURVE",
"89 0 CURVE SMOOTH",
"459 0 LINE SMOOTH",
"488 0 OFFCURVE",
"511 23 OFFCURVE",
"511 51 CURVE SMOOTH",
"511 78 OFFCURVE",
"488 102 OFFCURVE",
"459 102 CURVE SMOOTH",
"204 102 LINE",
"441 377 LINE",
"486 423 OFFCURVE",
"511 479 OFFCURVE",
"511 544 CURVE SMOOTH",
"511 672 OFFCURVE",
"403 781 OFFCURVE",
"274 781 CURVE SMOOTH",
"146 781 OFFCURVE",
"38 675 OFFCURVE",
"38 544 CURVE SMOOTH"
);
}
);
width = 547;
}
);
unicode = 0032;
},
{
glyphname = three;
lastChange = "2016-10-19 22:32:10 +0000";
layers = (
{
layerId = UUID0;
paths = (
{
closed = 1;
nodes = (
"75 551 OFFCURVE",
"98 528 OFFCURVE",
"126 528 CURVE SMOOTH",
"156 528 OFFCURVE",
"177 553 OFFCURVE",
"177 582 CURVE SMOOTH",
"177 635 OFFCURVE",
"222 679 OFFCURVE",
"274 679 CURVE SMOOTH",
"327 679 OFFCURVE",
"372 633 OFFCURVE",
"372 579 CURVE SMOOTH",
"372 525 OFFCURVE",
"327 480 OFFCURVE",
"274 480 CURVE SMOOTH",
"245 480 OFFCURVE",
"223 458 OFFCURVE",
"223 429 CURVE SMOOTH",
"223 399 OFFCURVE",
"245 377 OFFCURVE",
"274 377 CURVE SMOOTH",
"349 377 OFFCURVE",
"409 314 OFFCURVE",
"409 240 CURVE SMOOTH",
"409 166 OFFCURVE",
"349 104 OFFCURVE",
"274 104 CURVE SMOOTH",
"199 104 OFFCURVE",
"140 164 OFFCURVE",
"140 240 CURVE SMOOTH",
"140 270 OFFCURVE",
"118 292 OFFCURVE",
"89 292 CURVE SMOOTH",
"60 292 OFFCURVE",
"38 270 OFFCURVE",
"38 240 CURVE SMOOTH",
"38 107 OFFCURVE",
"144 0 OFFCURVE",
"274 0 CURVE SMOOTH",
"405 0 OFFCURVE",
"511 109 OFFCURVE",
"511 240 CURVE SMOOTH",
"511 318 OFFCURVE",
"479 383 OFFCURVE",
"414 435 CURVE",
"454 477 OFFCURVE",
"474 525 OFFCURVE",
"474 579 CURVE SMOOTH",
"474 690 OFFCURVE",
"383 782 OFFCURVE",
"274 782 CURVE SMOOTH",
"166 782 OFFCURVE",
"75 692 OFFCURVE",
"75 579 CURVE SMOOTH"
);
}
);
width = 547;
}
);
unicode = 0033;
},
{
glyphname = four;
lastChange = "2016-10-19 22:32:10 +0000";
layers = (
{
layerId = UUID0;
paths = (
{
closed = 1;
nodes = (
"188 298 LINE",
"373 566 LINE",
"373 298 LINE"
);
},
{
closed = 1;
nodes = (
"373 51 LINE SMOOTH",
"373 23 OFFCURVE",
"396 0 OFFCURVE",
"423 0 CURVE SMOOTH",
"452 0 OFFCURVE",
"475 23 OFFCURVE",
"475 51 CURVE SMOOTH",
"475 197 LINE",
"535 197 LINE SMOOTH",
"563 197 OFFCURVE",
"586 218 OFFCURVE",
"586 248 CURVE SMOOTH",
"586 277 OFFCURVE",
"563 298 OFFCURVE",
"535 298 CURVE SMOOTH",
"475 298 LINE",
"475 729 LINE SMOOTH",
"475 758 OFFCURVE",
"452 781 OFFCURVE",
"424 781 CURVE SMOOTH",
"406 781 OFFCURVE",
"391 772 OFFCURVE",
"382 759 CURVE SMOOTH",
"49 277 LINE SMOOTH",
"42 268 OFFCURVE",
"39 259 OFFCURVE",
"39 248 CURVE SMOOTH",
"39 218 OFFCURVE",
"61 197 OFFCURVE",
"90 197 CURVE SMOOTH",
"373 197 LINE"
);
}
);
width = 625;
}
);
unicode = 0034;
},
{
glyphname = five;
lastChange = "2016-10-19 22:32:10 +0000";
layers = (
{
layerId = UUID0;
paths = (
{
closed = 1;
nodes = (
"460 679 LINE SMOOTH",
"489 679 OFFCURVE",
"511 702 OFFCURVE",
"511 729 CURVE SMOOTH",
"511 757 OFFCURVE",
"488 781 OFFCURVE",
"460 781 CURVE SMOOTH",
"126 781 LINE SMOOTH",
"97 781 OFFCURVE",
"76 758 OFFCURVE",
"76 729 CURVE SMOOTH",
"76 459 LINE SMOOTH",
"76 430 OFFCURVE",
"97 408 OFFCURVE",
"126 408 CURVE SMOOTH",
"293 408 LINE SMOOTH",
"377 408 OFFCURVE",
"446 338 OFFCURVE",
"446 255 CURVE SMOOTH",
"446 171 OFFCURVE",
"377 102 OFFCURVE",
"293 102 CURVE SMOOTH",
"209 102 OFFCURVE",
"141 170 OFFCURVE",
"141 255 CURVE SMOOTH",
"141 284 OFFCURVE",
"118 306 OFFCURVE",
"89 306 CURVE SMOOTH",
"60 306 OFFCURVE",
"39 284 OFFCURVE",
"39 255 CURVE SMOOTH",
"39 116 OFFCURVE",
"154 0 OFFCURVE",
"293 0 CURVE SMOOTH",
"433 0 OFFCURVE",
"548 116 OFFCURVE",
"548 255 CURVE SMOOTH",
"548 396 OFFCURVE",
"430 510 OFFCURVE",
"293 510 CURVE SMOOTH",
"177 510 LINE",
"177 679 LINE"
);
}
);
width = 586;
}
);
unicode = 0035;
},
{
glyphname = six;
lastChange = "2016-10-19 22:32:10 +0000";
layers = (
{
layerId = UUID0;
paths = (
{
closed = 1;
nodes = (
"399 704 LINE",
"404 713 OFFCURVE",
"406 722 OFFCURVE",
"406 730 CURVE SMOOTH",
"406 759 OFFCURVE",
"385 781 OFFCURVE",
"355 781 CURVE SMOOTH",
"336 781 OFFCURVE",
"320 770 OFFCURVE",
"310 754 CURVE SMOOTH",
"76 365 LINE",
"76 366 LINE SMOOTH",
"51 328 OFFCURVE",
"38 285 OFFCURVE",
"38 236 CURVE SMOOTH",
"38 106 OFFCURVE",
"144 0 OFFCURVE",
"274 0 CURVE SMOOTH",
"405 0 OFFCURVE",
"511 107 OFFCURVE",
"511 236 CURVE SMOOTH",
"511 365 OFFCURVE",
"405 473 OFFCURVE",
"274 473 CURVE SMOOTH",
"260 473 LINE"
);
},
{
closed = 1;
nodes = (
"409 164 OFFCURVE",
"349 102 OFFCURVE",
"274 102 CURVE SMOOTH",
"199 102 OFFCURVE",
"140 161 OFFCURVE",
"140 236 CURVE SMOOTH",
"140 311 OFFCURVE",
"199 371 OFFCURVE",
"274 371 CURVE SMOOTH",
"349 371 OFFCURVE",
"409 309 OFFCURVE",
"409 236 CURVE SMOOTH"
);
}
);
width = 547;
}
);
unicode = 0036;
},
{
glyphname = seven;
lastChange = "2016-10-19 22:32:10 +0000";
layers = (
{
layerId = UUID0;
paths = (
{
closed = 1;
nodes = (
"47 83 LINE SMOOTH",
"41 71 OFFCURVE",
"38 61 OFFCURVE",
"38 51 CURVE SMOOTH",
"38 23 OFFCURVE",
"61 0 OFFCURVE",
"88 0 CURVE SMOOTH",
"107 0 OFFCURVE",
"125 10 OFFCURVE",
"135 28 CURVE",
"510 703 LINE SMOOTH",
"515 711 OFFCURVE",
"517 721 OFFCURVE",
"517 730 CURVE SMOOTH",
"517 758 OFFCURVE",
"494 781 OFFCURVE",
"466 781 CURVE SMOOTH",
"95 781 LINE SMOOTH",
"66 781 OFFCURVE",
"44 759 OFFCURVE",
"44 730 CURVE SMOOTH",
"44 701 OFFCURVE",
"66 679 OFFCURVE",
"95 679 CURVE SMOOTH",
"380 679 LINE"
);
}
);
width = 547;
}
);
unicode = 0037;
},
{
glyphname = eight;
lastChange = "2016-10-19 22:32:10 +0000";
layers = (
{
layerId = UUID0;
paths = (
{
closed = 1;
nodes = (
"330 677 OFFCURVE",
"376 632 OFFCURVE",
"376 578 CURVE SMOOTH",
"376 524 OFFCURVE",
"331 479 OFFCURVE",
"278 479 CURVE SMOOTH",
"222 479 OFFCURVE",
"179 523 OFFCURVE",
"179 578 CURVE SMOOTH",
"179 632 OFFCURVE",
"223 677 OFFCURVE",
"278 677 CURVE SMOOTH"
);
},
{
closed = 1;
nodes = (
"354 376 OFFCURVE",
"414 313 OFFCURVE",
"414 240 CURVE SMOOTH",
"414 166 OFFCURVE",
"354 104 OFFCURVE",
"278 104 CURVE SMOOTH",
"202 104 OFFCURVE",
"142 164 OFFCURVE",
"142 240 CURVE SMOOTH",
"142 315 OFFCURVE",
"202 376 OFFCURVE",
"278 376 CURVE SMOOTH"
);
},
{
closed = 1;
nodes = (
"71 382 OFFCURVE",
"38 317 OFFCURVE",
"38 240 CURVE SMOOTH",
"38 107 OFFCURVE",
"146 0 OFFCURVE",
"278 0 CURVE SMOOTH",
"409 0 OFFCURVE",
"518 109 OFFCURVE",
"518 240 CURVE SMOOTH",
"518 317 OFFCURVE",
"485 382 OFFCURVE",
"419 434 CURVE",
"459 474 OFFCURVE",
"479 522 OFFCURVE",
"479 578 CURVE SMOOTH",
"479 688 OFFCURVE",
"389 780 OFFCURVE",
"278 780 CURVE SMOOTH",
"167 780 OFFCURVE",
"76 690 OFFCURVE",
"76 578 CURVE SMOOTH",
"76 522 OFFCURVE",
"96 474 OFFCURVE",
"136 434 CURVE"
);
}
);
width = 547;
}
);
unicode = 0038;
},
{
glyphname = nine;
lastChange = "2016-10-19 22:32:10 +0000";
layers = (
{
layerId = UUID0;
paths = (
{
closed = 1;
nodes = (
"158 78 LINE SMOOTH",
"153 70 OFFCURVE",
"150 61 OFFCURVE",
"150 51 CURVE SMOOTH",
"150 23 OFFCURVE",
"173 0 OFFCURVE",
"203 0 CURVE SMOOTH",
"221 0 OFFCURVE",
"237 9 OFFCURVE",
"249 28 CURVE SMOOTH",
"479 410 LINE",
"504 448 OFFCURVE",
"518 492 OFFCURVE",
"518 541 CURVE SMOOTH",
"518 670 OFFCURVE",
"408 780 OFFCURVE",
"278 780 CURVE SMOOTH",
"147 780 OFFCURVE",
"38 673 OFFCURVE",
"38 541 CURVE SMOOTH",
"38 408 OFFCURVE",
"147 300 OFFCURVE",
"278 300 CURVE SMOOTH",
"292 300 LINE"
);
},
{
closed = 1;
nodes = (
"142 616 OFFCURVE",
"203 677 OFFCURVE",
"278 677 CURVE SMOOTH",
"352 677 OFFCURVE",
"414 614 OFFCURVE",
"414 541 CURVE SMOOTH",
"414 466 OFFCURVE",
"353 404 OFFCURVE",
"278 404 CURVE SMOOTH",
"204 404 OFFCURVE",
"142 463 OFFCURVE",
"142 541 CURVE SMOOTH"
);
}
);
width = 547;
}
);
unicode = 0039;
},
{
glyphname = colon;
lastChange = "2016-10-19 22:32:10 +0000";
layers = (
{
layerId = UUID0;
paths = (
{
closed = 1;
nodes = (
"167 107 OFFCURVE",
"136 139 OFFCURVE",
"98 139 CURVE SMOOTH",
"61 139 OFFCURVE",
"29 108 OFFCURVE",
"29 69 CURVE SMOOTH",
"29 31 OFFCURVE",
"60 0 OFFCURVE",
"98 0 CURVE SMOOTH",
"137 0 OFFCURVE",
"167 32 OFFCURVE",
"167 69 CURVE SMOOTH"
);
},
{
closed = 1;
nodes = (
"167 514 OFFCURVE",
"136 546 OFFCURVE",
"98 546 CURVE SMOOTH",
"61 546 OFFCURVE",
"29 515 OFFCURVE",
"29 477 CURVE SMOOTH",
"29 438 OFFCURVE",
"60 407 OFFCURVE",
"98 407 CURVE SMOOTH",
"137 407 OFFCURVE",
"167 439 OFFCURVE",
"167 477 CURVE SMOOTH"
);
}
);
width = 195;
}
);
unicode = 003A;
},
{
glyphname = semicolon;
lastChange = "2016-10-19 22:32:10 +0000";
layers = (
{
layerId = UUID0;
paths = (
{
closed = 1;
nodes = (
"167 514 OFFCURVE",
"136 546 OFFCURVE",
"98 546 CURVE SMOOTH",
"61 546 OFFCURVE",
"29 515 OFFCURVE",
"29 477 CURVE SMOOTH",
"29 438 OFFCURVE",
"60 407 OFFCURVE",
"98 407 CURVE SMOOTH",
"137 407 OFFCURVE",
"167 439 OFFCURVE",
"167 477 CURVE SMOOTH"
);
},
{
closed = 1;
nodes = (
"167 107 OFFCURVE",
"136 139 OFFCURVE",
"98 139 CURVE SMOOTH",
"61 139 OFFCURVE",
"29 108 OFFCURVE",
"29 69 CURVE SMOOTH",
"29 30 OFFCURVE",
"69 7 OFFCURVE",
"69 -18 CURVE SMOOTH",
"69 -35 OFFCURVE",
"47 -49 OFFCURVE",
"47 -69 CURVE SMOOTH",
"47 -93 OFFCURVE",
"65 -111 OFFCURVE",
"89 -111 CURVE SMOOTH",
"140 -111 OFFCURVE",
"167 -4 OFFCURVE",
"167 69 CURVE SMOOTH"
);
}
);
width = 195;
}
);
unicode = 003B;
},
{
glyphname = less;
lastChange = "2016-10-19 22:32:10 +0000";
layers = (
{
layerId = UUID0;
paths = (
{
closed = 1;
nodes = (
"65 393 LINE",
"47 380 OFFCURVE",
"38 366 OFFCURVE",
"38 348 CURVE SMOOTH",
"38 329 OFFCURVE",
"47 313 OFFCURVE",
"65 302 CURVE SMOOTH",
"434 81 LINE SMOOTH",
"441 76 OFFCURVE",
"450 74 OFFCURVE",
"459 74 CURVE SMOOTH",
"488 74 OFFCURVE",
"511 96 OFFCURVE",
"511 125 CURVE SMOOTH",
"511 143 OFFCURVE",
"502 158 OFFCURVE",
"485 169 CURVE",
"188 348 LINE",
"485 525 LINE",
"502 537 OFFCURVE",
"511 551 OFFCURVE",
"511 570 CURVE SMOOTH",
"511 598 OFFCURVE",
"488 621 OFFCURVE",
"459 621 CURVE SMOOTH",
"450 621 OFFCURVE",
"441 619 OFFCURVE",
"434 615 CURVE SMOOTH"
);
}
);
width = 547;
}
);
unicode = 003C;
},
{
glyphname = equal;
lastChange = "2016-10-19 22:32:10 +0000";
layers = (
{
layerId = UUID0;
paths = (
{
closed = 1;
nodes = (
"422 408 LINE SMOOTH",
"450 408 OFFCURVE",
"473 430 OFFCURVE",
"473 459 CURVE SMOOTH",
"473 487 OFFCURVE",
"450 510 OFFCURVE",
"422 510 CURVE SMOOTH",
"88 510 LINE SMOOTH",
"59 510 OFFCURVE",
"38 488 OFFCURVE",
"38 459 CURVE SMOOTH",
"38 430 OFFCURVE",
"59 408 OFFCURVE",
"88 408 CURVE SMOOTH"
);
},
{
closed = 1;
nodes = (
"422 185 LINE SMOOTH",
"450 185 OFFCURVE",
"473 208 OFFCURVE",
"473 236 CURVE SMOOTH",
"473 264 OFFCURVE",
"450 287 OFFCURVE",
"422 287 CURVE SMOOTH",
"88 287 LINE SMOOTH",
"59 287 OFFCURVE",
"38 266 OFFCURVE",
"38 236 CURVE SMOOTH",
"38 207 OFFCURVE",
"59 185 OFFCURVE",
"88 185 CURVE SMOOTH"
);
}
);
width = 508;
}
);
unicode = 003D;
},
{
glyphname = greater;
lastChange = "2016-10-19 22:32:10 +0000";
layers = (
{
layerId = UUID0;
paths = (
{
closed = 1;
nodes = (
"115 615 LINE SMOOTH",
"107 619 OFFCURVE",
"99 621 OFFCURVE",
"89 621 CURVE SMOOTH",
"61 621 OFFCURVE",
"38 598 OFFCURVE",
"38 570 CURVE SMOOTH",
"38 551 OFFCURVE",
"46 537 OFFCURVE",
"63 525 CURVE",
"361 348 LINE",
"63 169 LINE",
"46 158 OFFCURVE",
"38 143 OFFCURVE",
"38 125 CURVE SMOOTH",
"38 96 OFFCURVE",
"61 74 OFFCURVE",
"89 74 CURVE SMOOTH",
"99 74 OFFCURVE",
"107 76 OFFCURVE",
"115 81 CURVE SMOOTH",
"484 302 LINE SMOOTH",
"502 313 OFFCURVE",
"511 329 OFFCURVE",
"511 348 CURVE SMOOTH",
"511 366 OFFCURVE",
"502 380 OFFCURVE",
"484 393 CURVE"
);
}
);
width = 547;
}
);
unicode = 003E;
},
{
glyphname = question;
lastChange = "2016-10-19 22:32:10 +0000";
layers = (
{
layerId = UUID0;
paths = (
{
closed = 1;
nodes = (
"140 620 OFFCURVE",
"200 679 OFFCURVE",
"274 679 CURVE SMOOTH",
"347 679 OFFCURVE",
"409 617 OFFCURVE",
"409 544 CURVE SMOOTH",
"409 508 OFFCURVE",
"396 476 OFFCURVE",
"370 449 CURVE",
"293 378 LINE",
"247 332 OFFCURVE",
"223 279 OFFCURVE",
"223 220 CURVE SMOOTH",
"223 191 OFFCURVE",
"245 169 OFFCURVE",
"274 169 CURVE SMOOTH",
"304 169 OFFCURVE",
"325 191 OFFCURVE",
"325 220 CURVE SMOOTH",
"325 251 OFFCURVE",
"338 280 OFFCURVE",
"364 306 CURVE",
"441 376 LINE",
"487 424 OFFCURVE",
"511 480 OFFCURVE",
"511 544 CURVE SMOOTH",
"511 672 OFFCURVE",
"403 781 OFFCURVE",
"274 781 CURVE SMOOTH",
"146 781 OFFCURVE",
"38 675 OFFCURVE",
"38 544 CURVE SMOOTH",
"38 515 OFFCURVE",
"60 493 OFFCURVE",
"89 493 CURVE SMOOTH",
"117 493 OFFCURVE",
"140 516 OFFCURVE",
"140 544 CURVE SMOOTH"
);
},
{
closed = 1;
nodes = (
"344 107 OFFCURVE",
"312 139 OFFCURVE",
"274 139 CURVE SMOOTH",
"237 139 OFFCURVE",
"205 108 OFFCURVE",
"205 69 CURVE SMOOTH",
"205 31 OFFCURVE",
"236 0 OFFCURVE",
"274 0 CURVE SMOOTH",
"313 0 OFFCURVE",
"344 32 OFFCURVE",
"344 69 CURVE SMOOTH"
);
}
);
width = 547;
}
);
unicode = 003F;
},
{
glyphname = at;
lastChange = "2016-10-19 22:32:10 +0000";
layers = (
{
layerId = UUID0;
paths = (
{
closed = 1;
nodes = (
"645 448 OFFCURVE",
"722 368 OFFCURVE",
"722 273 CURVE SMOOTH",
"722 178 OFFCURVE",
"645 98 OFFCURVE",
"547 98 CURVE SMOOTH",
"450 98 OFFCURVE",
"372 175 OFFCURVE",
"372 273 CURVE SMOOTH",
"372 371 OFFCURVE",
"450 448 OFFCURVE",
"547 448 CURVE SMOOTH"
);
},
{
closed = 1;
nodes = (
"986 -45 OFFCURVE",
"1054 61 OFFCURVE",
"1054 273 CURVE SMOOTH",
"1054 412 OFFCURVE",
"1004 532 OFFCURVE",
"905 631 CURVE SMOOTH",
"806 730 OFFCURVE",
"687 780 OFFCURVE",
"547 780 CURVE SMOOTH",
"407 780 OFFCURVE",
"288 730 OFFCURVE",
"188 631 CURVE SMOOTH",
"89 532 OFFCURVE",
"40 412 OFFCURVE",
"40 273 CURVE SMOOTH",
"40 133 OFFCURVE",
"89 14 OFFCURVE",
"188 -85 CURVE SMOOTH",
"288 -185 OFFCURVE",
"407 -234 OFFCURVE",
"547 -234 CURVE SMOOTH",
"622 -234 OFFCURVE",
"692 -220 OFFCURVE",
"756 -190 CURVE",
"775 -185 OFFCURVE",
"790 -164 OFFCURVE",
"790 -142 CURVE SMOOTH",
"790 -113 OFFCURVE",
"767 -89 OFFCURVE",
"738 -89 CURVE SMOOTH",
"729 -89 OFFCURVE",
"721 -92 OFFCURVE",
"713 -96 CURVE",
"662 -119 OFFCURVE",
"606 -130 OFFCURVE",
"547 -130 CURVE SMOOTH",
"435 -130 OFFCURVE",
"341 -91 OFFCURVE",
"262 -12 CURVE SMOOTH",
"183 67 OFFCURVE",
"144 161 OFFCURVE",
"144 273 CURVE SMOOTH",
"144 385 OFFCURVE",
"183 479 OFFCURVE",
"262 558 CURVE SMOOTH",
"341 637 OFFCURVE",
"435 676 OFFCURVE",
"547 676 CURVE SMOOTH",
"766 676 OFFCURVE",
"950 497 OFFCURVE",
"950 273 CURVE SMOOTH",
"950 131 OFFCURVE",
"917 60 OFFCURVE",
"851 60 CURVE SMOOTH",
"835 60 OFFCURVE",
"827 67 OFFCURVE",
"827 83 CURVE SMOOTH",
"827 273 LINE SMOOTH",
"827 424 OFFCURVE",
"701 553 OFFCURVE",
"547 553 CURVE SMOOTH",
"394 553 OFFCURVE",
"268 426 OFFCURVE",
"268 273 CURVE SMOOTH",
"268 120 OFFCURVE",
"394 -7 OFFCURVE",
"547 -7 CURVE SMOOTH",
"613 -7 OFFCURVE",
"672 14 OFFCURVE",
"725 56 CURVE",
"734 -11 OFFCURVE",
"776 -45 OFFCURVE",
"851 -45 CURVE SMOOTH"
);
}
);
width = 1094;
}
);
unicode = 0040;
},
{
glyphname = A;
lastChange = "2016-10-19 22:32:10 +0000";
layers = (
{
layerId = UUID0;
paths = (
{
closed = 1;
nodes = (
"268 367 LINE",
"353 586 LINE",
"438 367 LINE"
);
},
{
closed = 1;
nodes = (
"43 75 LINE SMOOTH",
"40 66 OFFCURVE",
"38 59 OFFCURVE",
"38 52 CURVE SMOOTH",
"38 23 OFFCURVE",
"60 0 OFFCURVE",
"89 0 CURVE SMOOTH",
"108 0 OFFCURVE",
"130 13 OFFCURVE",
"137 32 CURVE SMOOTH",
"228 264 LINE",
"478 264 LINE",
"568 32 LINE SMOOTH",
"576 13 OFFCURVE",
"596 0 OFFCURVE",
"616 0 CURVE SMOOTH",
"645 0 OFFCURVE",
"668 23 OFFCURVE",
"668 52 CURVE SMOOTH",
"668 59 OFFCURVE",
"667 66 OFFCURVE",
"664 73 CURVE SMOOTH",
"402 746 LINE",
"393 770 OFFCURVE",
"376 781 OFFCURVE",
"353 781 CURVE SMOOTH",
"331 781 OFFCURVE",
"314 770 OFFCURVE",
"304 746 CURVE"
);
}
);
width = 703;
}
);
unicode = 0041;
},
{
glyphname = B;
lastChange = "2016-10-19 22:32:10 +0000";
layers = (
{
layerId = UUID0;
paths = (
{
closed = 1;
nodes = (
"239 678 LINE SMOOTH",
"292 678 OFFCURVE",
"337 632 OFFCURVE",
"337 579 CURVE SMOOTH",
"337 525 OFFCURVE",
"293 480 OFFCURVE",
"239 480 CURVE SMOOTH",
"140 480 LINE",
"140 678 LINE"
);
},
{
closed = 1;
nodes = (
"276 376 LINE SMOOTH",
"351 376 OFFCURVE",
"413 315 OFFCURVE",
"413 240 CURVE SMOOTH",
"413 165 OFFCURVE",
"352 104 OFFCURVE",
"276 104 CURVE SMOOTH",
"140 104 LINE",
"140 376 LINE"
);
},
{
closed = 1;
nodes = (
"88 781 LINE SMOOTH",
"60 781 OFFCURVE",
"36 758 OFFCURVE",
"36 729 CURVE SMOOTH",
"36 52 LINE SMOOTH",
"36 23 OFFCURVE",
"60 0 OFFCURVE",
"88 0 CURVE SMOOTH",
"276 0 LINE SMOOTH",
"408 0 OFFCURVE",
"516 109 OFFCURVE",
"516 240 CURVE SMOOTH",
"516 325 OFFCURVE",
"474 403 OFFCURVE",
"395 450 CURVE",
"426 486 OFFCURVE",
"441 530 OFFCURVE",
"441 579 CURVE SMOOTH",
"441 690 OFFCURVE",
"350 781 OFFCURVE",
"239 781 CURVE SMOOTH"
);
}
);
width = 547;
}
);
unicode = 0042;
},
{
glyphname = C;
lastChange = "2016-10-19 22:32:10 +0000";
layers = (
{
layerId = UUID0;
paths = (
{
closed = 1;
nodes = (
"627 175 OFFCURVE",
"616 172 OFFCURVE",
"608 167 CURVE SMOOTH",
"556 125 OFFCURVE",
"497 104 OFFCURVE",
"429 104 CURVE SMOOTH",
"271 104 OFFCURVE",
"142 231 OFFCURVE",
"142 391 CURVE SMOOTH",
"142 549 OFFCURVE",
"271 678 OFFCURVE",
"429 678 CURVE SMOOTH",
"494 678 OFFCURVE",
"557 656 OFFCURVE",
"605 617 CURVE SMOOTH",
"617 607 OFFCURVE",
"627 603 OFFCURVE",
"641 603 CURVE SMOOTH",
"670 603 OFFCURVE",
"693 625 OFFCURVE",
"693 654 CURVE SMOOTH",
"693 669 OFFCURVE",
"688 681 OFFCURVE",
"679 690 CURVE",
"604 751 OFFCURVE",
"521 781 OFFCURVE",
"429 781 CURVE SMOOTH",
"321 781 OFFCURVE",
"229 743 OFFCURVE",
"152 667 CURVE SMOOTH",
"76 590 OFFCURVE",
"38 499 OFFCURVE",
"38 391 CURVE SMOOTH",
"38 283 OFFCURVE",
"76 190 OFFCURVE",
"152 114 CURVE SMOOTH",
"229 38 OFFCURVE",
"321 0 OFFCURVE",
"429 0 CURVE SMOOTH",
"520 0 OFFCURVE",
"602 29 OFFCURVE",
"674 87 CURVE",
"685 98 OFFCURVE",
"690 110 OFFCURVE",
"690 124 CURVE SMOOTH",
"690 153 OFFCURVE",
"667 176 OFFCURVE",
"639 176 CURVE"
);
}
);
width = 723;
}
);
unicode = 0043;
},
{
glyphname = D;
lastChange = "2016-10-19 22:32:10 +0000";
layers = (
{
layerId = UUID0;
paths = (
{
closed = 1;
nodes = (
"141 104 LINE",
"141 678 LINE",
"240 678 LINE SMOOTH",
"396 678 OFFCURVE",
"527 547 OFFCURVE",
"527 391 CURVE SMOOTH",
"527 233 OFFCURVE",
"397 104 OFFCURVE",
"240 104 CURVE SMOOTH"
);
},
{
closed = 1;
nodes = (
"89 781 LINE SMOOTH",
"61 781 OFFCURVE",
"37 758 OFFCURVE",
"37 729 CURVE SMOOTH",
"37 52 LINE SMOOTH",
"37 23 OFFCURVE",
"61 0 OFFCURVE",
"89 0 CURVE SMOOTH",
"240 0 LINE SMOOTH",
"348 0 OFFCURVE",
"439 38 OFFCURVE",
"516 114 CURVE SMOOTH",
"592 191 OFFCURVE",
"630 283 OFFCURVE",
"630 391 CURVE SMOOTH",
"630 500 OFFCURVE",
"592 590 OFFCURVE",
"516 667 CURVE SMOOTH",
"439 743 OFFCURVE",
"347 781 OFFCURVE",
"240 781 CURVE SMOOTH"
);
}
);
width = 664;
}
);
unicode = 0044;
},
{
glyphname = E;
lastChange = "2016-10-19 22:32:10 +0000";
layers = (
{
layerId = UUID0;
paths = (
{
closed = 1;
nodes = (
"141 104 LINE",
"141 339 LINE",
"428 339 LINE SMOOTH",
"457 339 OFFCURVE",
"479 362 OFFCURVE",
"479 391 CURVE SMOOTH",
"479 419 OFFCURVE",
"457 442 OFFCURVE",
"428 442 CURVE SMOOTH",
"141 442 LINE",
"141 678 LINE",
"541 678 LINE SMOOTH",
"569 678 OFFCURVE",
"592 701 OFFCURVE",
"592 729 CURVE SMOOTH",
"592 758 OFFCURVE",
"569 781 OFFCURVE",
"541 781 CURVE SMOOTH",
"89 781 LINE SMOOTH",
"60 781 OFFCURVE",
"37 759 OFFCURVE",
"37 729 CURVE SMOOTH",
"37 52 LINE SMOOTH",
"37 22 OFFCURVE",
"60 0 OFFCURVE",
"89 0 CURVE SMOOTH",
"541 0 LINE SMOOTH",
"569 0 OFFCURVE",
"592 23 OFFCURVE",
"592 52 CURVE SMOOTH",
"592 81 OFFCURVE",
"569 104 OFFCURVE",
"541 104 CURVE SMOOTH"
);
}
);
width = 625;
}
);
unicode = 0045;
},
{
glyphname = F;
lastChange = "2016-10-19 22:32:10 +0000";
layers = (
{
layerId = UUID0;
paths = (
{
closed = 1;
nodes = (
"37 52 LINE SMOOTH",
"37 23 OFFCURVE",
"60 0 OFFCURVE",
"89 0 CURVE SMOOTH",
"118 0 OFFCURVE",
"141 23 OFFCURVE",
"141 52 CURVE SMOOTH",
"141 339 LINE",
"428 339 LINE SMOOTH",
"457 339 OFFCURVE",
"479 362 OFFCURVE",
"479 391 CURVE SMOOTH",
"479 419 OFFCURVE",
"457 442 OFFCURVE",
"428 442 CURVE SMOOTH",
"141 442 LINE",
"141 678 LINE",
"541 678 LINE SMOOTH",
"569 678 OFFCURVE",
"592 701 OFFCURVE",
"592 729 CURVE SMOOTH",
"592 758 OFFCURVE",
"569 781 OFFCURVE",
"541 781 CURVE SMOOTH",
"89 781 LINE SMOOTH",
"60 781 OFFCURVE",
"37 759 OFFCURVE",
"37 729 CURVE SMOOTH"
);
}
);
width = 625;
}
);
unicode = 0046;
},
{
glyphname = G;
lastChange = "2016-10-19 22:32:10 +0000";
layers = (
{
layerId = UUID0;
paths = (
{
closed = 1;
nodes = (
"690 353 LINE SMOOTH",
"690 381 OFFCURVE",
"667 405 OFFCURVE",
"639 405 CURVE SMOOTH",
"452 405 LINE SMOOTH",
"423 405 OFFCURVE",
"400 382 OFFCURVE",
"400 353 CURVE SMOOTH",
"400 324 OFFCURVE",
"423 301 OFFCURVE",
"452 301 CURVE SMOOTH",
"587 301 LINE",
"587 150 LINE",
"541 119 OFFCURVE",
"488 104 OFFCURVE",
"429 104 CURVE SMOOTH",
"271 104 OFFCURVE",
"142 231 OFFCURVE",
"142 391 CURVE SMOOTH",
"142 549 OFFCURVE",
"271 678 OFFCURVE",
"429 678 CURVE SMOOTH",
"496 678 OFFCURVE",
"556 656 OFFCURVE",
"605 617 CURVE",
"616 607 OFFCURVE",
"628 603 OFFCURVE",
"641 603 CURVE SMOOTH",
"670 603 OFFCURVE",
"693 625 OFFCURVE",
"693 654 CURVE SMOOTH",
"693 669 OFFCURVE",
"688 682 OFFCURVE",
"679 690 CURVE SMOOTH",
"605 751 OFFCURVE",
"520 781 OFFCURVE",
"429 781 CURVE SMOOTH",
"321 781 OFFCURVE",
"229 743 OFFCURVE",
"152 667 CURVE SMOOTH",
"76 590 OFFCURVE",
"38 499 OFFCURVE",
"38 391 CURVE SMOOTH",
"38 283 OFFCURVE",
"76 190 OFFCURVE",
"152 114 CURVE SMOOTH",
"229 38 OFFCURVE",
"321 0 OFFCURVE",
"429 0 CURVE SMOOTH",
"520 0 OFFCURVE",
"602 29 OFFCURVE",
"674 87 CURVE",
"685 98 OFFCURVE",
"690 110 OFFCURVE",
"690 124 CURVE SMOOTH"
);
}
);
width = 732;
}
);
unicode = 0047;
},
{
glyphname = H;
lastChange = "2016-10-19 22:32:10 +0000";
layers = (
{
layerId = UUID0;
paths = (
{
closed = 1;
nodes = (
"592 729 LINE SMOOTH",
"592 758 OFFCURVE",
"569 781 OFFCURVE",
"541 781 CURVE SMOOTH",
"512 781 OFFCURVE",
"489 758 OFFCURVE",
"489 729 CURVE SMOOTH",
"489 442 LINE",
"141 442 LINE",
"141 729 LINE SMOOTH",
"141 758 OFFCURVE",
"118 781 OFFCURVE",
"89 781 CURVE SMOOTH",
"60 781 OFFCURVE",
"37 758 OFFCURVE",
"37 729 CURVE SMOOTH",
"37 52 LINE SMOOTH",
"37 23 OFFCURVE",
"60 0 OFFCURVE",
"89 0 CURVE SMOOTH",
"118 0 OFFCURVE",
"141 23 OFFCURVE",
"141 52 CURVE SMOOTH",
"141 339 LINE",
"489 339 LINE",
"489 52 LINE SMOOTH",
"489 23 OFFCURVE",
"512 0 OFFCURVE",
"541 0 CURVE SMOOTH",
"569 0 OFFCURVE",
"592 23 OFFCURVE",
"592 52 CURVE SMOOTH"
);
}
);
width = 625;
}
);
unicode = 0048;
},
{
glyphname = I;
lastChange = "2016-10-19 22:32:10 +0000";
layers = (
{
layerId = UUID0;
paths = (
{
closed = 1;
nodes = (
"175 729 LINE SMOOTH",
"175 758 OFFCURVE",
"152 781 OFFCURVE",
"123 781 CURVE SMOOTH",
"94 781 OFFCURVE",
"71 758 OFFCURVE",
"71 729 CURVE SMOOTH",
"71 52 LINE SMOOTH",
"71 23 OFFCURVE",
"94 0 OFFCURVE",
"123 0 CURVE SMOOTH",
"152 0 OFFCURVE",
"175 23 OFFCURVE",
"175 52 CURVE SMOOTH"
);
}
);
width = 234;
}
);
unicode = 0049;
},
{
glyphname = J;
lastChange = "2016-10-19 22:32:10 +0000";
layers = (
{
layerId = UUID0;
paths = (
{
closed = 1;
nodes = (
"140 269 OFFCURVE",
"117 292 OFFCURVE",
"88 292 CURVE SMOOTH",
"59 292 OFFCURVE",
"36 269 OFFCURVE",
"36 240 CURVE SMOOTH",
"36 109 OFFCURVE",
"144 0 OFFCURVE",
"276 0 CURVE SMOOTH",
"408 0 OFFCURVE",
"516 109 OFFCURVE",
"516 240 CURVE SMOOTH",
"516 729 LINE SMOOTH",
"516 758 OFFCURVE",
"493 781 OFFCURVE",
"464 781 CURVE SMOOTH",
"436 781 OFFCURVE",
"413 758 OFFCURVE",
"413 729 CURVE SMOOTH",
"413 240 LINE SMOOTH",
"413 165 OFFCURVE",
"352 104 OFFCURVE",
"276 104 CURVE SMOOTH",
"200 104 OFFCURVE",
"140 164 OFFCURVE",
"140 240 CURVE SMOOTH"
);
}
);
width = 547;
}
);
unicode = 004A;
},
{
glyphname = K;
lastChange = "2016-10-19 22:32:10 +0000";
layers = (
{
layerId = UUID0;
paths = (
{
closed = 1;
nodes = (
"37 52 LINE SMOOTH",
"37 23 OFFCURVE",
"60 0 OFFCURVE",
"88 0 CURVE SMOOTH",
"117 0 OFFCURVE",
"140 23 OFFCURVE",
"140 52 CURVE SMOOTH",
"140 293 LINE",
"209 362 LINE",
"460 22 LINE",
"470 7 OFFCURVE",
"484 0 OFFCURVE",
"503 0 CURVE SMOOTH",
"532 0 OFFCURVE",
"554 25 OFFCURVE",
"554 53 CURVE",
"554 63 OFFCURVE",
"551 73 OFFCURVE",
"544 83 CURVE SMOOTH",
"283 437 LINE",
"539 693 LINE SMOOTH",
"549 703 OFFCURVE",
"554 715 OFFCURVE",
"554 729 CURVE SMOOTH",
"554 759 OFFCURVE",
"532 781 OFFCURVE",
"502 781 CURVE SMOOTH",
"488 781 OFFCURVE",
"476 776 OFFCURVE",
"465 765 CURVE SMOOTH",
"140 440 LINE",
"140 729 LINE SMOOTH",
"140 758 OFFCURVE",
"117 781 OFFCURVE",
"88 781 CURVE SMOOTH",
"60 781 OFFCURVE",
"37 758 OFFCURVE",
"37 729 CURVE SMOOTH"
);
}
);
width = 586;
}
);
unicode = 004B;
},
{
glyphname = L;
lastChange = "2016-10-19 22:32:10 +0000";
layers = (
{
layerId = UUID0;
paths = (
{
closed = 1;
nodes = (
"37 52 LINE SMOOTH",
"37 22 OFFCURVE",
"59 0 OFFCURVE",
"88 0 CURVE SMOOTH",
"502 0 LINE SMOOTH",
"531 0 OFFCURVE",
"554 23 OFFCURVE",
"554 52 CURVE SMOOTH",
"554 81 OFFCURVE",
"531 104 OFFCURVE",
"502 104 CURVE SMOOTH",
"140 104 LINE",
"140 729 LINE SMOOTH",
"140 758 OFFCURVE",
"117 781 OFFCURVE",
"88 781 CURVE SMOOTH",
"60 781 OFFCURVE",
"37 758 OFFCURVE",
"37 729 CURVE SMOOTH"
);
}
);
width = 586;
}
);
unicode = 004C;
},
{
glyphname = M;
lastChange = "2016-10-19 22:32:10 +0000";
layers = (
{
layerId = UUID0;
paths = (
{
closed = 1;
nodes = (
"39 52 LINE SMOOTH",
"39 23 OFFCURVE",
"62 0 OFFCURVE",
"91 0 CURVE SMOOTH",
"120 0 OFFCURVE",
"143 23 OFFCURVE",
"143 52 CURVE SMOOTH",
"143 510 LINE",
"382 31 LINE SMOOTH",
"393 10 OFFCURVE",
"408 0 OFFCURVE",
"430 0 CURVE SMOOTH",
"450 0 OFFCURVE",
"464 9 OFFCURVE",
"475 26 CURVE",
"717 510 LINE",
"717 52 LINE SMOOTH",
"717 23 OFFCURVE",
"740 0 OFFCURVE",
"769 0 CURVE SMOOTH",
"797 0 OFFCURVE",
"820 23 OFFCURVE",
"820 52 CURVE SMOOTH",
"820 729 LINE SMOOTH",
"820 759 OFFCURVE",
"798 781 OFFCURVE",
"769 781 CURVE SMOOTH",
"750 781 OFFCURVE",
"734 772 OFFCURVE",
"723 753 CURVE",
"430 168 LINE",
"137 753 LINE",
"126 772 OFFCURVE",
"111 781 OFFCURVE",
"91 781 CURVE SMOOTH",
"62 781 OFFCURVE",
"39 759 OFFCURVE",
"39 729 CURVE SMOOTH"
);
}
);
width = 859;
}
);
unicode = 004D;
},
{
glyphname = N;
lastChange = "2016-10-19 22:32:10 +0000";
layers = (
{
layerId = UUID0;
paths = (
{
closed = 1;
nodes = (
"38 52 LINE SMOOTH",
"38 23 OFFCURVE",
"61 0 OFFCURVE",
"89 0 CURVE SMOOTH",
"118 0 OFFCURVE",
"141 23 OFFCURVE",
"141 52 CURVE SMOOTH",
"141 578 LINE",
"577 18 LINE",
"588 6 OFFCURVE",
"602 0 OFFCURVE",
"617 0 CURVE SMOOTH",
"646 0 OFFCURVE",
"668 22 OFFCURVE",
"668 52 CURVE SMOOTH",
"668 729 LINE SMOOTH",
"668 758 OFFCURVE",
"646 781 OFFCURVE",
"617 781 CURVE SMOOTH",
"588 781 OFFCURVE",
"565 758 OFFCURVE",
"565 729 CURVE SMOOTH",
"565 202 LINE",
"129 762 LINE",
"118 775 OFFCURVE",
"104 781 OFFCURVE",
"89 781 CURVE SMOOTH",
"60 781 OFFCURVE",
"38 759 OFFCURVE",
"38 729 CURVE SMOOTH"
);
}
);
width = 703;
}
);
unicode = 004E;
},
{
glyphname = O;
lastChange = "2016-10-19 22:32:10 +0000";
layers = (
{
layerId = UUID0;
paths = (
{
closed = 1;
nodes = (
"587 678 OFFCURVE",
"717 547 OFFCURVE",
"717 391 CURVE SMOOTH",
"717 233 OFFCURVE",
"587 104 OFFCURVE",
"430 104 CURVE SMOOTH",
"272 104 OFFCURVE",
"143 233 OFFCURVE",
"143 391 CURVE SMOOTH",
"143 548 OFFCURVE",
"272 678 OFFCURVE",
"430 678 CURVE SMOOTH"
);
},
{
closed = 1;
nodes = (
"820 500 OFFCURVE",
"782 590 OFFCURVE",
"706 667 CURVE SMOOTH",
"629 743 OFFCURVE",
"537 781 OFFCURVE",
"430 781 CURVE SMOOTH",
"322 781 OFFCURVE",
"230 743 OFFCURVE",
"153 667 CURVE SMOOTH",
"77 590 OFFCURVE",
"39 499 OFFCURVE",
"39 391 CURVE SMOOTH",
"39 283 OFFCURVE",
"77 190 OFFCURVE",
"153 114 CURVE SMOOTH",
"229 38 OFFCURVE",
"322 0 OFFCURVE",
"430 0 CURVE SMOOTH",
"538 0 OFFCURVE",
"629 38 OFFCURVE",
"706 114 CURVE SMOOTH",
"782 191 OFFCURVE",
"820 283 OFFCURVE",
"820 391 CURVE SMOOTH"
);
}
);
width = 859;
}
);
unicode = 004F;
},
{
glyphname = P;
lastChange = "2016-10-19 22:32:10 +0000";
layers = (
{
layerId = UUID0;
paths = (
{
closed = 1;
nodes = (
"238 678 LINE SMOOTH",
"322 678 OFFCURVE",
"394 610 OFFCURVE",
"394 522 CURVE SMOOTH",
"394 437 OFFCURVE",
"322 367 OFFCURVE",
"238 367 CURVE SMOOTH",
"140 367 LINE",
"140 678 LINE"
);
},
{
closed = 1;
nodes = (
"36 52 LINE SMOOTH",
"36 23 OFFCURVE",
"59 0 OFFCURVE",
"88 0 CURVE SMOOTH",
"117 0 OFFCURVE",
"140 23 OFFCURVE",
"140 52 CURVE SMOOTH",
"140 264 LINE",
"238 264 LINE SMOOTH",
"382 264 OFFCURVE",
"498 384 OFFCURVE",
"498 522 CURVE SMOOTH",
"498 664 OFFCURVE",
"379 781 OFFCURVE",
"238 781 CURVE SMOOTH",
"88 781 LINE SMOOTH",
"59 781 OFFCURVE",
"36 759 OFFCURVE",
"36 729 CURVE SMOOTH"
);
}
);
width = 527;
}
);
unicode = 0050;
},
{
glyphname = Q;
lastChange = "2016-10-19 22:32:10 +0000";
layers = (
{
layerId = UUID0;
paths = (
{
closed = 1;
nodes = (
"731 15 LINE SMOOTH",
"742 5 OFFCURVE",
"753 0 OFFCURVE",
"769 0 CURVE SMOOTH",
"798 0 OFFCURVE",
"820 22 OFFCURVE",
"820 52 CURVE SMOOTH",
"820 65 OFFCURVE",
"815 77 OFFCURVE",
"806 88 CURVE",
"740 153 LINE",
"795 222 OFFCURVE",
"820 299 OFFCURVE",
"820 391 CURVE SMOOTH",
"820 500 OFFCURVE",
"782 590 OFFCURVE",
"706 667 CURVE SMOOTH",
"629 743 OFFCURVE",
"537 781 OFFCURVE",
"430 781 CURVE SMOOTH",
"322 781 OFFCURVE",
"230 743 OFFCURVE",
"153 667 CURVE SMOOTH",
"77 590 OFFCURVE",
"39 499 OFFCURVE",
"39 391 CURVE SMOOTH",
"39 283 OFFCURVE",
"77 190 OFFCURVE",
"153 114 CURVE SMOOTH",
"229 38 OFFCURVE",
"322 0 OFFCURVE",
"430 0 CURVE SMOOTH",
"521 0 OFFCURVE",
"598 25 OFFCURVE",
"667 80 CURVE"
);
},
{
closed = 1;
nodes = (
"593 154 LINE",
"546 120 OFFCURVE",
"491 104 OFFCURVE",
"430 104 CURVE SMOOTH",
"272 104 OFFCURVE",
"143 233 OFFCURVE",
"143 391 CURVE SMOOTH",
"143 548 OFFCURVE",
"272 678 OFFCURVE",
"430 678 CURVE SMOOTH",
"587 678 OFFCURVE",
"717 547 OFFCURVE",
"717 391 CURVE SMOOTH",
"717 329 OFFCURVE",
"700 275 OFFCURVE",
"667 228 CURVE",
"598 295 LINE SMOOTH",
"588 306 OFFCURVE",
"576 311 OFFCURVE",
"562 311 CURVE SMOOTH",
"532 311 OFFCURVE",
"510 288 OFFCURVE",
"510 259 CURVE SMOOTH",
"510 246 OFFCURVE",
"515 233 OFFCURVE",
"524 222 CURVE"
);
}
);
width = 859;
}
);
unicode = 0051;
},
{
glyphname = R;
lastChange = "2016-10-19 22:32:10 +0000";
layers = (
{
layerId = UUID0;
paths = (
{
closed = 1;
nodes = (
"277 678 LINE SMOOTH",
"352 678 OFFCURVE",
"413 617 OFFCURVE",
"413 541 CURVE SMOOTH",
"413 467 OFFCURVE",
"353 405 OFFCURVE",
"277 405 CURVE SMOOTH",
"140 405 LINE",
"140 678 LINE"
);
},
{
closed = 1;
nodes = (
"37 52 LINE SMOOTH",
"37 23 OFFCURVE",
"60 0 OFFCURVE",
"88 0 CURVE SMOOTH",
"117 0 OFFCURVE",
"140 23 OFFCURVE",
"140 52 CURVE SMOOTH",
"140 301 LINE",
"286 301 LINE",
"458 25 LINE SMOOTH",
"469 8 OFFCURVE",
"485 0 OFFCURVE",
"502 0 CURVE SMOOTH",
"532 0 OFFCURVE",
"554 22 OFFCURVE",
"554 52 CURVE SMOOTH",
"554 62 OFFCURVE",
"551 71 OFFCURVE",
"546 80 CURVE",
"390 330 LINE",
"474 376 OFFCURVE",
"517 455 OFFCURVE",
"517 541 CURVE SMOOTH",
"517 672 OFFCURVE",
"408 781 OFFCURVE",
"277 781 CURVE SMOOTH",
"88 781 LINE SMOOTH",
"59 781 OFFCURVE",
"37 759 OFFCURVE",
"37 729 CURVE SMOOTH"
);
}
);
width = 586;
}
);
unicode = 0052;
},
{
glyphname = S;
lastChange = "2016-10-19 22:32:10 +0000";
layers = (
{
layerId = UUID0;
paths = (
{
closed = 1;
nodes = (
"73 503 OFFCURVE",
"109 421 OFFCURVE",
"245 380 CURVE SMOOTH",
"372 343 OFFCURVE",
"384 286 OFFCURVE",
"384 241 CURVE SMOOTH",
"384 166 OFFCURVE",
"323 104 OFFCURVE",
"249 104 CURVE SMOOTH",
"202 104 OFFCURVE",
"158 125 OFFCURVE",
"131 167 CURVE SMOOTH",
"121 184 OFFCURVE",
"107 191 OFFCURVE",
"88 191 CURVE SMOOTH",
"59 191 OFFCURVE",
"36 169 OFFCURVE",
"36 140 CURVE SMOOTH",
"36 127 OFFCURVE",
"40 117 OFFCURVE",
"46 108 CURVE",
"93 39 OFFCURVE",
"173 0 OFFCURVE",
"250 0 CURVE SMOOTH",
"307 0 OFFCURVE",
"358 19 OFFCURVE",
"404 58 CURVE",
"403 58 LINE",
"459 105 OFFCURVE",
"488 167 OFFCURVE",
"488 243 CURVE SMOOTH",
"488 325 OFFCURVE",
"443 433 OFFCURVE",
"269 482 CURVE SMOOTH",
"201 501 OFFCURVE",
"177 528 OFFCURVE",
"177 578 CURVE SMOOTH",
"177 634 OFFCURVE",
"226 677 OFFCURVE",
"275 677 CURVE SMOOTH",
"306 677 OFFCURVE",
"335 666 OFFCURVE",
"351 643 CURVE SMOOTH",
"367 619 OFFCURVE",
"379 603 OFFCURVE",
"405 603 CURVE SMOOTH",
"435 603 OFFCURVE",
"457 625 OFFCURVE",
"457 654 CURVE SMOOTH",
"457 665 OFFCURVE",
"455 674 OFFCURVE",
"450 682 CURVE SMOOTH",
"408 749 OFFCURVE",
"341 781 OFFCURVE",
"276 781 CURVE SMOOTH",
"226 781 OFFCURVE",
"182 765 OFFCURVE",
"144 732 CURVE",
"145 732 LINE",
"98 692 OFFCURVE",
"73 641 OFFCURVE",
"73 577 CURVE SMOOTH"
);
}
);
width = 518;
}
);
unicode = 0053;
},
{
glyphname = T;
lastChange = "2016-10-19 22:32:10 +0000";
layers = (
{
layerId = UUID0;
paths = (
{
closed = 1;
nodes = (
"579 678 LINE SMOOTH",
"607 678 OFFCURVE",
"630 701 OFFCURVE",
"630 729 CURVE SMOOTH",
"630 758 OFFCURVE",
"607 781 OFFCURVE",
"579 781 CURVE SMOOTH",
"89 781 LINE SMOOTH",
"61 781 OFFCURVE",
"38 758 OFFCURVE",
"38 729 CURVE SMOOTH",
"38 701 OFFCURVE",
"61 678 OFFCURVE",
"89 678 CURVE SMOOTH",
"282 678 LINE",
"282 52 LINE SMOOTH",
"282 23 OFFCURVE",
"305 0 OFFCURVE",
"334 0 CURVE SMOOTH",
"363 0 OFFCURVE",
"386 23 OFFCURVE",
"386 52 CURVE SMOOTH",
"386 678 LINE"
);
}
);
width = 664;
}
);
unicode = 0054;
},
{
glyphname = U;
lastChange = "2016-10-19 22:32:10 +0000";
layers = (
{
layerId = UUID0;
paths = (
{
closed = 1;
nodes = (
"141 729 LINE SMOOTH",
"141 758 OFFCURVE",
"118 781 OFFCURVE",
"89 781 CURVE SMOOTH",
"60 781 OFFCURVE",
"37 758 OFFCURVE",
"37 729 CURVE SMOOTH",
"37 278 LINE SMOOTH",
"37 126 OFFCURVE",
"162 0 OFFCURVE",
"314 0 CURVE SMOOTH",
"467 0 OFFCURVE",
"592 126 OFFCURVE",
"592 278 CURVE SMOOTH",
"592 729 LINE SMOOTH",
"592 758 OFFCURVE",
"569 781 OFFCURVE",
"541 781 CURVE SMOOTH",
"512 781 OFFCURVE",
"489 758 OFFCURVE",
"489 729 CURVE SMOOTH",
"489 278 LINE SMOOTH",
"489 182 OFFCURVE",
"411 104 OFFCURVE",
"314 104 CURVE SMOOTH",
"218 104 OFFCURVE",
"141 183 OFFCURVE",
"141 278 CURVE SMOOTH"
);
}
);
width = 625;
}
);
unicode = 0055;
},
{
glyphname = V;
lastChange = "2016-10-19 22:32:10 +0000";
layers = (
{
layerId = UUID0;
paths = (
{
closed = 1;
nodes = (
"376 0 OFFCURVE",
"392 11 OFFCURVE",
"400 33 CURVE SMOOTH",
"663 703 LINE SMOOTH",
"666 712 OFFCURVE",
"668 721 OFFCURVE",
"668 729 CURVE SMOOTH",
"668 759 OFFCURVE",
"646 781 OFFCURVE",
"617 781 CURVE SMOOTH",
"593 781 OFFCURVE",
"577 771 OFFCURVE",
"569 750 CURVE SMOOTH",
"353 195 LINE",
"137 750 LINE",
"128 771 OFFCURVE",
"112 781 OFFCURVE",
"89 781 CURVE SMOOTH",
"60 781 OFFCURVE",
"38 759 OFFCURVE",
"38 729 CURVE SMOOTH",
"38 722 OFFCURVE",
"40 713 OFFCURVE",
"43 703 CURVE SMOOTH",
"306 33 LINE SMOOTH",
"314 11 OFFCURVE",
"330 0 OFFCURVE",
"353 0 CURVE SMOOTH"
);
}
);
width = 703;
}
);
unicode = 0056;
},
{
glyphname = W;
lastChange = "2016-10-19 22:32:10 +0000";
layers = (
{
layerId = UUID0;
paths = (
{
closed = 1;
nodes = (
"141 747 LINE",
"133 768 OFFCURVE",
"113 781 OFFCURVE",
"92 781 CURVE SMOOTH",
"63 781 OFFCURVE",
"40 758 OFFCURVE",
"40 729 CURVE SMOOTH",
"40 724 OFFCURVE",
"41 717 OFFCURVE",
"43 709 CURVE SMOOTH",
"228 41 LINE",
"236 15 OFFCURVE",
"256 0 OFFCURVE",
"280 0 CURVE SMOOTH",
"304 0 OFFCURVE",
"323 17 OFFCURVE",
"332 42 CURVE",
"468 535 LINE",
"604 41 LINE",
"612 18 OFFCURVE",
"631 0 OFFCURVE",
"656 0 CURVE SMOOTH",
"680 0 OFFCURVE",
"699 17 OFFCURVE",
"708 42 CURVE",
"893 709 LINE SMOOTH",
"895 716 OFFCURVE",
"896 723 OFFCURVE",
"896 729 CURVE SMOOTH",
"896 758 OFFCURVE",
"874 781 OFFCURVE",
"845 781 CURVE SMOOTH",
"824 781 OFFCURVE",
"803 768 OFFCURVE",
"796 747 CURVE",
"656 245 LINE",
"517 747 LINE",
"510 769 OFFCURVE",
"489 781 OFFCURVE",
"468 781 CURVE SMOOTH",
"444 781 OFFCURVE",
"424 766 OFFCURVE",
"418 746 CURVE SMOOTH",
"280 245 LINE"
);
}
);
width = 938;
}
);
unicode = 0057;
},
{
glyphname = X;
lastChange = "2016-10-19 22:32:10 +0000";
layers = (
{
layerId = UUID0;
paths = (
{
closed = 1;
nodes = (
"353 306 LINE",
"577 19 LINE SMOOTH",
"586 6 OFFCURVE",
"600 0 OFFCURVE",
"617 0 CURVE SMOOTH",
"646 0 OFFCURVE",
"668 22 OFFCURVE",
"668 51 CURVE SMOOTH",
"668 63 OFFCURVE",
"665 75 OFFCURVE",
"658 84 CURVE SMOOTH",
"419 391 LINE",
"659 699 LINE SMOOTH",
"665 708 OFFCURVE",
"668 719 OFFCURVE",
"668 729 CURVE SMOOTH",
"668 758 OFFCURVE",
"646 781 OFFCURVE",
"617 781 CURVE SMOOTH",
"602 781 OFFCURVE",
"589 776 OFFCURVE",
"580 766 CURVE",
"353 475 LINE",
"126 766 LINE",
"117 776 OFFCURVE",
"105 781 OFFCURVE",
"89 781 CURVE SMOOTH",
"59 781 OFFCURVE",
"38 757 OFFCURVE",
"38 727 CURVE SMOOTH",
"38 716 OFFCURVE",
"41 707 OFFCURVE",
"47 699 CURVE SMOOTH",
"287 391 LINE",
"48 84 LINE SMOOTH",
"41 75 OFFCURVE",
"37 63 OFFCURVE",
"37 51 CURVE SMOOTH",
"37 22 OFFCURVE",
"60 0 OFFCURVE",
"89 0 CURVE SMOOTH",
"103 0 OFFCURVE",
"115 5 OFFCURVE",
"125 15 CURVE"
);
}
);
width = 703;
}
);
unicode = 0058;
},
{
glyphname = Y;
lastChange = "2016-10-19 22:32:10 +0000";
layers = (
{
layerId = UUID0;
paths = (
{
closed = 1;
nodes = (
"131 760 LINE SMOOTH",
"121 774 OFFCURVE",
"107 781 OFFCURVE",
"89 781 CURVE SMOOTH",
"60 781 OFFCURVE",
"37 758 OFFCURVE",
"37 729 CURVE SMOOTH",
"37 718 OFFCURVE",
"40 708 OFFCURVE",
"45 700 CURVE SMOOTH",
"263 375 LINE",
"263 52 LINE SMOOTH",
"263 23 OFFCURVE",
"286 0 OFFCURVE",
"314 0 CURVE SMOOTH",
"343 0 OFFCURVE",
"366 23 OFFCURVE",
"366 52 CURVE SMOOTH",
"366 375 LINE",
"584 700 LINE SMOOTH",
"589 708 OFFCURVE",
"592 718 OFFCURVE",
"592 729 CURVE SMOOTH",
"592 758 OFFCURVE",
"569 781 OFFCURVE",
"541 781 CURVE SMOOTH",
"522 781 OFFCURVE",
"508 774 OFFCURVE",
"498 760 CURVE",
"314 485 LINE"
);
}
);
width = 625;
}
);
unicode = 0059;
},
{
glyphname = Z;
lastChange = "2016-10-19 22:32:10 +0000";
layers = (
{
layerId = UUID0;
paths = (
{
closed = 1;
nodes = (
"89 781 LINE SMOOTH",
"61 781 OFFCURVE",
"38 758 OFFCURVE",
"38 729 CURVE SMOOTH",
"38 701 OFFCURVE",
"61 678 OFFCURVE",
"89 678 CURVE SMOOTH",
"511 678 LINE",
"48 84 LINE SMOOTH",
"41 75 OFFCURVE",
"38 64 OFFCURVE",
"38 52 CURVE SMOOTH",
"38 22 OFFCURVE",
"60 0 OFFCURVE",
"89 0 CURVE SMOOTH",
"617 0 LINE SMOOTH",
"646 0 OFFCURVE",
"668 22 OFFCURVE",
"668 51 CURVE SMOOTH",
"668 80 OFFCURVE",
"646 103 OFFCURVE",
"617 104 CURVE",
"195 104 LINE",
"659 699 LINE",
"665 708 OFFCURVE",
"668 719 OFFCURVE",
"668 729 CURVE SMOOTH",
"668 759 OFFCURVE",
"646 781 OFFCURVE",
"617 781 CURVE SMOOTH"
);
}
);
width = 703;
}
);
unicode = 005A;
},
{
glyphname = bracketleft;
lastChange = "2016-10-19 22:32:10 +0000";
layers = (
{
layerId = UUID0;
paths = (
{
closed = 1;
nodes = (
"89 782 LINE SMOOTH",
"59 782 OFFCURVE",
"37 759 OFFCURVE",
"37 729 CURVE SMOOTH",
"37 -182 LINE SMOOTH",
"37 -212 OFFCURVE",
"59 -234 OFFCURVE",
"89 -234 CURVE SMOOTH",
"241 -234 LINE SMOOTH",
"271 -234 OFFCURVE",
"293 -212 OFFCURVE",
"293 -182 CURVE SMOOTH",
"293 -152 OFFCURVE",
"271 -130 OFFCURVE",
"241 -130 CURVE SMOOTH",
"141 -130 LINE",
"141 678 LINE",
"241 678 LINE SMOOTH",
"271 678 OFFCURVE",
"293 700 OFFCURVE",
"293 729 CURVE SMOOTH",
"293 759 OFFCURVE",
"271 782 OFFCURVE",
"241 782 CURVE SMOOTH"
);
}
);
width = 313;
}
);
unicode = 005B;
},
{
glyphname = backslash;
lastChange = "2016-10-19 22:32:10 +0000";
layers = (
{
layerId = UUID0;
paths = (
{
closed = 1;
nodes = (
"129 751 LINE SMOOTH",
"121 771 OFFCURVE",
"104 782 OFFCURVE",
"81 782 CURVE SMOOTH",
"51 782 OFFCURVE",
"29 759 OFFCURVE",
"29 729 CURVE SMOOTH",
"29 722 OFFCURVE",
"30 715 OFFCURVE",
"33 708 CURVE SMOOTH",
"336 -48 LINE SMOOTH",
"344 -68 OFFCURVE",
"366 -79 OFFCURVE",
"384 -79 CURVE SMOOTH",
"413 -79 OFFCURVE",
"436 -56 OFFCURVE",
"436 -27 CURVE SMOOTH",
"436 -19 OFFCURVE",
"434 -12 OFFCURVE",
"431 -6 CURVE SMOOTH"
);
}
);
width = 469;
}
);
unicode = 005C;
},
{
glyphname = bracketright;
lastChange = "2016-10-19 22:32:10 +0000";
layers = (
{
layerId = UUID0;
paths = (
{
closed = 1;
nodes = (
"89 782 LINE SMOOTH",
"59 782 OFFCURVE",
"37 759 OFFCURVE",
"37 729 CURVE SMOOTH",
"37 700 OFFCURVE",
"59 678 OFFCURVE",
"89 678 CURVE SMOOTH",
"189 678 LINE",
"189 -130 LINE",
"89 -130 LINE SMOOTH",
"59 -130 OFFCURVE",
"37 -152 OFFCURVE",
"37 -182 CURVE SMOOTH",
"37 -212 OFFCURVE",
"59 -234 OFFCURVE",
"89 -234 CURVE SMOOTH",
"241 -234 LINE SMOOTH",
"271 -234 OFFCURVE",
"293 -212 OFFCURVE",
"293 -182 CURVE SMOOTH",
"293 729 LINE SMOOTH",
"293 759 OFFCURVE",
"271 782 OFFCURVE",
"241 782 CURVE SMOOTH"
);
}
);
width = 313;
}
);
unicode = 005D;
},
{
glyphname = asciicircum;
lastChange = "2016-10-19 22:32:10 +0000";
layers = (
{
layerId = UUID0;
paths = (
{
closed = 1;
nodes = (
"343 476 LINE",
"354 463 OFFCURVE",
"368 456 OFFCURVE",
"385 456 CURVE SMOOTH",
"413 456 OFFCURVE",
"436 479 OFFCURVE",
"436 507 CURVE SMOOTH",
"436 518 OFFCURVE",
"433 526 OFFCURVE",
"428 534 CURVE SMOOTH",
"278 759 LINE",
"268 773 OFFCURVE",
"253 781 OFFCURVE",
"236 781 CURVE SMOOTH",
"218 781 OFFCURVE",
"204 773 OFFCURVE",
"194 759 CURVE SMOOTH",
"44 534 LINE SMOOTH",
"40 527 OFFCURVE",
"37 518 OFFCURVE",
"37 507 CURVE SMOOTH",
"37 478 OFFCURVE",
"59 456 OFFCURVE",
"88 456 CURVE SMOOTH",
"105 456 OFFCURVE",
"119 463 OFFCURVE",
"129 476 CURVE",
"236 637 LINE"
);
}
);
width = 469;
}
);
unicode = 005E;
},
{
glyphname = underscore;
lastChange = "2016-10-19 22:32:10 +0000";
layers = (
{
layerId = UUID0;
paths = (
{
closed = 1;
nodes = (
"477 -102 LINE SMOOTH",
"504 -102 OFFCURVE",
"527 -79 OFFCURVE",
"527 -51 CURVE SMOOTH",
"527 -22 OFFCURVE",
"504 0 OFFCURVE",
"477 0 CURVE SMOOTH",
"8 0 LINE SMOOTH",
"-21 0 OFFCURVE",
"-43 -22 OFFCURVE",
"-43 -51 CURVE SMOOTH",
"-43 -79 OFFCURVE",
"-21 -102 OFFCURVE",
"8 -102 CURVE SMOOTH"
);
}
);
width = 469;
}
);
unicode = 005F;
},
{
glyphname = grave;
lastChange = "2016-10-19 22:32:10 +0000";
layers = (
{
layerId = UUID0;
paths = (
{
closed = 1;
nodes = (
"35 715 OFFCURVE",
"39 703 OFFCURVE",
"48 694 CURVE SMOOTH",
"146 597 LINE SMOOTH",
"155 587 OFFCURVE",
"167 583 OFFCURVE",
"181 583 CURVE SMOOTH",
"210 583 OFFCURVE",
"232 604 OFFCURVE",
"232 634 CURVE SMOOTH",
"232 648 OFFCURVE",
"228 659 OFFCURVE",
"219 668 CURVE",
"122 766 LINE SMOOTH",
"111 776 OFFCURVE",
"99 781 OFFCURVE",
"85 781 CURVE SMOOTH",
"56 781 OFFCURVE",
"35 758 OFFCURVE",
"35 729 CURVE SMOOTH"
);
}
);
width = 273;
}
);
unicode = 0060;
},
{
glyphname = a;
lastChange = "2016-10-19 22:32:10 +0000";
layers = (
{
layerId = UUID0;
paths = (
{
closed = 1;
nodes = (
"408 445 OFFCURVE",
"484 367 OFFCURVE",
"484 273 CURVE SMOOTH",
"484 180 OFFCURVE",
"408 102 OFFCURVE",
"313 102 CURVE SMOOTH",
"217 102 OFFCURVE",
"141 180 OFFCURVE",
"141 273 CURVE SMOOTH",
"141 367 OFFCURVE",
"217 445 OFFCURVE",
"313 445 CURVE SMOOTH"
);
},
{
closed = 1;
nodes = (
"484 51 LINE SMOOTH",
"484 23 OFFCURVE",
"506 0 OFFCURVE",
"535 0 CURVE SMOOTH",
"563 0 OFFCURVE",
"586 23 OFFCURVE",
"586 51 CURVE SMOOTH",
"586 273 LINE SMOOTH",
"586 425 OFFCURVE",
"460 547 OFFCURVE",
"313 547 CURVE SMOOTH",
"163 547 OFFCURVE",
"39 423 OFFCURVE",
"39 273 CURVE SMOOTH",
"39 124 OFFCURVE",
"163 0 OFFCURVE",
"313 0 CURVE SMOOTH",
"377 0 OFFCURVE",
"435 21 OFFCURVE",
"484 61 CURVE"
);
}
);
width = 625;
}
);
unicode = 0061;
},
{
glyphname = b;
lastChange = "2016-10-19 22:32:10 +0000";
layers = (
{
layerId = UUID0;
paths = (
{
closed = 1;
nodes = (
"217 102 OFFCURVE",
"141 180 OFFCURVE",
"141 273 CURVE SMOOTH",
"141 367 OFFCURVE",
"217 445 OFFCURVE",
"313 445 CURVE SMOOTH",
"408 445 OFFCURVE",
"484 367 OFFCURVE",
"484 273 CURVE SMOOTH",
"484 180 OFFCURVE",
"408 102 OFFCURVE",
"313 102 CURVE SMOOTH"
);
},
{
closed = 1;
nodes = (
"141 730 LINE SMOOTH",
"141 760 OFFCURVE",
"119 781 OFFCURVE",
"90 781 CURVE SMOOTH",
"61 781 OFFCURVE",
"39 760 OFFCURVE",
"39 730 CURVE SMOOTH",
"39 273 LINE SMOOTH",
"39 124 OFFCURVE",
"163 0 OFFCURVE",
"313 0 CURVE SMOOTH",
"459 0 OFFCURVE",
"586 121 OFFCURVE",
"586 273 CURVE SMOOTH",
"586 426 OFFCURVE",
"459 547 OFFCURVE",
"313 547 CURVE SMOOTH",
"247 547 OFFCURVE",
"189 527 OFFCURVE",
"141 486 CURVE"
);
}
);
width = 625;
}
);
unicode = 0062;
},
{
glyphname = c;
lastChange = "2016-10-19 22:32:10 +0000";
layers = (
{
layerId = UUID0;
paths = (
{
closed = 1;
nodes = (
"443 154 OFFCURVE",
"431 151 OFFCURVE",
"423 144 CURVE SMOOTH",
"389 116 OFFCURVE",
"355 102 OFFCURVE",
"312 102 CURVE SMOOTH",
"216 102 OFFCURVE",
"140 178 OFFCURVE",
"140 273 CURVE SMOOTH",
"140 369 OFFCURVE",
"216 445 OFFCURVE",
"312 445 CURVE SMOOTH",
"354 445 OFFCURVE",
"390 430 OFFCURVE",
"423 402 CURVE SMOOTH",
"433 395 OFFCURVE",
"444 391 OFFCURVE",
"457 391 CURVE SMOOTH",
"486 391 OFFCURVE",
"507 413 OFFCURVE",
"507 442 CURVE SMOOTH",
"507 457 OFFCURVE",
"501 470 OFFCURVE",
"490 480 CURVE SMOOTH",
"439 525 OFFCURVE",
"380 547 OFFCURVE",
"312 547 CURVE SMOOTH",
"162 547 OFFCURVE",
"38 423 OFFCURVE",
"38 273 CURVE SMOOTH",
"38 124 OFFCURVE",
"162 0 OFFCURVE",
"312 0 CURVE SMOOTH",
"380 0 OFFCURVE",
"439 22 OFFCURVE",
"490 66 CURVE",
"500 77 OFFCURVE",
"506 90 OFFCURVE",
"506 104 CURVE SMOOTH",
"506 133 OFFCURVE",
"484 155 OFFCURVE",
"455 155 CURVE"
);
}
);
width = 547;
}
);
unicode = 0063;
},
{
glyphname = d;
lastChange = "2016-10-19 22:32:10 +0000";
layers = (
{
layerId = UUID0;
paths = (
{
closed = 1;
nodes = (
"484 180 OFFCURVE",
"408 102 OFFCURVE",
"313 102 CURVE SMOOTH",
"217 102 OFFCURVE",
"141 180 OFFCURVE",
"141 273 CURVE SMOOTH",
"141 367 OFFCURVE",
"217 445 OFFCURVE",
"313 445 CURVE SMOOTH",
"408 445 OFFCURVE",
"484 367 OFFCURVE",
"484 273 CURVE SMOOTH"
);
},
{
closed = 1;
nodes = (
"163 547 OFFCURVE",
"39 423 OFFCURVE",
"39 273 CURVE SMOOTH",
"39 124 OFFCURVE",
"163 0 OFFCURVE",
"313 0 CURVE SMOOTH",
"459 0 OFFCURVE",
"586 121 OFFCURVE",
"586 273 CURVE SMOOTH",
"586 730 LINE SMOOTH",
"586 760 OFFCURVE",
"563 781 OFFCURVE",
"535 781 CURVE SMOOTH",
"505 781 OFFCURVE",
"484 760 OFFCURVE",
"484 730 CURVE SMOOTH",
"484 487 LINE",
"435 527 OFFCURVE",
"377 547 OFFCURVE",
"313 547 CURVE SMOOTH"
);
}
);
width = 625;
}
);
unicode = 0064;
},
{
glyphname = e;
lastChange = "2016-10-19 22:32:10 +0000";
layers = (
{
layerId = UUID0;
paths = (
{
closed = 1;
nodes = (
"148 324 LINE",
"169 396 OFFCURVE",
"238 445 OFFCURVE",
"313 445 CURVE SMOOTH",
"387 445 OFFCURVE",
"455 396 OFFCURVE",
"477 324 CURVE"
);
},
{
closed = 1;
nodes = (
"442 153 OFFCURVE",
"431 149 OFFCURVE",
"421 141 CURVE SMOOTH",
"391 115 OFFCURVE",
"355 102 OFFCURVE",
"313 102 CURVE SMOOTH",
"237 102 OFFCURVE",
"170 151 OFFCURVE",
"148 223 CURVE",
"535 223 LINE SMOOTH",
"563 223 OFFCURVE",
"586 244 OFFCURVE",
"586 273 CURVE SMOOTH",
"586 426 OFFCURVE",
"459 547 OFFCURVE",
"313 547 CURVE SMOOTH",
"163 547 OFFCURVE",
"39 423 OFFCURVE",
"39 273 CURVE SMOOTH",
"39 124 OFFCURVE",
"163 0 OFFCURVE",
"313 0 CURVE SMOOTH",
"381 0 OFFCURVE",
"441 22 OFFCURVE",
"491 66 CURVE",
"501 77 OFFCURVE",
"506 89 OFFCURVE",
"506 103 CURVE SMOOTH",
"506 132 OFFCURVE",
"484 154 OFFCURVE",
"455 154 CURVE"
);
}
);
width = 625;
}
);
unicode = 0065;
},
{
glyphname = f;
lastChange = "2016-10-19 22:32:10 +0000";
layers = (
{
layerId = UUID0;
paths = (
{
closed = 1;
nodes = (
"370 679 OFFCURVE",
"393 701 OFFCURVE",
"393 730 CURVE SMOOTH",
"393 758 OFFCURVE",
"370 781 OFFCURVE",
"342 781 CURVE SMOOTH",
"185 781 OFFCURVE",
"106 702 OFFCURVE",
"106 544 CURVE SMOOTH",
"106 519 LINE",
"83 519 LINE SMOOTH",
"53 519 OFFCURVE",
"32 498 OFFCURVE",
"32 468 CURVE SMOOTH",
"32 439 OFFCURVE",
"53 417 OFFCURVE",
"83 417 CURVE SMOOTH",
"106 417 LINE",
"106 51 LINE SMOOTH",
"106 23 OFFCURVE",
"128 0 OFFCURVE",
"157 0 CURVE SMOOTH",
"186 0 OFFCURVE",
"208 23 OFFCURVE",
"208 51 CURVE SMOOTH",
"208 417 LINE",
"306 417 LINE SMOOTH",
"333 417 OFFCURVE",
"356 439 OFFCURVE",
"356 468 CURVE SMOOTH",
"356 496 OFFCURVE",
"333 519 OFFCURVE",
"306 519 CURVE SMOOTH",
"208 519 LINE",
"208 544 LINE SMOOTH",
"208 634 OFFCURVE",
"252 679 OFFCURVE",
"342 679 CURVE SMOOTH"
);
}
);
width = 391;
}
);
unicode = 0066;
},
{
glyphname = g;
lastChange = "2016-10-19 22:32:10 +0000";
layers = (
{
layerId = UUID0;
paths = (
{
closed = 1;
nodes = (
"408 445 OFFCURVE",
"484 367 OFFCURVE",
"484 273 CURVE SMOOTH",
"484 180 OFFCURVE",
"408 102 OFFCURVE",
"313 102 CURVE SMOOTH",
"217 102 OFFCURVE",
"141 180 OFFCURVE",
"141 273 CURVE SMOOTH",
"141 367 OFFCURVE",
"217 445 OFFCURVE",
"313 445 CURVE SMOOTH"
);
},
{
closed = 1;
nodes = (
"484 2 LINE SMOOTH",
"484 -73 OFFCURVE",
"399 -132 OFFCURVE",
"316 -132 CURVE SMOOTH",
"249 -132 OFFCURVE",
"198 -104 OFFCURVE",
"153 -41 CURVE SMOOTH",
"130 -9 OFFCURVE",
"122 -4 OFFCURVE",
"103 -4 CURVE SMOOTH",
"73 -4 OFFCURVE",
"51 -25 OFFCURVE",
"51 -55 CURVE SMOOTH",
"51 -65 OFFCURVE",
"54 -75 OFFCURVE",
"59 -82 CURVE",
"112 -179 OFFCURVE",
"212 -234 OFFCURVE",
"316 -234 CURVE SMOOTH",
"448 -234 OFFCURVE",
"586 -139 OFFCURVE",
"586 2 CURVE SMOOTH",
"586 273 LINE SMOOTH",
"586 425 OFFCURVE",
"460 547 OFFCURVE",
"313 547 CURVE SMOOTH",
"163 547 OFFCURVE",
"39 423 OFFCURVE",
"39 273 CURVE SMOOTH",
"39 124 OFFCURVE",
"163 0 OFFCURVE",
"313 0 CURVE SMOOTH",
"378 0 OFFCURVE",
"435 20 OFFCURVE",
"484 60 CURVE"
);
}
);
width = 625;
}
);
unicode = 0067;
},
{
glyphname = h;
lastChange = "2016-10-19 22:32:10 +0000";
layers = (
{
layerId = UUID0;
paths = (
{
closed = 1;
nodes = (
"141 291 LINE SMOOTH",
"141 375 OFFCURVE",
"209 444 OFFCURVE",
"293 444 CURVE SMOOTH",
"377 444 OFFCURVE",
"446 375 OFFCURVE",
"446 291 CURVE SMOOTH",
"446 51 LINE SMOOTH",
"446 22 OFFCURVE",
"469 0 OFFCURVE",
"497 0 CURVE SMOOTH",
"525 0 OFFCURVE",
"548 22 OFFCURVE",
"548 51 CURVE",
"548 291 LINE SMOOTH",
"548 432 OFFCURVE",
"430 546 OFFCURVE",
"293 546 CURVE SMOOTH",
"235 546 OFFCURVE",
"184 529 OFFCURVE",
"141 496 CURVE",
"141 730 LINE",
"140 759 OFFCURVE",
"117 781 OFFCURVE",
"89 781 CURVE SMOOTH",
"62 781 OFFCURVE",
"39 759 OFFCURVE",
"39 730 CURVE SMOOTH",
"39 51 LINE SMOOTH",
"39 22 OFFCURVE",
"62 0 OFFCURVE",
"89 0 CURVE SMOOTH",
"118 0 OFFCURVE",
"141 22 OFFCURVE",
"141 51 CURVE SMOOTH"
);
}
);
width = 586;
}
);
unicode = 0068;
},
{
glyphname = i;
lastChange = "2016-10-19 22:32:10 +0000";
layers = (
{
layerId = UUID0;
paths = (
{
closed = 1;
nodes = (
"177 677 OFFCURVE",
"150 704 OFFCURVE",
"117 704 CURVE SMOOTH",
"84 704 OFFCURVE",
"57 677 OFFCURVE",
"57 644 CURVE SMOOTH",
"57 611 OFFCURVE",
"84 584 OFFCURVE",
"117 584 CURVE SMOOTH",
"150 584 OFFCURVE",
"177 611 OFFCURVE",
"177 644 CURVE SMOOTH"
);
},
{
closed = 1;
nodes = (
"66 51 LINE SMOOTH",
"66 22 OFFCURVE",
"89 0 OFFCURVE",
"117 0 CURVE SMOOTH",
"145 0 OFFCURVE",
"168 22 OFFCURVE",
"168 51 CURVE",
"168 496 LINE",
"168 524 OFFCURVE",
"145 547 OFFCURVE",
"117 547 CURVE SMOOTH",
"89 547 OFFCURVE",
"66 524 OFFCURVE",
"66 496 CURVE SMOOTH"
);
}
);
width = 234;
}
);
unicode = 0069;
},
{
glyphname = j;
lastChange = "2016-10-19 22:32:10 +0000";
layers = (
{
layerId = UUID0;
paths = (
{
closed = 1;
nodes = (
"294 677 OFFCURVE",
"267 704 OFFCURVE",
"234 704 CURVE SMOOTH",
"201 704 OFFCURVE",
"174 677 OFFCURVE",
"174 644 CURVE SMOOTH",
"174 611 OFFCURVE",
"201 584 OFFCURVE",
"234 584 CURVE SMOOTH",
"267 584 OFFCURVE",
"294 611 OFFCURVE",
"294 644 CURVE SMOOTH"
);
},
{
closed = 1;
nodes = (
"285 496 LINE SMOOTH",
"285 524 OFFCURVE",
"262 547 OFFCURVE",
"234 547 CURVE SMOOTH",
"206 547 OFFCURVE",
"183 524 OFFCURVE",
"183 496 CURVE SMOOTH",
"183 2 LINE SMOOTH",
"183 -72 OFFCURVE",
"122 -132 OFFCURVE",
"48 -132 CURVE SMOOTH",
"19 -132 OFFCURVE",
"-2 -153 OFFCURVE",
"-2 -183 CURVE SMOOTH",
"-2 -212 OFFCURVE",
"19 -234 OFFCURVE",
"48 -234 CURVE SMOOTH",
"177 -234 OFFCURVE",
"285 -126 OFFCURVE",
"285 2 CURVE SMOOTH"
);
}
);
width = 320;
}
);
unicode = 006A;
},
{
glyphname = k;
lastChange = "2016-10-19 22:32:10 +0000";
layers = (
{
layerId = UUID0;
paths = (
{
closed = 1;
nodes = (
"38 51 LINE SMOOTH",
"38 23 OFFCURVE",
"62 0 OFFCURVE",
"89 0 CURVE SMOOTH",
"117 0 OFFCURVE",
"140 23 OFFCURVE",
"140 51 CURVE SMOOTH",
"140 228 LINE",
"200 267 LINE",
"425 13 LINE",
"435 4 OFFCURVE",
"446 0 OFFCURVE",
"459 0 CURVE SMOOTH",
"488 0 OFFCURVE",
"511 23 OFFCURVE",
"511 51 CURVE SMOOTH",
"511 64 OFFCURVE",
"506 76 OFFCURVE",
"497 86 CURVE SMOOTH",
"287 323 LINE",
"491 456 LINE SMOOTH",
"504 464 OFFCURVE",
"511 478 OFFCURVE",
"511 496 CURVE SMOOTH",
"511 524 OFFCURVE",
"488 547 OFFCURVE",
"459 547 CURVE SMOOTH",
"449 547 OFFCURVE",
"440 544 OFFCURVE",
"432 539 CURVE SMOOTH",
"140 349 LINE",
"140 730 LINE SMOOTH",
"140 759 OFFCURVE",
"117 781 OFFCURVE",
"89 781 CURVE SMOOTH",
"61 781 OFFCURVE",
"38 759 OFFCURVE",
"38 730 CURVE SMOOTH"
);
}
);
width = 547;
}
);
unicode = 006B;
},
{
glyphname = l;
lastChange = "2016-10-19 22:32:10 +0000";
layers = (
{
layerId = UUID0;
paths = (
{
closed = 1;
nodes = (
"34 51 LINE SMOOTH",
"34 23 OFFCURVE",
"57 0 OFFCURVE",
"84 0 CURVE SMOOTH",
"159 0 LINE SMOOTH",
"187 0 OFFCURVE",
"210 23 OFFCURVE",
"210 51 CURVE SMOOTH",
"210 80 OFFCURVE",
"187 102 OFFCURVE",
"159 102 CURVE SMOOTH",
"136 102 LINE",
"136 730 LINE SMOOTH",
"136 759 OFFCURVE",
"114 781 OFFCURVE",
"85 781 CURVE SMOOTH",
"56 781 OFFCURVE",
"34 759 OFFCURVE",
"34 730 CURVE SMOOTH"
);
}
);
width = 234;
}
);
unicode = 006C;
},
{
glyphname = m;
lastChange = "2016-10-19 22:32:10 +0000";
layers = (
{
layerId = UUID0;
paths = (
{
closed = 1;
nodes = (
"811 329 LINE SMOOTH",
"811 448 OFFCURVE",
"712 547 OFFCURVE",
"593 547 CURVE SMOOTH",
"527 547 OFFCURVE",
"472 521 OFFCURVE",
"427 469 CURVE",
"384 521 OFFCURVE",
"325 547 OFFCURVE",
"260 547 CURVE SMOOTH",
"215 547 OFFCURVE",
"176 535 OFFCURVE",
"141 512 CURVE",
"135 533 OFFCURVE",
"116 547 OFFCURVE",
"93 547 CURVE SMOOTH",
"65 547 OFFCURVE",
"42 524 OFFCURVE",
"42 496 CURVE SMOOTH",
"42 51 LINE SMOOTH",
"42 22 OFFCURVE",
"64 0 OFFCURVE",
"93 0 CURVE SMOOTH",
"121 0 OFFCURVE",
"144 22 OFFCURVE",
"144 51 CURVE SMOOTH",
"144 329 LINE SMOOTH",
"144 393 OFFCURVE",
"196 445 OFFCURVE",
"260 445 CURVE SMOOTH",
"323 445 OFFCURVE",
"375 393 OFFCURVE",
"375 329 CURVE SMOOTH",
"375 51 LINE SMOOTH",
"375 22 OFFCURVE",
"398 0 OFFCURVE",
"427 0 CURVE SMOOTH",
"455 0 OFFCURVE",
"478 22 OFFCURVE",
"478 51 CURVE SMOOTH",
"478 329 LINE SMOOTH",
"478 393 OFFCURVE",
"529 445 OFFCURVE",
"593 445 CURVE SMOOTH",
"658 445 OFFCURVE",
"709 392 OFFCURVE",
"709 329 CURVE SMOOTH",
"709 51 LINE SMOOTH",
"709 22 OFFCURVE",
"731 0 OFFCURVE",
"760 0 CURVE SMOOTH",
"788 0 OFFCURVE",
"811 22 OFFCURVE",
"811 51 CURVE SMOOTH"
);
}
);
width = 859;
}
);
unicode = 006D;
},
{
glyphname = n;
lastChange = "2016-10-19 22:32:10 +0000";
layers = (
{
layerId = UUID0;
paths = (
{
closed = 1;
nodes = (
"141 522 OFFCURVE",
"118 547 OFFCURVE",
"90 547 CURVE SMOOTH",
"62 547 OFFCURVE",
"39 524 OFFCURVE",
"39 496 CURVE SMOOTH",
"39 51 LINE SMOOTH",
"39 22 OFFCURVE",
"61 0 OFFCURVE",
"90 0 CURVE SMOOTH",
"118 0 OFFCURVE",
"141 22 OFFCURVE",
"141 51 CURVE SMOOTH",
"141 292 LINE SMOOTH",
"141 376 OFFCURVE",
"209 445 OFFCURVE",
"293 445 CURVE SMOOTH",
"377 445 OFFCURVE",
"446 375 OFFCURVE",
"446 292 CURVE SMOOTH",
"446 51 LINE SMOOTH",
"446 22 OFFCURVE",
"469 0 OFFCURVE",
"498 0 CURVE SMOOTH",
"525 0 OFFCURVE",
"548 22 OFFCURVE",
"548 51 CURVE SMOOTH",
"548 292 LINE SMOOTH",
"548 433 OFFCURVE",
"430 547 OFFCURVE",
"293 547 CURVE SMOOTH",
"235 547 OFFCURVE",
"184 530 OFFCURVE",
"141 497 CURVE"
);
}
);
width = 586;
}
);
unicode = 006E;
},
{
glyphname = o;
lastChange = "2016-10-19 22:32:10 +0000";
layers = (
{
layerId = UUID0;
paths = (
{
closed = 1;
nodes = (
"585 425 OFFCURVE",
"460 547 OFFCURVE",
"313 547 CURVE SMOOTH",
"163 547 OFFCURVE",
"39 423 OFFCURVE",
"39 273 CURVE SMOOTH",
"39 124 OFFCURVE",
"163 0 OFFCURVE",
"313 0 CURVE SMOOTH",
"459 0 OFFCURVE",
"586 121 OFFCURVE",
"586 273 CURVE"
);
},
{
closed = 1;
nodes = (
"408 445 OFFCURVE",
"484 367 OFFCURVE",
"484 273 CURVE SMOOTH",
"484 180 OFFCURVE",
"408 102 OFFCURVE",
"313 102 CURVE SMOOTH",
"217 102 OFFCURVE",
"141 180 OFFCURVE",
"141 273 CURVE SMOOTH",
"141 367 OFFCURVE",
"217 445 OFFCURVE",
"313 445 CURVE SMOOTH"
);
}
);
width = 625;
}
);
unicode = 006F;
},
{
glyphname = p;
lastChange = "2016-10-19 22:32:10 +0000";
layers = (
{
layerId = UUID0;
paths = (
{
closed = 1;
nodes = (
"141 367 OFFCURVE",
"217 445 OFFCURVE",
"313 445 CURVE SMOOTH",
"408 445 OFFCURVE",
"484 367 OFFCURVE",
"484 273 CURVE SMOOTH",
"484 180 OFFCURVE",
"408 102 OFFCURVE",
"313 102 CURVE SMOOTH",
"217 102 OFFCURVE",
"141 180 OFFCURVE",
"141 273 CURVE SMOOTH"
);
},
{
closed = 1;
nodes = (
"458 0 OFFCURVE",
"586 119 OFFCURVE",
"586 273 CURVE SMOOTH",
"586 426 OFFCURVE",
"459 547 OFFCURVE",
"313 547 CURVE SMOOTH",
"163 547 OFFCURVE",
"39 423 OFFCURVE",
"39 273 CURVE SMOOTH",
"39 -184 LINE SMOOTH",
"39 -213 OFFCURVE",
"61 -234 OFFCURVE",
"90 -234 CURVE SMOOTH",
"119 -234 OFFCURVE",
"141 -213 OFFCURVE",
"141 -184 CURVE SMOOTH",
"141 60 LINE",
"190 20 OFFCURVE",
"247 0 OFFCURVE",
"313 0 CURVE SMOOTH"
);
}
);
width = 625;
}
);
unicode = 0070;
},
{
glyphname = q;
lastChange = "2016-10-19 22:32:10 +0000";
layers = (
{
layerId = UUID0;
paths = (
{
closed = 1;
nodes = (
"408 445 OFFCURVE",
"484 367 OFFCURVE",
"484 273 CURVE SMOOTH",
"484 180 OFFCURVE",
"408 102 OFFCURVE",
"313 102 CURVE SMOOTH",
"217 102 OFFCURVE",
"141 180 OFFCURVE",
"141 273 CURVE SMOOTH",
"141 367 OFFCURVE",
"217 445 OFFCURVE",
"313 445 CURVE SMOOTH"
);
},
{
closed = 1;
nodes = (
"484 -184 LINE SMOOTH",
"484 -213 OFFCURVE",
"505 -234 OFFCURVE",
"535 -234 CURVE SMOOTH",
"563 -234 OFFCURVE",
"586 -213 OFFCURVE",
"586 -184 CURVE SMOOTH",
"586 273 LINE SMOOTH",
"586 425 OFFCURVE",
"460 547 OFFCURVE",
"313 547 CURVE SMOOTH",
"163 547 OFFCURVE",
"39 423 OFFCURVE",
"39 273 CURVE SMOOTH",
"39 124 OFFCURVE",
"163 0 OFFCURVE",
"313 0 CURVE SMOOTH",
"378 0 OFFCURVE",
"435 20 OFFCURVE",
"484 60 CURVE"
);
}
);
width = 625;
}
);
unicode = 0071;
},
{
glyphname = r;
lastChange = "2016-10-19 22:32:10 +0000";
layers = (
{
layerId = UUID0;
paths = (
{
closed = 1;
nodes = (
"139 496 LINE SMOOTH",
"139 524 OFFCURVE",
"116 547 OFFCURVE",
"88 547 CURVE SMOOTH",
"60 547 OFFCURVE",
"37 524 OFFCURVE",
"37 496 CURVE SMOOTH",
"37 51 LINE SMOOTH",
"37 23 OFFCURVE",
"60 0 OFFCURVE",
"88 0 CURVE SMOOTH",
"116 0 OFFCURVE",
"139 23 OFFCURVE",
"139 51 CURVE SMOOTH",
"139 273 LINE SMOOTH",
"139 369 OFFCURVE",
"215 445 OFFCURVE",
"311 445 CURVE SMOOTH",
"334 445 OFFCURVE",
"357 441 OFFCURVE",
"377 433 CURVE SMOOTH",
"386 429 OFFCURVE",
"393 427 OFFCURVE",
"399 427 CURVE SMOOTH",
"427 427 OFFCURVE",
"450 450 OFFCURVE",
"450 479 CURVE SMOOTH",
"450 534 OFFCURVE",
"368 547 OFFCURVE",
"311 547 CURVE SMOOTH",
"246 547 OFFCURVE",
"188 525 OFFCURVE",
"139 486 CURVE"
);
}
);
width = 469;
}
);
unicode = 0072;
},
{
glyphname = s;
lastChange = "2016-10-19 22:32:10 +0000";
layers = (
{
layerId = UUID0;
paths = (
{
closed = 1;
nodes = (
"367 185 LINE",
"375 182 OFFCURVE",
"380 175 OFFCURVE",
"380 166 CURVE SMOOTH",
"380 125 OFFCURVE",
"304 102 OFFCURVE",
"260 102 CURVE SMOOTH",
"211 102 OFFCURVE",
"172 119 OFFCURVE",
"139 152 CURVE SMOOTH",
"126 164 OFFCURVE",
"112 180 OFFCURVE",
"91 180 CURVE SMOOTH",
"62 180 OFFCURVE",
"40 158 OFFCURVE",
"40 129 CURVE SMOOTH",
"40 118 OFFCURVE",
"43 106 OFFCURVE",
"51 97 CURVE SMOOTH",
"107 32 OFFCURVE",
"179 0 OFFCURVE",
"260 0 CURVE SMOOTH",
"367 0 OFFCURVE",
"482 63 OFFCURVE",
"482 162 CURVE SMOOTH",
"482 196 OFFCURVE",
"470 226 OFFCURVE",
"445 250 CURVE",
"446 250 LINE",
"435 262 OFFCURVE",
"413 274 OFFCURVE",
"381 287 CURVE",
"153 362 LINE",
"145 365 OFFCURVE",
"140 371 OFFCURVE",
"140 380 CURVE SMOOTH",
"140 423 OFFCURVE",
"214 445 OFFCURVE",
"260 445 CURVE SMOOTH",
"308 445 OFFCURVE",
"348 428 OFFCURVE",
"381 395 CURVE SMOOTH",
"395 381 OFFCURVE",
"408 367 OFFCURVE",
"429 367 CURVE SMOOTH",
"458 367 OFFCURVE",
"480 389 OFFCURVE",
"480 418 CURVE SMOOTH",
"480 430 OFFCURVE",
"477 441 OFFCURVE",
"470 449 CURVE SMOOTH",
"412 514 OFFCURVE",
"341 547 OFFCURVE",
"260 547 CURVE SMOOTH",
"153 547 OFFCURVE",
"38 484 OFFCURVE",
"38 385 CURVE SMOOTH",
"38 351 OFFCURVE",
"50 321 OFFCURVE",
"75 296 CURVE",
"74 296 LINE",
"86 284 OFFCURVE",
"108 272 OFFCURVE",
"139 260 CURVE"
);
}
);
width = 518;
}
);
unicode = 0073;
},
{
glyphname = t;
lastChange = "2016-10-19 22:32:10 +0000";
layers = (
{
layerId = UUID0;
paths = (
{
closed = 1;
nodes = (
"87 547 LINE SMOOTH",
"60 547 OFFCURVE",
"37 524 OFFCURVE",
"37 496 CURVE SMOOTH",
"37 467 OFFCURVE",
"60 445 OFFCURVE",
"87 445 CURVE SMOOTH",
"110 445 LINE",
"110 199 LINE SMOOTH",
"110 66 OFFCURVE",
"176 0 OFFCURVE",
"310 0 CURVE SMOOTH",
"337 0 OFFCURVE",
"360 22 OFFCURVE",
"360 51 CURVE SMOOTH",
"360 79 OFFCURVE",
"337 102 OFFCURVE",
"310 102 CURVE SMOOTH",
"245 102 OFFCURVE",
"212 134 OFFCURVE",
"212 199 CURVE SMOOTH",
"212 445 LINE",
"273 445 LINE SMOOTH",
"301 445 OFFCURVE",
"323 467 OFFCURVE",
"323 496 CURVE SMOOTH",
"323 524 OFFCURVE",
"301 547 OFFCURVE",
"273 547 CURVE SMOOTH",
"212 547 LINE",
"212 730 LINE SMOOTH",
"212 758 OFFCURVE",
"189 781 OFFCURVE",
"161 781 CURVE SMOOTH",
"132 781 OFFCURVE",
"110 758 OFFCURVE",
"110 730 CURVE SMOOTH",
"110 547 LINE"
);
}
);
width = 391;
}
);
unicode = 0074;
},
{
glyphname = u;
lastChange = "2016-10-19 22:32:10 +0000";
layers = (
{
layerId = UUID0;
paths = (
{
closed = 1;
nodes = (
"526 0 OFFCURVE",
"548 23 OFFCURVE",
"548 51 CURVE SMOOTH",
"548 496 LINE SMOOTH",
"548 524 OFFCURVE",
"525 547 OFFCURVE",
"498 547 CURVE SMOOTH",
"469 547 OFFCURVE",
"446 524 OFFCURVE",
"446 496 CURVE SMOOTH",
"446 255 LINE SMOOTH",
"446 171 OFFCURVE",
"377 102 OFFCURVE",
"293 102 CURVE SMOOTH",
"209 102 OFFCURVE",
"141 170 OFFCURVE",
"141 255 CURVE SMOOTH",
"141 496 LINE SMOOTH",
"141 524 OFFCURVE",
"118 547 OFFCURVE",
"90 547 CURVE SMOOTH",
"61 547 OFFCURVE",
"39 524 OFFCURVE",
"39 496 CURVE SMOOTH",
"39 255 LINE SMOOTH",
"39 116 OFFCURVE",
"154 0 OFFCURVE",
"293 0 CURVE SMOOTH",
"352 0 OFFCURVE",
"401 15 OFFCURVE",
"446 50 CURVE",
"447 22 OFFCURVE",
"468 0 OFFCURVE",
"497 0 CURVE SMOOTH"
);
}
);
width = 586;
}
);
unicode = 0075;
},
{
glyphname = v;
lastChange = "2016-10-19 22:32:10 +0000";
layers = (
{
layerId = UUID0;
paths = (
{
closed = 1;
nodes = (
"314 0 OFFCURVE",
"329 9 OFFCURVE",
"338 27 CURVE",
"544 476 LINE SMOOTH",
"547 482 OFFCURVE",
"548 489 OFFCURVE",
"548 496 CURVE SMOOTH",
"548 524 OFFCURVE",
"525 547 OFFCURVE",
"497 547 CURVE SMOOTH",
"477 547 OFFCURVE",
"462 538 OFFCURVE",
"453 521 CURVE",
"293 173 LINE",
"134 521 LINE",
"125 538 OFFCURVE",
"107 547 OFFCURVE",
"89 547 CURVE SMOOTH",
"61 547 OFFCURVE",
"39 524 OFFCURVE",
"39 496 CURVE SMOOTH",
"39 489 OFFCURVE",
"40 482 OFFCURVE",
"42 476 CURVE",
"249 27 LINE SMOOTH",
"257 9 OFFCURVE",
"272 0 OFFCURVE",
"293 0 CURVE SMOOTH"
);
}
);
width = 586;
}
);
unicode = 0076;
},
{
glyphname = w;
lastChange = "2016-10-19 22:32:10 +0000";
layers = (
{
layerId = UUID0;
paths = (
{
closed = 1;
nodes = (
"364 547 OFFCURVE",
"348 534 OFFCURVE",
"339 509 CURVE SMOOTH",
"240 212 LINE",
"138 519 LINE",
"132 534 OFFCURVE",
"115 547 OFFCURVE",
"92 547 CURVE SMOOTH",
"63 547 OFFCURVE",
"41 524 OFFCURVE",
"41 496 CURVE SMOOTH",
"41 490 OFFCURVE",
"42 484 OFFCURVE",
"44 477 CURVE SMOOTH",
"192 33 LINE SMOOTH",
"199 14 OFFCURVE",
"217 0 OFFCURVE",
"240 0 CURVE SMOOTH",
"264 0 OFFCURVE",
"282 14 OFFCURVE",
"288 33 CURVE SMOOTH",
"389 334 LINE",
"489 33 LINE SMOOTH",
"495 15 OFFCURVE",
"513 0 OFFCURVE",
"537 0 CURVE SMOOTH",
"564 0 OFFCURVE",
"578 14 OFFCURVE",
"584 33 CURVE SMOOTH",
"732 477 LINE SMOOTH",
"735 483 OFFCURVE",
"736 490 OFFCURVE",
"736 496 CURVE SMOOTH",
"736 524 OFFCURVE",
"713 547 OFFCURVE",
"685 547 CURVE SMOOTH",
"660 547 OFFCURVE",
"645 536 OFFCURVE",
"639 519 CURVE SMOOTH",
"537 212 LINE",
"438 509 LINE SMOOTH",
"429 534 OFFCURVE",
"413 547 OFFCURVE",
"389 547 CURVE SMOOTH"
);
}
);
width = 781;
}
);
unicode = 0077;
},
{
glyphname = x;
lastChange = "2016-10-19 22:32:10 +0000";
layers = (
{
layerId = UUID0;
paths = (
{
closed = 1;
nodes = (
"48 83 LINE SMOOTH",
"42 74 OFFCURVE",
"38 63 OFFCURVE",
"38 51 CURVE SMOOTH",
"38 23 OFFCURVE",
"60 0 OFFCURVE",
"89 0 CURVE SMOOTH",
"103 0 OFFCURVE",
"115 5 OFFCURVE",
"125 16 CURVE",
"274 194 LINE",
"423 16 LINE",
"433 5 OFFCURVE",
"445 0 OFFCURVE",
"459 0 CURVE SMOOTH",
"488 0 OFFCURVE",
"511 23 OFFCURVE",
"511 51 CURVE SMOOTH",
"511 63 OFFCURVE",
"506 74 OFFCURVE",
"500 83 CURVE",
"340 274 LINE",
"499 462 LINE SMOOTH",
"507 472 OFFCURVE",
"511 484 OFFCURVE",
"511 496 CURVE SMOOTH",
"511 524 OFFCURVE",
"488 547 OFFCURVE",
"459 547 CURVE SMOOTH",
"444 547 OFFCURVE",
"431 542 OFFCURVE",
"422 530 CURVE SMOOTH",
"274 354 LINE",
"127 530 LINE",
"117 542 OFFCURVE",
"104 547 OFFCURVE",
"89 547 CURVE SMOOTH",
"57 547 OFFCURVE",
"38 522 OFFCURVE",
"38 492 CURVE SMOOTH",
"38 480 OFFCURVE",
"43 470 OFFCURVE",
"50 462 CURVE SMOOTH",
"208 274 LINE"
);
}
);
width = 547;
}
);
unicode = 0078;
},
{
glyphname = y;
lastChange = "2016-10-19 22:32:10 +0000";
layers = (
{
layerId = UUID0;
paths = (
{
closed = 1;
nodes = (
"130 -161 LINE SMOOTH",
"127 -168 OFFCURVE",
"125 -175 OFFCURVE",
"125 -183 CURVE SMOOTH",
"125 -212 OFFCURVE",
"147 -234 OFFCURVE",
"176 -234 CURVE SMOOTH",
"197 -234 OFFCURVE",
"216 -220 OFFCURVE",
"225 -200 CURVE SMOOTH",
"505 473 LINE SMOOTH",
"509 481 OFFCURVE",
"511 489 OFFCURVE",
"511 496 CURVE SMOOTH",
"511 524 OFFCURVE",
"488 547 OFFCURVE",
"459 547 CURVE SMOOTH",
"431 547 OFFCURVE",
"419 534 OFFCURVE",
"412 514 CURVE SMOOTH",
"274 186 LINE",
"137 513 LINE SMOOTH",
"128 535 OFFCURVE",
"109 547 OFFCURVE",
"89 547 CURVE SMOOTH",
"59 547 OFFCURVE",
"38 522 OFFCURVE",
"38 494 CURVE SMOOTH",
"38 487 OFFCURVE",
"40 480 OFFCURVE",
"43 473 CURVE SMOOTH",
"219 51 LINE"
);
}
);
width = 547;
}
);
unicode = 0079;
},
{
glyphname = z;
lastChange = "2016-10-19 22:32:10 +0000";
layers = (
{
layerId = UUID0;
paths = (
{
closed = 1;
nodes = (
"459 0 LINE SMOOTH",
"487 0 OFFCURVE",
"510 22 OFFCURVE",
"510 51 CURVE SMOOTH",
"510 79 OFFCURVE",
"487 102 OFFCURVE",
"459 102 CURVE SMOOTH",
"197 102 LINE",
"499 462 LINE SMOOTH",
"506 472 OFFCURVE",
"511 482 OFFCURVE",
"511 496 CURVE SMOOTH",
"511 524 OFFCURVE",
"488 547 OFFCURVE",
"459 547 CURVE SMOOTH",
"89 547 LINE SMOOTH",
"62 547 OFFCURVE",
"39 524 OFFCURVE",
"39 496 CURVE SMOOTH",
"39 467 OFFCURVE",
"62 445 OFFCURVE",
"89 445 CURVE SMOOTH",
"351 445 LINE",
"48 83 LINE",
"42 73 OFFCURVE",
"38 63 OFFCURVE",
"38 51 CURVE SMOOTH",
"38 23 OFFCURVE",
"60 0 OFFCURVE",
"89 0 CURVE SMOOTH"
);
}
);
width = 547;
}
);
unicode = 007A;
},
{
glyphname = braceleft;
lastChange = "2016-10-19 22:32:10 +0000";
layers = (
{
layerId = UUID0;
paths = (
{
closed = 1;
nodes = (
"201 781 OFFCURVE",
"147 727 OFFCURVE",
"147 618 CURVE SMOOTH",
"147 385 LINE SMOOTH",
"147 344 OFFCURVE",
"127 324 OFFCURVE",
"87 324 CURVE SMOOTH",
"58 324 OFFCURVE",
"36 303 OFFCURVE",
"36 273 CURVE SMOOTH",
"36 244 OFFCURVE",
"58 223 OFFCURVE",
"87 223 CURVE SMOOTH",
"127 223 OFFCURVE",
"147 203 OFFCURVE",
"147 162 CURVE SMOOTH",
"147 -71 LINE SMOOTH",
"147 -180 OFFCURVE",
"201 -234 OFFCURVE",
"310 -234 CURVE SMOOTH",
"339 -234 OFFCURVE",
"360 -212 OFFCURVE",
"360 -183 CURVE SMOOTH",
"360 -153 OFFCURVE",
"339 -132 OFFCURVE",
"310 -132 CURVE SMOOTH",
"269 -132 OFFCURVE",
"249 -112 OFFCURVE",
"249 -71 CURVE SMOOTH",
"249 162 LINE SMOOTH",
"249 209 OFFCURVE",
"238 246 OFFCURVE",
"217 273 CURVE",
"238 301 OFFCURVE",
"249 338 OFFCURVE",
"249 385 CURVE SMOOTH",
"249 618 LINE SMOOTH",
"249 659 OFFCURVE",
"269 679 OFFCURVE",
"310 679 CURVE SMOOTH",
"339 679 OFFCURVE",
"360 700 OFFCURVE",
"360 729 CURVE SMOOTH",
"360 758 OFFCURVE",
"339 781 OFFCURVE",
"310 781 CURVE SMOOTH"
);
}
);
width = 391;
}
);
unicode = 007B;
},
{
glyphname = bar;
lastChange = "2016-10-19 22:32:10 +0000";
layers = (
{
layerId = UUID0;
paths = (
{
closed = 1;
nodes = (
"249 730 LINE SMOOTH",
"249 759 OFFCURVE",
"228 781 OFFCURVE",
"198 781 CURVE SMOOTH",
"169 781 OFFCURVE",
"147 759 OFFCURVE",
"147 730 CURVE SMOOTH",
"147 -183 LINE SMOOTH",
"147 -212 OFFCURVE",
"169 -234 OFFCURVE",
"198 -234 CURVE SMOOTH",
"228 -234 OFFCURVE",
"249 -212 OFFCURVE",
"249 -183 CURVE SMOOTH"
);
}
);
width = 391;
}
);
unicode = 007C;
},
{
glyphname = braceright;
lastChange = "2016-10-19 22:32:10 +0000";
layers = (
{
layerId = UUID0;
paths = (
{
closed = 1;
nodes = (
"250 618 LINE SMOOTH",
"250 727 OFFCURVE",
"195 781 OFFCURVE",
"87 781 CURVE SMOOTH",
"58 781 OFFCURVE",
"36 758 OFFCURVE",
"36 729 CURVE SMOOTH",
"36 700 OFFCURVE",
"58 679 OFFCURVE",
"87 679 CURVE SMOOTH",
"127 679 OFFCURVE",
"147 659 OFFCURVE",
"147 618 CURVE SMOOTH",
"147 385 LINE SMOOTH",
"147 338 OFFCURVE",
"158 301 OFFCURVE",
"180 273 CURVE",
"158 246 OFFCURVE",
"147 209 OFFCURVE",
"147 162 CURVE SMOOTH",
"147 -71 LINE SMOOTH",
"147 -112 OFFCURVE",
"127 -132 OFFCURVE",
"87 -132 CURVE SMOOTH",
"58 -132 OFFCURVE",
"36 -153 OFFCURVE",
"36 -183 CURVE SMOOTH",
"36 -212 OFFCURVE",
"58 -234 OFFCURVE",
"87 -234 CURVE SMOOTH",
"195 -234 OFFCURVE",
"250 -180 OFFCURVE",
"250 -71 CURVE SMOOTH",
"250 162 LINE SMOOTH",
"250 203 OFFCURVE",
"270 223 OFFCURVE",
"310 223 CURVE SMOOTH",
"339 223 OFFCURVE",
"360 244 OFFCURVE",
"360 273 CURVE SMOOTH",
"360 303 OFFCURVE",
"339 324 OFFCURVE",
"310 324 CURVE SMOOTH",
"270 324 OFFCURVE",
"250 344 OFFCURVE",
"250 385 CURVE SMOOTH"
);
}
);
width = 391;
}
);
unicode = 007D;
},
{
glyphname = asciitilde;
lastChange = "2016-10-19 22:32:10 +0000";
layers = (
{
layerId = UUID0;
paths = (
{
closed = 1;
nodes = (
"205 281 OFFCURVE",
"239 294 OFFCURVE",
"269 321 CURVE SMOOTH",
"279 330 OFFCURVE",
"292 334 OFFCURVE",
"305 334 CURVE SMOOTH",
"327 334 OFFCURVE",
"366 302 OFFCURVE",
"385 302 CURVE SMOOTH",
"414 302 OFFCURVE",
"436 324 OFFCURVE",
"436 353 CURVE SMOOTH",
"436 406 OFFCURVE",
"355 437 OFFCURVE",
"307 437 CURVE SMOOTH",
"262 437 OFFCURVE",
"228 423 OFFCURVE",
"200 396 CURVE SMOOTH",
"190 388 OFFCURVE",
"178 383 OFFCURVE",
"164 383 CURVE SMOOTH",
"140 383 OFFCURVE",
"106 416 OFFCURVE",
"83 416 CURVE SMOOTH",
"56 416 OFFCURVE",
"33 396 OFFCURVE",
"33 365 CURVE SMOOTH",
"33 311 OFFCURVE",
"113 281 OFFCURVE",
"162 281 CURVE SMOOTH"
);
}
);
width = 469;
}
);
unicode = 007E;
},
{
glyphname = exclamdown;
lastChange = "2016-10-19 22:32:10 +0000";
layers = (
{
layerId = UUID0;
paths = (
{
closed = 1;
nodes = (
"141 408 OFFCURVE",
"172 440 OFFCURVE",
"172 478 CURVE SMOOTH",
"172 517 OFFCURVE",
"140 547 OFFCURVE",
"103 547 CURVE SMOOTH",
"66 547 OFFCURVE",
"34 517 OFFCURVE",
"34 478 CURVE SMOOTH",
"34 440 OFFCURVE",
"65 408 OFFCURVE",
"103 408 CURVE SMOOTH"
);
},
{
closed = 1;
nodes = (
"52 -183 LINE SMOOTH",
"52 -211 OFFCURVE",
"74 -234 OFFCURVE",
"103 -234 CURVE SMOOTH",
"132 -234 OFFCURVE",
"154 -211 OFFCURVE",
"154 -183 CURVE SMOOTH",
"154 327 LINE SMOOTH",
"154 355 OFFCURVE",
"130 377 OFFCURVE",
"103 377 CURVE SMOOTH",
"74 377 OFFCURVE",
"52 354 OFFCURVE",
"52 327 CURVE SMOOTH"
);
}
);
width = 195;
}
);
unicode = 00A1;
},
{
glyphname = cent;
lastChange = "2016-10-19 22:32:10 +0000";
layers = (
{
layerId = UUID0;
paths = (
{
closed = 1;
nodes = (
"177 169 LINE",
"154 201 OFFCURVE",
"143 232 OFFCURVE",
"143 273 CURVE SMOOTH",
"143 355 OFFCURVE",
"202 428 OFFCURVE",
"287 442 CURVE"
);
},
{
closed = 1;
nodes = (
"391 427 LINE",
"417 412 OFFCURVE",
"434 391 OFFCURVE",
"459 391 CURVE SMOOTH",
"488 391 OFFCURVE",
"511 413 OFFCURVE",
"511 442 CURVE SMOOTH",
"511 478 OFFCURVE",
"466 503 OFFCURVE",
"429 523 CURVE",
"470 625 LINE SMOOTH",
"473 633 OFFCURVE",
"473 639 OFFCURVE",
"474 644 CURVE",
"474 671 OFFCURVE",
"452 695 OFFCURVE",
"423 695 CURVE SMOOTH",
"400 695 OFFCURVE",
"383 682 OFFCURVE",
"375 663 CURVE SMOOTH",
"328 547 LINE",
"314 547 LINE SMOOTH",
"165 547 OFFCURVE",
"41 423 OFFCURVE",
"41 273 CURVE SMOOTH",
"41 198 OFFCURVE",
"68 132 OFFCURVE",
"122 80 CURVE SMOOTH",
"136 66 LINE",
"79 -78 LINE SMOOTH",
"76 -84 OFFCURVE",
"75 -90 OFFCURVE",
"75 -97 CURVE SMOOTH",
"75 -124 OFFCURVE",
"98 -148 OFFCURVE",
"126 -148 CURVE SMOOTH",
"147 -148 OFFCURVE",
"166 -133 OFFCURVE",
"174 -116 CURVE",
"226 14 LINE",
"252 4 OFFCURVE",
"282 0 OFFCURVE",
"314 0 CURVE SMOOTH",
"382 0 OFFCURVE",
"442 22 OFFCURVE",
"493 66 CURVE",
"504 77 OFFCURVE",
"509 90 OFFCURVE",
"509 104 CURVE SMOOTH",
"509 133 OFFCURVE",
"488 155 OFFCURVE",
"458 155 CURVE SMOOTH",
"447 155 OFFCURVE",
"435 151 OFFCURVE",
"426 144 CURVE SMOOTH",
"393 116 OFFCURVE",
"357 102 OFFCURVE",
"314 102 CURVE SMOOTH",
"298 102 OFFCURVE",
"281 104 OFFCURVE",
"263 109 CURVE"
);
}
);
width = 547;
}
);
unicode = 00A2;
},
{
glyphname = sterling;
lastChange = "2016-10-19 22:32:10 +0000";
layers = (
{
layerId = UUID0;
paths = (
{
closed = 1;
nodes = (
"390 0 LINE SMOOTH",
"410 0 OFFCURVE",
"426 10 OFFCURVE",
"437 31 CURVE SMOOTH",
"473 103 LINE SMOOTH",
"477 110 OFFCURVE",
"479 116 OFFCURVE",
"479 127 CURVE SMOOTH",
"479 155 OFFCURVE",
"456 179 OFFCURVE",
"427 179 CURVE SMOOTH",
"390 179 OFFCURVE",
"378 143 OFFCURVE",
"358 104 CURVE",
"201 104 LINE",
"223 171 OFFCURVE",
"233 236 OFFCURVE",
"234 300 CURVE",
"353 300 LINE SMOOTH",
"382 300 OFFCURVE",
"404 323 OFFCURVE",
"404 353 CURVE SMOOTH",
"404 382 OFFCURVE",
"382 404 OFFCURVE",
"353 404 CURVE SMOOTH",
"227 404 LINE",
"219 451 OFFCURVE",
"206 496 OFFCURVE",
"187 541 CURVE SMOOTH",
"181 554 OFFCURVE",
"178 565 OFFCURVE",
"178 578 CURVE SMOOTH",
"178 632 OFFCURVE",
"223 677 OFFCURVE",
"277 677 CURVE SMOOTH",
"319 677 OFFCURVE",
"343 654 OFFCURVE",
"373 620 CURVE SMOOTH",
"380 611 OFFCURVE",
"392 607 OFFCURVE",
"404 607 CURVE SMOOTH",
"434 607 OFFCURVE",
"456 629 OFFCURVE",
"456 659 CURVE SMOOTH",
"456 670 OFFCURVE",
"452 682 OFFCURVE",
"446 690 CURVE SMOOTH",
"401 750 OFFCURVE",
"347 780 OFFCURVE",
"277 780 CURVE SMOOTH",
"167 780 OFFCURVE",
"75 690 OFFCURVE",
"75 578 CURVE SMOOTH",
"75 518 OFFCURVE",
"108 462 OFFCURVE",
"121 404 CURVE",
"89 404 LINE SMOOTH",
"60 404 OFFCURVE",
"38 382 OFFCURVE",
"38 353 CURVE SMOOTH",
"38 323 OFFCURVE",
"60 300 OFFCURVE",
"89 300 CURVE SMOOTH",
"131 300 LINE",
"130 227 OFFCURVE",
"112 151 OFFCURVE",
"79 72 CURVE SMOOTH",
"76 66 OFFCURVE",
"75 60 OFFCURVE",
"75 51 CURVE SMOOTH",
"75 22 OFFCURVE",
"93 0 OFFCURVE",
"127 0 CURVE SMOOTH"
);
}
);
width = 508;
}
);
unicode = 00A3;
},
{
glyphname = currency;
lastChange = "2016-10-19 22:32:10 +0000";
layers = (
{
layerId = UUID0;
paths = (
{
closed = 1;
nodes = (
"268 422 OFFCURVE",
"296 396 OFFCURVE",
"296 361 CURVE SMOOTH",
"296 328 OFFCURVE",
"269 301 OFFCURVE",
"236 301 CURVE SMOOTH",
"202 301 OFFCURVE",
"176 330 OFFCURVE",
"176 361 CURVE SMOOTH",
"176 394 OFFCURVE",
"203 422 OFFCURVE",
"236 422 CURVE SMOOTH"
);
},
{
closed = 1;
nodes = (
"308 507 LINE",
"283 520 OFFCURVE",
"257 524 OFFCURVE",
"229 524 CURVE SMOOTH",
"208 524 OFFCURVE",
"185 518 OFFCURVE",
"162 506 CURVE",
"137 533 LINE",
"127 542 OFFCURVE",
"115 547 OFFCURVE",
"102 547 CURVE SMOOTH",
"73 547 OFFCURVE",
"51 524 OFFCURVE",
"51 496 CURVE SMOOTH",
"51 481 OFFCURVE",
"56 469 OFFCURVE",
"66 460 CURVE",
"91 434 LINE",
"80 412 OFFCURVE",
"74 388 OFFCURVE",
"74 361 CURVE SMOOTH",
"74 334 OFFCURVE",
"80 310 OFFCURVE",
"92 287 CURVE",
"66 263 LINE SMOOTH",
"56 253 OFFCURVE",
"51 240 OFFCURVE",
"51 227 CURVE SMOOTH",
"51 198 OFFCURVE",
"73 176 OFFCURVE",
"102 176 CURVE SMOOTH",
"115 176 OFFCURVE",
"128 181 OFFCURVE",
"139 191 CURVE SMOOTH",
"165 215 LINE",
"188 205 OFFCURVE",
"211 199 OFFCURVE",
"236 199 CURVE SMOOTH",
"263 199 OFFCURVE",
"288 205 OFFCURVE",
"311 216 CURVE",
"335 189 LINE",
"346 181 OFFCURVE",
"357 176 OFFCURVE",
"371 176 CURVE SMOOTH",
"400 176 OFFCURVE",
"421 198 OFFCURVE",
"421 227 CURVE SMOOTH",
"421 241 OFFCURVE",
"417 253 OFFCURVE",
"407 263 CURVE SMOOTH",
"382 290 LINE",
"393 312 OFFCURVE",
"398 335 OFFCURVE",
"398 361 CURVE SMOOTH",
"398 389 OFFCURVE",
"393 414 OFFCURVE",
"382 436 CURVE",
"406 459 LINE SMOOTH",
"416 468 OFFCURVE",
"421 480 OFFCURVE",
"421 496 CURVE SMOOTH",
"421 525 OFFCURVE",
"398 547 OFFCURVE",
"369 547 CURVE SMOOTH",
"355 547 OFFCURVE",
"345 541 OFFCURVE",
"335 532 CURVE SMOOTH"
);
}
);
width = 469;
}
);
unicode = 00A4;
},
{
glyphname = yen;
lastChange = "2016-10-19 22:32:10 +0000";
layers = (
{
layerId = UUID0;
paths = (
{
closed = 1;
nodes = (
"578 701 LINE SMOOTH",
"583 709 OFFCURVE",
"585 719 OFFCURVE",
"585 730 CURVE SMOOTH",
"585 759 OFFCURVE",
"564 781 OFFCURVE",
"535 781 CURVE SMOOTH",
"518 781 OFFCURVE",
"503 774 OFFCURVE",
"493 760 CURVE",
"313 489 LINE",
"131 760 LINE",
"121 774 OFFCURVE",
"107 781 OFFCURVE",
"90 781 CURVE SMOOTH",
"61 781 OFFCURVE",
"39 759 OFFCURVE",
"39 730 CURVE SMOOTH",
"39 719 OFFCURVE",
"42 709 OFFCURVE",
"47 701 CURVE SMOOTH",
"168 521 LINE",
"90 521 LINE SMOOTH",
"61 521 OFFCURVE",
"39 500 OFFCURVE",
"39 471 CURVE SMOOTH",
"39 441 OFFCURVE",
"61 419 OFFCURVE",
"90 419 CURVE SMOOTH",
"236 419 LINE",
"261 381 LINE",
"261 336 LINE",
"90 336 LINE SMOOTH",
"61 336 OFFCURVE",
"39 314 OFFCURVE",
"39 285 CURVE SMOOTH",
"39 256 OFFCURVE",
"61 234 OFFCURVE",
"90 234 CURVE SMOOTH",
"261 234 LINE",
"261 52 LINE SMOOTH",
"261 22 OFFCURVE",
"283 0 OFFCURVE",
"312 0 CURVE SMOOTH",
"341 0 OFFCURVE",
"363 22 OFFCURVE",
"363 52 CURVE SMOOTH",
"363 234 LINE",
"535 234 LINE SMOOTH",
"563 234 OFFCURVE",
"586 256 OFFCURVE",
"586 285 CURVE SMOOTH",
"586 314 OFFCURVE",
"563 336 OFFCURVE",
"535 336 CURVE SMOOTH",
"363 336 LINE",
"363 381 LINE",
"389 419 LINE",
"535 419 LINE SMOOTH",
"564 419 OFFCURVE",
"587 441 OFFCURVE",
"587 471 CURVE SMOOTH",
"587 500 OFFCURVE",
"564 521 OFFCURVE",
"535 521 CURVE SMOOTH",
"457 521 LINE"
);
}
);
width = 625;
}
);
unicode = 00A5;
},
{
glyphname = brokenbar;
lastChange = "2016-10-19 22:32:10 +0000";
layers = (
{
layerId = UUID0;
paths = (
{
closed = 1;
nodes = (
"71 459 LINE SMOOTH",
"71 430 OFFCURVE",
"93 408 OFFCURVE",
"122 408 CURVE SMOOTH",
"151 408 OFFCURVE",
"173 430 OFFCURVE",
"173 459 CURVE SMOOTH",
"173 792 LINE SMOOTH",
"173 822 OFFCURVE",
"151 843 OFFCURVE",
"122 843 CURVE SMOOTH",
"93 843 OFFCURVE",
"71 822 OFFCURVE",
"71 792 CURVE SMOOTH"
);
},
{
closed = 1;
nodes = (
"71 -183 LINE SMOOTH",
"71 -212 OFFCURVE",
"93 -234 OFFCURVE",
"122 -234 CURVE SMOOTH",
"151 -234 OFFCURVE",
"173 -212 OFFCURVE",
"173 -183 CURVE SMOOTH",
"173 151 LINE SMOOTH",
"173 180 OFFCURVE",
"151 202 OFFCURVE",
"122 202 CURVE SMOOTH",
"93 202 OFFCURVE",
"71 180 OFFCURVE",
"71 151 CURVE SMOOTH"
);
}
);
width = 234;
}
);
unicode = 00A6;
},
{
glyphname = section;
lastChange = "2016-10-19 22:32:10 +0000";
layers = (
{
layerId = UUID0;
paths = (
{
closed = 1;
nodes = (
"294 374 OFFCURVE",
"341 329 OFFCURVE",
"341 274 CURVE SMOOTH",
"341 218 OFFCURVE",
"294 175 OFFCURVE",
"241 175 CURVE SMOOTH",
"187 175 OFFCURVE",
"141 218 OFFCURVE",
"141 274 CURVE SMOOTH",
"141 329 OFFCURVE",
"187 374 OFFCURVE",
"241 374 CURVE SMOOTH"
);
},
{
closed = 1;
nodes = (
"445 689 OFFCURVE",
"352 782 OFFCURVE",
"241 782 CURVE SMOOTH",
"129 782 OFFCURVE",
"37 689 OFFCURVE",
"37 578 CURVE SMOOTH",
"37 522 OFFCURVE",
"54 475 OFFCURVE",
"104 426 CURVE",
"60 381 OFFCURVE",
"37 331 OFFCURVE",
"37 274 CURVE SMOOTH",
"37 161 OFFCURVE",
"129 70 OFFCURVE",
"241 70 CURVE SMOOTH",
"294 70 OFFCURVE",
"341 24 OFFCURVE",
"341 -29 CURVE SMOOTH",
"341 -84 OFFCURVE",
"294 -129 OFFCURVE",
"241 -129 CURVE SMOOTH",
"187 -129 OFFCURVE",
"141 -84 OFFCURVE",
"141 -29 CURVE SMOOTH",
"141 0 OFFCURVE",
"119 23 OFFCURVE",
"90 23 CURVE SMOOTH",
"59 23 OFFCURVE",
"37 0 OFFCURVE",
"37 -29 CURVE SMOOTH",
"37 -141 OFFCURVE",
"129 -234 OFFCURVE",
"241 -234 CURVE SMOOTH",
"352 -234 OFFCURVE",
"445 -141 OFFCURVE",
"445 -29 CURVE SMOOTH",
"445 28 OFFCURVE",
"423 78 OFFCURVE",
"377 122 CURVE",
"423 166 OFFCURVE",
"445 217 OFFCURVE",
"445 274 CURVE SMOOTH",
"445 386 OFFCURVE",
"353 478 OFFCURVE",
"241 478 CURVE SMOOTH",
"185 478 OFFCURVE",
"141 522 OFFCURVE",
"141 578 CURVE SMOOTH",
"141 632 OFFCURVE",
"187 678 OFFCURVE",
"241 678 CURVE SMOOTH",
"294 678 OFFCURVE",
"341 632 OFFCURVE",
"341 578 CURVE SMOOTH",
"341 548 OFFCURVE",
"363 525 OFFCURVE",
"393 525 CURVE SMOOTH",
"423 525 OFFCURVE",
"445 548 OFFCURVE",
"445 578 CURVE SMOOTH"
);
}
);
width = 469;
}
);
unicode = 00A7;
},
{
glyphname = dieresis;
lastChange = "2016-10-19 22:32:10 +0000";
layers = (
{
layerId = UUID0;
paths = (
{
closed = 1;
nodes = (
"185 696 OFFCURVE",
"157 724 OFFCURVE",
"125 724 CURVE SMOOTH",
"91 724 OFFCURVE",
"64 696 OFFCURVE",
"64 664 CURVE SMOOTH",
"64 630 OFFCURVE",
"91 604 OFFCURVE",
"125 604 CURVE SMOOTH",
"157 604 OFFCURVE",
"185 630 OFFCURVE",
"185 664 CURVE SMOOTH"
);
},
{
closed = 1;
nodes = (
"407 696 OFFCURVE",
"379 724 OFFCURVE",
"347 724 CURVE SMOOTH",
"313 724 OFFCURVE",
"287 696 OFFCURVE",
"287 664 CURVE SMOOTH",
"287 630 OFFCURVE",
"313 604 OFFCURVE",
"347 604 CURVE SMOOTH",
"379 604 OFFCURVE",
"407 630 OFFCURVE",
"407 664 CURVE SMOOTH"
);
}
);
width = 469;
}
);
unicode = 00A8;
},
{
glyphname = copyright;
lastChange = "2016-10-19 22:32:10 +0000";
layers = (
{
layerId = UUID0;
paths = (
{
closed = 1;
nodes = (
"561 273 OFFCURVE",
"550 271 OFFCURVE",
"542 263 CURVE SMOOTH",
"509 235 OFFCURVE",
"474 222 OFFCURVE",
"431 222 CURVE SMOOTH",
"336 222 OFFCURVE",
"261 298 OFFCURVE",
"261 392 CURVE SMOOTH",
"261 483 OFFCURVE",
"337 562 OFFCURVE",
"431 562 CURVE SMOOTH",
"474 562 OFFCURVE",
"509 547 OFFCURVE",
"542 519 CURVE",
"551 511 OFFCURVE",
"563 507 OFFCURVE",
"575 507 CURVE SMOOTH",
"604 507 OFFCURVE",
"625 529 OFFCURVE",
"625 558 CURVE SMOOTH",
"625 573 OFFCURVE",
"620 586 OFFCURVE",
"608 597 CURVE SMOOTH",
"558 641 OFFCURVE",
"500 663 OFFCURVE",
"431 663 CURVE SMOOTH",
"281 663 OFFCURVE",
"160 538 OFFCURVE",
"160 392 CURVE SMOOTH",
"160 244 OFFCURVE",
"282 120 OFFCURVE",
"431 120 CURVE SMOOTH",
"500 120 OFFCURVE",
"558 142 OFFCURVE",
"608 186 CURVE SMOOTH",
"619 196 OFFCURVE",
"624 209 OFFCURVE",
"624 223 CURVE SMOOTH",
"624 251 OFFCURVE",
"603 274 OFFCURVE",
"574 274 CURVE"
);
},
{
closed = 1;
nodes = (
"823 499 OFFCURVE",
"785 590 OFFCURVE",
"708 666 CURVE",
"632 743 OFFCURVE",
"541 781 OFFCURVE",
"433 781 CURVE SMOOTH",
"324 781 OFFCURVE",
"231 743 OFFCURVE",
"156 666 CURVE SMOOTH",
"80 589 OFFCURVE",
"42 498 OFFCURVE",
"42 391 CURVE SMOOTH",
"42 283 OFFCURVE",
"79 190 OFFCURVE",
"156 114 CURVE SMOOTH",
"232 38 OFFCURVE",
"325 0 OFFCURVE",
"433 0 CURVE SMOOTH",
"540 0 OFFCURVE",
"631 38 OFFCURVE",
"708 114 CURVE SMOOTH",
"785 190 OFFCURVE",
"823 282 OFFCURVE",
"823 391 CURVE SMOOTH"
);
},
{
closed = 1;
nodes = (
"601 702 OFFCURVE",
"741 562 OFFCURVE",
"741 392 CURVE SMOOTH",
"741 222 OFFCURVE",
"603 82 OFFCURVE",
"431 82 CURVE SMOOTH",
"258 82 OFFCURVE",
"121 222 OFFCURVE",
"121 392 CURVE SMOOTH",
"121 562 OFFCURVE",
"261 702 OFFCURVE",
"431 702 CURVE SMOOTH"
);
}
);
width = 859;
}
);
unicode = 00A9;
},
{
glyphname = ordfeminine;
lastChange = "2016-10-19 22:32:10 +0000";
layers = (
{
layerId = UUID0;
paths = (
{
closed = 1;
nodes = (
"289 667 OFFCURVE",
"333 623 OFFCURVE",
"333 570 CURVE SMOOTH",
"333 517 OFFCURVE",
"289 473 OFFCURVE",
"236 473 CURVE SMOOTH",
"182 473 OFFCURVE",
"139 516 OFFCURVE",
"139 570 CURVE SMOOTH",
"139 623 OFFCURVE",
"183 667 OFFCURVE",
"236 667 CURVE SMOOTH"
);
},
{
closed = 1;
nodes = (
"358 376 OFFCURVE",
"370 371 OFFCURVE",
"385 371 CURVE SMOOTH",
"413 371 OFFCURVE",
"436 393 OFFCURVE",
"436 422 CURVE SMOOTH",
"436 570 LINE SMOOTH",
"436 679 OFFCURVE",
"345 770 OFFCURVE",
"236 770 CURVE SMOOTH",
"126 770 OFFCURVE",
"37 678 OFFCURVE",
"37 570 CURVE SMOOTH",
"37 462 OFFCURVE",
"126 371 OFFCURVE",
"236 371 CURVE SMOOTH",
"274 371 OFFCURVE",
"309 380 OFFCURVE",
"339 398 CURVE",
"342 394 OFFCURVE",
"345 390 OFFCURVE",
"348 386 CURVE SMOOTH"
);
}
);
width = 469;
}
);
unicode = 00AA;
},
{
glyphname = guillemotleft;
lastChange = "2016-10-19 22:32:10 +0000";
layers = (
{
layerId = UUID0;
paths = (
{
closed = 1;
nodes = (
"43 297 LINE SMOOTH",
"39 289 OFFCURVE",
"37 281 OFFCURVE",
"37 273 CURVE SMOOTH",
"37 265 OFFCURVE",
"40 256 OFFCURVE",
"44 247 CURVE SMOOTH",
"152 31 LINE",
"162 10 OFFCURVE",
"180 0 OFFCURVE",
"199 0 CURVE SMOOTH",
"228 0 OFFCURVE",
"250 23 OFFCURVE",
"250 51 CURVE SMOOTH",
"250 59 OFFCURVE",
"249 66 OFFCURVE",
"246 72 CURVE SMOOTH",
"146 273 LINE",
"246 474 LINE SMOOTH",
"249 480 OFFCURVE",
"250 487 OFFCURVE",
"250 496 CURVE",
"250 525 OFFCURVE",
"229 546 OFFCURVE",
"199 546 CURVE SMOOTH",
"178 546 OFFCURVE",
"162 536 OFFCURVE",
"152 515 CURVE"
);
},
{
closed = 1;
nodes = (
"230 297 LINE SMOOTH",
"226 289 OFFCURVE",
"224 281 OFFCURVE",
"224 273 CURVE SMOOTH",
"224 265 OFFCURVE",
"226 256 OFFCURVE",
"231 247 CURVE SMOOTH",
"339 31 LINE",
"349 10 OFFCURVE",
"367 0 OFFCURVE",
"386 0 CURVE SMOOTH",
"415 0 OFFCURVE",
"437 23 OFFCURVE",
"437 51 CURVE SMOOTH",
"437 59 OFFCURVE",
"435 66 OFFCURVE",
"432 72 CURVE SMOOTH",
"332 273 LINE",
"432 474 LINE SMOOTH",
"435 480 OFFCURVE",
"437 487 OFFCURVE",
"437 496 CURVE",
"437 525 OFFCURVE",
"415 546 OFFCURVE",
"386 546 CURVE SMOOTH",
"365 546 OFFCURVE",
"348 536 OFFCURVE",
"339 515 CURVE"
);
}
);
width = 469;
}
);
unicode = 00AB;
},
{
glyphname = logicalnot;
lastChange = "2016-10-19 22:32:10 +0000";
layers = (
{
layerId = UUID0;
paths = (
{
closed = 1;
nodes = (
"409 445 LINE",
"409 348 LINE SMOOTH",
"409 319 OFFCURVE",
"432 296 OFFCURVE",
"459 296 CURVE SMOOTH",
"488 296 OFFCURVE",
"511 319 OFFCURVE",
"511 348 CURVE SMOOTH",
"511 496 LINE SMOOTH",
"511 524 OFFCURVE",
"488 547 OFFCURVE",
"459 547 CURVE SMOOTH",
"89 547 LINE SMOOTH",
"60 547 OFFCURVE",
"38 524 OFFCURVE",
"38 496 CURVE SMOOTH",
"38 467 OFFCURVE",
"60 445 OFFCURVE",
"89 445 CURVE SMOOTH"
);
}
);
width = 547;
}
);
unicode = 00AC;
},
{
glyphname = registered;
lastChange = "2016-10-19 22:32:10 +0000";
layers = (
{
layerId = UUID0;
paths = (
{
closed = 1;
nodes = (
"824 500 OFFCURVE",
"786 591 OFFCURVE",
"709 667 CURVE",
"633 744 OFFCURVE",
"542 782 OFFCURVE",
"434 782 CURVE SMOOTH",
"324 782 OFFCURVE",
"232 744 OFFCURVE",
"156 667 CURVE SMOOTH",
"80 590 OFFCURVE",
"42 500 OFFCURVE",
"42 392 CURVE SMOOTH",
"42 283 OFFCURVE",
"79 191 OFFCURVE",
"156 115 CURVE",
"233 37 OFFCURVE",
"325 0 OFFCURVE",
"434 0 CURVE SMOOTH",
"643 0 OFFCURVE",
"824 174 OFFCURVE",
"824 392 CURVE SMOOTH"
);
},
{
closed = 1;
nodes = (
"601 701 OFFCURVE",
"740 561 OFFCURVE",
"740 393 CURVE SMOOTH",
"740 225 OFFCURVE",
"603 84 OFFCURVE",
"432 84 CURVE SMOOTH",
"261 84 OFFCURVE",
"123 223 OFFCURVE",
"123 393 CURVE SMOOTH",
"123 562 OFFCURVE",
"262 701 OFFCURVE",
"432 701 CURVE SMOOTH"
);
},
{
closed = 1;
nodes = (
"434 577 LINE SMOOTH",
"479 577 OFFCURVE",
"517 539 OFFCURVE",
"517 494 CURVE SMOOTH",
"517 448 OFFCURVE",
"479 410 OFFCURVE",
"434 410 CURVE SMOOTH",
"350 410 LINE",
"350 577 LINE"
);
},
{
closed = 1;
nodes = (
"312 653 LINE SMOOTH",
"291 653 OFFCURVE",
"273 637 OFFCURVE",
"273 615 CURVE SMOOTH",
"273 178 LINE SMOOTH",
"273 157 OFFCURVE",
"291 139 OFFCURVE",
"312 139 CURVE SMOOTH",
"333 139 OFFCURVE",
"350 157 OFFCURVE",
"350 178 CURVE SMOOTH",
"350 334 LINE",
"437 334 LINE",
"546 158 LINE SMOOTH",
"554 146 OFFCURVE",
"565 139 OFFCURVE",
"580 139 CURVE SMOOTH",
"600 139 OFFCURVE",
"618 157 OFFCURVE",
"618 178 CURVE SMOOTH",
"618 185 OFFCURVE",
"615 192 OFFCURVE",
"610 199 CURVE SMOOTH",
"513 355 LINE",
"566 388 OFFCURVE",
"593 437 OFFCURVE",
"593 494 CURVE SMOOTH",
"593 582 OFFCURVE",
"520 653 OFFCURVE",
"434 653 CURVE SMOOTH"
);
}
);
width = 859;
}
);
unicode = 00AE;
},
{
glyphname = overscore;
lastChange = "2016-10-19 22:32:10 +0000";
layers = (
{
layerId = UUID0;
paths = (
{
closed = 1;
nodes = (
"459 816 LINE SMOOTH",
"488 816 OFFCURVE",
"511 837 OFFCURVE",
"511 867 CURVE SMOOTH",
"511 896 OFFCURVE",
"488 917 OFFCURVE",
"459 917 CURVE SMOOTH",
"89 917 LINE SMOOTH",
"60 917 OFFCURVE",
"38 896 OFFCURVE",
"38 867 CURVE SMOOTH",
"38 837 OFFCURVE",
"60 816 OFFCURVE",
"89 816 CURVE SMOOTH"
);
}
);
width = 547;
}
);
unicode = 00AF;
},
{
glyphname = degree;
lastChange = "2016-10-19 22:32:10 +0000";
layers = (
{
layerId = UUID0;
paths = (
{
closed = 1;
nodes = (
"436 679 OFFCURVE",
"345 770 OFFCURVE",
"236 770 CURVE SMOOTH",
"126 770 OFFCURVE",
"37 678 OFFCURVE",
"37 570 CURVE SMOOTH",
"37 462 OFFCURVE",
"126 371 OFFCURVE",
"236 371 CURVE SMOOTH",
"345 371 OFFCURVE",
"436 462 OFFCURVE",
"436 570 CURVE SMOOTH"
);
},
{
closed = 1;
nodes = (
"289 667 OFFCURVE",
"333 623 OFFCURVE",
"333 570 CURVE SMOOTH",
"333 517 OFFCURVE",
"289 473 OFFCURVE",
"236 473 CURVE SMOOTH",
"182 473 OFFCURVE",
"139 516 OFFCURVE",
"139 570 CURVE SMOOTH",
"139 623 OFFCURVE",
"183 667 OFFCURVE",
"236 667 CURVE SMOOTH"
);
}
);
width = 469;
}
);
unicode = 00B0;
},
{
glyphname = plusminus;
lastChange = "2016-10-19 22:32:10 +0000";
layers = (
{
layerId = UUID0;
paths = (
{
closed = 1;
nodes = (
"459 333 LINE SMOOTH",
"487 333 OFFCURVE",
"511 356 OFFCURVE",
"511 384 CURVE SMOOTH",
"511 413 OFFCURVE",
"487 436 OFFCURVE",
"459 436 CURVE SMOOTH",
"325 436 LINE",
"325 570 LINE SMOOTH",
"325 599 OFFCURVE",
"304 621 OFFCURVE",
"274 621 CURVE SMOOTH",
"247 621 OFFCURVE",
"223 598 OFFCURVE",
"223 570 CURVE SMOOTH",
"223 436 LINE",
"89 436 LINE SMOOTH",
"60 436 OFFCURVE",
"38 414 OFFCURVE",
"38 385 CURVE SMOOTH",
"38 355 OFFCURVE",
"60 333 OFFCURVE",
"89 333 CURVE SMOOTH",
"223 333 LINE",
"223 199 LINE SMOOTH",
"223 170 OFFCURVE",
"245 148 OFFCURVE",
"274 148 CURVE SMOOTH",
"304 148 OFFCURVE",
"325 170 OFFCURVE",
"325 199 CURVE SMOOTH",
"325 333 LINE"
);
},
{
closed = 1;
nodes = (
"460 0 LINE SMOOTH",
"489 0 OFFCURVE",
"511 21 OFFCURVE",
"511 51 CURVE SMOOTH",
"511 80 OFFCURVE",
"489 102 OFFCURVE",
"460 102 CURVE SMOOTH",
"89 102 LINE SMOOTH",
"60 102 OFFCURVE",
"38 80 OFFCURVE",
"38 51 CURVE SMOOTH",
"38 21 OFFCURVE",
"60 0 OFFCURVE",
"89 0 CURVE SMOOTH"
);
}
);
width = 547;
}
);
unicode = 00B1;
},
{
glyphname = uni00B2;
lastChange = "2016-10-19 22:32:10 +0000";
layers = (
{
layerId = UUID0;
paths = (
{
closed = 1;
nodes = (
"140 451 LINE",
"247 570 LINE",
"270 594 OFFCURVE",
"283 624 OFFCURVE",
"283 657 CURVE SMOOTH",
"283 725 OFFCURVE",
"226 781 OFFCURVE",
"159 781 CURVE SMOOTH",
"92 781 OFFCURVE",
"35 726 OFFCURVE",
"35 657 CURVE SMOOTH",
"35 640 OFFCURVE",
"48 625 OFFCURVE",
"67 625 CURVE SMOOTH",
"84 625 OFFCURVE",
"99 640 OFFCURVE",
"99 657 CURVE SMOOTH",
"99 689 OFFCURVE",
"126 717 OFFCURVE",
"159 717 CURVE SMOOTH",
"190 717 OFFCURVE",
"218 689 OFFCURVE",
"218 657 CURVE SMOOTH",
"218 641 OFFCURVE",
"212 626 OFFCURVE",
"200 614 CURVE",
"43 441 LINE SMOOTH",
"38 435 OFFCURVE",
"35 428 OFFCURVE",
"35 418 CURVE SMOOTH",
"35 399 OFFCURVE",
"48 386 OFFCURVE",
"67 386 CURVE SMOOTH",
"251 386 LINE SMOOTH",
"268 386 OFFCURVE",
"283 399 OFFCURVE",
"283 418 CURVE SMOOTH",
"283 436 OFFCURVE",
"268 451 OFFCURVE",
"251 451 CURVE SMOOTH"
);
}
);
width = 313;
}
);
unicode = 00B2;
},
{
glyphname = uni00B3;
lastChange = "2016-10-19 22:32:10 +0000";
layers = (
{
layerId = UUID0;
paths = (
{
closed = 1;
nodes = (
"192 569 OFFCURVE",
"220 542 OFFCURVE",
"220 509 CURVE SMOOTH",
"220 476 OFFCURVE",
"193 449 OFFCURVE",
"160 449 CURVE SMOOTH",
"125 449 OFFCURVE",
"100 476 OFFCURVE",
"100 509 CURVE SMOOTH",
"100 528 OFFCURVE",
"84 541 OFFCURVE",
"67 541 CURVE SMOOTH",
"48 541 OFFCURVE",
"35 528 OFFCURVE",
"35 509 CURVE SMOOTH",
"35 440 OFFCURVE",
"91 384 OFFCURVE",
"160 384 CURVE SMOOTH",
"229 384 OFFCURVE",
"285 441 OFFCURVE",
"285 509 CURVE SMOOTH",
"285 544 OFFCURVE",
"270 583 OFFCURVE",
"240 604 CURVE",
"256 624 OFFCURVE",
"266 649 OFFCURVE",
"266 675 CURVE SMOOTH",
"266 731 OFFCURVE",
"217 782 OFFCURVE",
"160 782 CURVE SMOOTH",
"103 782 OFFCURVE",
"54 735 OFFCURVE",
"54 675 CURVE SMOOTH",
"54 658 OFFCURVE",
"67 643 OFFCURVE",
"86 643 CURVE SMOOTH",
"133 643 OFFCURVE",
"104 717 OFFCURVE",
"160 717 CURVE SMOOTH",
"182 717 OFFCURVE",
"201 700 OFFCURVE",
"201 675 CURVE SMOOTH",
"201 619 OFFCURVE",
"127 649 OFFCURVE",
"127 601 CURVE SMOOTH",
"127 582 OFFCURVE",
"141 569 OFFCURVE",
"160 569 CURVE SMOOTH"
);
}
);
width = 313;
}
);
unicode = 00B3;
},
{
glyphname = acute;
lastChange = "2016-10-19 22:32:10 +0000";
layers = (
{
layerId = UUID0;
paths = (
{
closed = 1;
nodes = (
"234 694 LINE SMOOTH",
"244 703 OFFCURVE",
"248 715 OFFCURVE",
"248 729 CURVE SMOOTH",
"248 758 OFFCURVE",
"227 781 OFFCURVE",
"197 781 CURVE SMOOTH",
"184 781 OFFCURVE",
"171 776 OFFCURVE",
"161 766 CURVE SMOOTH",
"63 668 LINE",
"55 659 OFFCURVE",
"51 648 OFFCURVE",
"51 634 CURVE SMOOTH",
"51 604 OFFCURVE",
"72 583 OFFCURVE",
"102 583 CURVE SMOOTH",
"116 583 OFFCURVE",
"127 587 OFFCURVE",
"137 597 CURVE SMOOTH"
);
}
);
width = 273;
}
);
unicode = 00B4;
},
{
glyphname = mu;
lastChange = "2016-10-19 22:32:10 +0000";
layers = (
{
layerId = UUID0;
paths = (
{
closed = 1;
nodes = (
"141 496 LINE SMOOTH",
"141 524 OFFCURVE",
"118 547 OFFCURVE",
"89 547 CURVE SMOOTH",
"61 547 OFFCURVE",
"39 524 OFFCURVE",
"39 496 CURVE SMOOTH",
"39 -183 LINE SMOOTH",
"39 -212 OFFCURVE",
"60 -234 OFFCURVE",
"89 -234 CURVE SMOOTH",
"118 -234 OFFCURVE",
"141 -211 OFFCURVE",
"141 -183 CURVE SMOOTH",
"141 50 LINE",
"184 17 OFFCURVE",
"235 0 OFFCURVE",
"293 0 CURVE SMOOTH",
"352 0 OFFCURVE",
"401 15 OFFCURVE",
"446 50 CURVE",
"447 22 OFFCURVE",
"468 0 OFFCURVE",
"497 0 CURVE SMOOTH",
"525 0 OFFCURVE",
"548 23 OFFCURVE",
"548 51 CURVE SMOOTH",
"548 496 LINE SMOOTH",
"548 524 OFFCURVE",
"525 547 OFFCURVE",
"497 547 CURVE SMOOTH",
"468 547 OFFCURVE",
"446 524 OFFCURVE",
"446 496 CURVE SMOOTH",
"446 255 LINE SMOOTH",
"446 171 OFFCURVE",
"377 102 OFFCURVE",
"293 102 CURVE SMOOTH",
"209 102 OFFCURVE",
"141 170 OFFCURVE",
"141 255 CURVE SMOOTH"
);
}
);
width = 586;
}
);
unicode = 00B5;
},
{
glyphname = paragraph;
lastChange = "2016-10-19 22:32:10 +0000";
layers = (
{
layerId = UUID0;
paths = (
{
closed = 1;
nodes = (
"474 681 LINE",
"496 687 OFFCURVE",
"511 706 OFFCURVE",
"511 729 CURVE SMOOTH",
"511 758 OFFCURVE",
"488 781 OFFCURVE",
"459 781 CURVE SMOOTH",
"237 781 LINE SMOOTH",
"127 781 OFFCURVE",
"38 689 OFFCURVE",
"38 581 CURVE SMOOTH",
"38 479 OFFCURVE",
"120 389 OFFCURVE",
"223 382 CURVE",
"223 51 LINE SMOOTH",
"223 23 OFFCURVE",
"246 0 OFFCURVE",
"274 0 CURVE SMOOTH",
"303 0 OFFCURVE",
"325 23 OFFCURVE",
"325 51 CURVE SMOOTH",
"325 679 LINE",
"372 679 LINE",
"372 51 LINE SMOOTH",
"372 23 OFFCURVE",
"395 0 OFFCURVE",
"422 0 CURVE SMOOTH",
"451 0 OFFCURVE",
"474 23 OFFCURVE",
"474 51 CURVE SMOOTH"
);
}
);
width = 547;
}
);
unicode = 00B6;
},
{
glyphname = middot;
lastChange = "2016-10-19 22:32:10 +0000";
layers = (
{
layerId = UUID0;
paths = (
{
closed = 1;
nodes = (
"167 404 OFFCURVE",
"136 436 OFFCURVE",
"98 436 CURVE SMOOTH",
"61 436 OFFCURVE",
"29 405 OFFCURVE",
"29 366 CURVE SMOOTH",
"29 328 OFFCURVE",
"60 297 OFFCURVE",
"98 297 CURVE SMOOTH",
"137 297 OFFCURVE",
"167 329 OFFCURVE",
"167 366 CURVE SMOOTH"
);
}
);
width = 195;
}
);
unicode = 00B7;
},
{
glyphname = cedilla;
lastChange = "2016-10-19 22:32:10 +0000";
layers = (
{
layerId = UUID0;
paths = (
{
closed = 1;
nodes = (
"136 32 OFFCURVE",
"131 24 OFFCURVE",
"129 17 CURVE SMOOTH",
"110 -51 LINE SMOOTH",
"108 -55 OFFCURVE",
"108 -60 OFFCURVE",
"108 -64 CURVE SMOOTH",
"108 -116 OFFCURVE",
"183 -103 OFFCURVE",
"183 -121 CURVE SMOOTH",
"183 -128 OFFCURVE",
"175 -132 OFFCURVE",
"160 -132 CURVE SMOOTH",
"156 -132 OFFCURVE",
"152 -131 OFFCURVE",
"148 -129 CURVE",
"113 -107 LINE SMOOTH",
"104 -102 OFFCURVE",
"95 -99 OFFCURVE",
"86 -99 CURVE SMOOTH",
"57 -99 OFFCURVE",
"35 -122 OFFCURVE",
"35 -150 CURVE SMOOTH",
"35 -167 OFFCURVE",
"42 -181 OFFCURVE",
"58 -193 CURVE",
"100 -219 LINE",
"119 -229 OFFCURVE",
"139 -234 OFFCURVE",
"160 -234 CURVE SMOOTH",
"229 -234 OFFCURVE",
"285 -184 OFFCURVE",
"285 -123 CURVE SMOOTH",
"285 -82 OFFCURVE",
"265 -50 OFFCURVE",
"224 -26 CURVE",
"228 -9 LINE SMOOTH",
"229 -5 OFFCURVE",
"229 -1 OFFCURVE",
"229 2 CURVE SMOOTH",
"229 31 OFFCURVE",
"208 54 OFFCURVE",
"179 54 CURVE SMOOTH",
"165 54 OFFCURVE",
"153 49 OFFCURVE",
"143 40 CURVE"
);
}
);
width = 313;
}
);
unicode = 00B8;
},
{
glyphname = uni00B9;
lastChange = "2016-10-19 22:32:10 +0000";
layers = (
{
layerId = UUID0;
paths = (
{
closed = 1;
nodes = (
"172 749 LINE SMOOTH",
"172 768 OFFCURVE",
"157 781 OFFCURVE",
"140 781 CURVE SMOOTH",
"136 781 OFFCURVE",
"133 781 OFFCURVE",
"129 780 CURVE SMOOTH",
"73 761 LINE",
"60 755 OFFCURVE",
"52 742 OFFCURVE",
"52 730 CURVE SMOOTH",
"52 711 OFFCURVE",
"65 698 OFFCURVE",
"84 698 CURVE SMOOTH",
"90 698 OFFCURVE",
"94 699 OFFCURVE",
"97 700 CURVE SMOOTH",
"107 705 LINE",
"107 417 LINE SMOOTH",
"107 398 OFFCURVE",
"123 385 OFFCURVE",
"140 385 CURVE SMOOTH",
"157 385 OFFCURVE",
"172 398 OFFCURVE",
"172 417 CURVE SMOOTH"
);
}
);
width = 234;
}
);
unicode = 00B9;
},
{
glyphname = ordmasculine;
lastChange = "2016-10-19 22:32:10 +0000";
layers = (
{
layerId = UUID0;
paths = (
{
closed = 1;
nodes = (
"35 458 OFFCURVE",
"80 385 OFFCURVE",
"160 385 CURVE SMOOTH",
"236 385 OFFCURVE",
"284 458 OFFCURVE",
"284 583 CURVE SMOOTH",
"284 708 OFFCURVE",
"236 781 OFFCURVE",
"160 781 CURVE SMOOTH",
"80 781 OFFCURVE",
"35 708 OFFCURVE",
"35 583 CURVE SMOOTH"
);
},
{
closed = 1;
nodes = (
"171 717 OFFCURVE",
"181 712 OFFCURVE",
"188 704 CURVE",
"188 705 LINE",
"209 682 OFFCURVE",
"219 641 OFFCURVE",
"219 583 CURVE SMOOTH",
"219 508 OFFCURVE",
"200 450 OFFCURVE",
"160 450 CURVE SMOOTH",
"147 450 OFFCURVE",
"138 454 OFFCURVE",
"130 462 CURVE",
"131 461 LINE",
"110 485 OFFCURVE",
"100 526 OFFCURVE",
"100 583 CURVE SMOOTH",
"100 657 OFFCURVE",
"121 717 OFFCURVE",
"160 717 CURVE SMOOTH"
);
}
);
width = 313;
}
);
unicode = 00BA;
},
{
glyphname = guillemotright;
lastChange = "2016-10-19 22:32:10 +0000";
layers = (
{
layerId = UUID0;
paths = (
{
closed = 1;
nodes = (
"322 515 LINE",
"313 536 OFFCURVE",
"296 546 OFFCURVE",
"275 546 CURVE SMOOTH",
"246 546 OFFCURVE",
"224 525 OFFCURVE",
"224 496 CURVE SMOOTH",
"224 487 OFFCURVE",
"226 480 OFFCURVE",
"229 474 CURVE",
"329 273 LINE",
"229 72 LINE SMOOTH",
"225 65 OFFCURVE",
"224 59 OFFCURVE",
"224 51 CURVE SMOOTH",
"224 23 OFFCURVE",
"246 0 OFFCURVE",
"275 0 CURVE SMOOTH",
"294 0 OFFCURVE",
"312 10 OFFCURVE",
"322 31 CURVE",
"430 247 LINE SMOOTH",
"434 256 OFFCURVE",
"437 265 OFFCURVE",
"437 273 CURVE SMOOTH",
"437 281 OFFCURVE",
"435 289 OFFCURVE",
"431 297 CURVE SMOOTH"
);
},
{
closed = 1;
nodes = (
"135 515 LINE",
"126 536 OFFCURVE",
"109 546 OFFCURVE",
"88 546 CURVE SMOOTH",
"60 546 OFFCURVE",
"37 525 OFFCURVE",
"37 496 CURVE SMOOTH",
"37 487 OFFCURVE",
"40 480 OFFCURVE",
"42 474 CURVE",
"142 273 LINE",
"42 72 LINE SMOOTH",
"39 65 OFFCURVE",
"38 59 OFFCURVE",
"38 51 CURVE SMOOTH",
"38 23 OFFCURVE",
"60 0 OFFCURVE",
"88 0 CURVE SMOOTH",
"107 0 OFFCURVE",
"125 10 OFFCURVE",
"135 31 CURVE",
"243 247 LINE SMOOTH",
"248 256 OFFCURVE",
"250 265 OFFCURVE",
"250 273 CURVE SMOOTH",
"250 281 OFFCURVE",
"248 289 OFFCURVE",
"244 297 CURVE SMOOTH"
);
}
);
width = 469;
}
);
unicode = 00BB;
},
{
glyphname = onequarter;
lastChange = "2016-10-19 22:32:10 +0000";
layers = (
{
layerId = UUID0;
paths = (
{
closed = 1;
nodes = (
"563 781 OFFCURVE",
"549 774 OFFCURVE",
"540 761 CURVE SMOOTH",
"84 78 LINE SMOOTH",
"80 71 OFFCURVE",
"77 62 OFFCURVE",
"77 51 CURVE SMOOTH",
"77 23 OFFCURVE",
"99 0 OFFCURVE",
"128 0 CURVE SMOOTH",
"146 0 OFFCURVE",
"160 8 OFFCURVE",
"172 25 CURVE",
"624 702 LINE SMOOTH",
"629 710 OFFCURVE",
"632 721 OFFCURVE",
"632 730 CURVE SMOOTH",
"632 758 OFFCURVE",
"609 781 OFFCURVE",
"581 781 CURVE SMOOTH"
);
},
{
closed = 1;
nodes = (
"179 745 LINE SMOOTH",
"179 765 OFFCURVE",
"164 781 OFFCURVE",
"143 781 CURVE SMOOTH",
"138 781 OFFCURVE",
"134 780 OFFCURVE",
"130 779 CURVE SMOOTH",
"61 755 LINE",
"49 750 OFFCURVE",
"40 737 OFFCURVE",
"40 723 CURVE SMOOTH",
"40 702 OFFCURVE",
"55 687 OFFCURVE",
"76 687 CURVE SMOOTH",
"80 687 OFFCURVE",
"84 688 OFFCURVE",
"89 689 CURVE SMOOTH",
"106 694 LINE",
"106 344 LINE SMOOTH",
"106 324 OFFCURVE",
"123 308 OFFCURVE",
"143 308 CURVE SMOOTH",
"164 308 OFFCURVE",
"179 324 OFFCURVE",
"179 344 CURVE SMOOTH"
);
},
{
closed = 1;
nodes = (
"427 184 LINE",
"522 321 LINE",
"522 184 LINE"
);
},
{
closed = 1;
nodes = (
"522 111 LINE",
"522 36 LINE SMOOTH",
"522 15 OFFCURVE",
"537 0 OFFCURVE",
"558 0 CURVE SMOOTH",
"579 0 OFFCURVE",
"594 15 OFFCURVE",
"594 36 CURVE SMOOTH",
"594 111 LINE",
"625 111 LINE SMOOTH",
"645 111 OFFCURVE",
"661 126 OFFCURVE",
"661 147 CURVE SMOOTH",
"661 168 OFFCURVE",
"645 184 OFFCURVE",
"625 184 CURVE SMOOTH",
"594 184 LINE",
"594 437 LINE SMOOTH",
"594 458 OFFCURVE",
"579 473 OFFCURVE",
"558 473 CURVE SMOOTH",
"545 473 OFFCURVE",
"536 468 OFFCURVE",
"528 458 CURVE SMOOTH",
"329 168 LINE SMOOTH",
"324 162 OFFCURVE",
"322 155 OFFCURVE",
"322 147 CURVE SMOOTH",
"322 126 OFFCURVE",
"337 111 OFFCURVE",
"358 111 CURVE SMOOTH"
);
}
);
width = 703;
}
);
unicode = 00BC;
},
{
glyphname = onehalf;
lastChange = "2016-10-19 22:32:10 +0000";
layers = (
{
layerId = UUID0;
paths = (
{
closed = 1;
nodes = (
"559 72 LINE",
"693 222 LINE SMOOTH",
"720 251 OFFCURVE",
"736 286 OFFCURVE",
"736 326 CURVE SMOOTH",
"736 405 OFFCURVE",
"668 473 OFFCURVE",
"588 473 CURVE SMOOTH",
"508 473 OFFCURVE",
"441 406 OFFCURVE",
"441 326 CURVE SMOOTH",
"441 305 OFFCURVE",
"456 290 OFFCURVE",
"477 290 CURVE SMOOTH",
"498 290 OFFCURVE",
"513 305 OFFCURVE",
"513 326 CURVE SMOOTH",
"513 367 OFFCURVE",
"547 401 OFFCURVE",
"588 401 CURVE SMOOTH",
"629 401 OFFCURVE",
"664 367 OFFCURVE",
"664 326 CURVE SMOOTH",
"664 305 OFFCURVE",
"656 287 OFFCURVE",
"641 271 CURVE",
"451 61 LINE SMOOTH",
"444 53 OFFCURVE",
"441 45 OFFCURVE",
"441 36 CURVE SMOOTH",
"441 15 OFFCURVE",
"456 0 OFFCURVE",
"477 0 CURVE SMOOTH",
"700 0 LINE SMOOTH",
"719 0 OFFCURVE",
"736 15 OFFCURVE",
"736 36 CURVE SMOOTH",
"736 57 OFFCURVE",
"719 72 OFFCURVE",
"700 72 CURVE SMOOTH"
);
},
{
closed = 1;
nodes = (
"563 781 OFFCURVE",
"549 774 OFFCURVE",
"540 761 CURVE SMOOTH",
"84 78 LINE SMOOTH",
"80 71 OFFCURVE",
"77 62 OFFCURVE",
"77 51 CURVE SMOOTH",
"77 23 OFFCURVE",
"99 0 OFFCURVE",
"128 0 CURVE SMOOTH",
"146 0 OFFCURVE",
"160 8 OFFCURVE",
"172 25 CURVE",
"624 702 LINE SMOOTH",
"629 710 OFFCURVE",
"632 721 OFFCURVE",
"632 730 CURVE SMOOTH",
"632 758 OFFCURVE",
"609 781 OFFCURVE",
"581 781 CURVE SMOOTH"
);
},
{
closed = 1;
nodes = (
"179 745 LINE SMOOTH",
"179 765 OFFCURVE",
"164 781 OFFCURVE",
"143 781 CURVE SMOOTH",
"138 781 OFFCURVE",
"134 780 OFFCURVE",
"130 779 CURVE SMOOTH",
"61 755 LINE",
"49 750 OFFCURVE",
"40 737 OFFCURVE",
"40 723 CURVE SMOOTH",
"40 702 OFFCURVE",
"55 687 OFFCURVE",
"76 687 CURVE SMOOTH",
"80 687 OFFCURVE",
"84 688 OFFCURVE",
"89 689 CURVE SMOOTH",
"106 694 LINE",
"106 344 LINE SMOOTH",
"106 324 OFFCURVE",
"123 308 OFFCURVE",
"143 308 CURVE SMOOTH",
"164 308 OFFCURVE",
"179 324 OFFCURVE",
"179 344 CURVE SMOOTH"
);
}
);
width = 781;
}
);
unicode = 00BD;
},
{
glyphname = threequarters;
lastChange = "2016-10-19 22:32:10 +0000";
layers = (
{
layerId = UUID0;
paths = (
{
closed = 1;
nodes = (
"229 532 OFFCURVE",
"262 499 OFFCURVE",
"262 457 CURVE SMOOTH",
"262 416 OFFCURVE",
"229 382 OFFCURVE",
"188 382 CURVE SMOOTH",
"146 382 OFFCURVE",
"113 415 OFFCURVE",
"113 457 CURVE SMOOTH",
"113 478 OFFCURVE",
"98 493 OFFCURVE",
"77 493 CURVE SMOOTH",
"56 493 OFFCURVE",
"41 478 OFFCURVE",
"41 457 CURVE SMOOTH",
"41 376 OFFCURVE",
"108 310 OFFCURVE",
"188 310 CURVE SMOOTH",
"268 310 OFFCURVE",
"335 377 OFFCURVE",
"335 457 CURVE SMOOTH",
"335 504 OFFCURVE",
"315 536 OFFCURVE",
"280 572 CURVE",
"302 596 OFFCURVE",
"313 624 OFFCURVE",
"313 656 CURVE SMOOTH",
"313 723 OFFCURVE",
"257 781 OFFCURVE",
"188 781 CURVE SMOOTH",
"120 781 OFFCURVE",
"63 724 OFFCURVE",
"63 656 CURVE SMOOTH",
"63 636 OFFCURVE",
"79 620 OFFCURVE",
"99 620 CURVE SMOOTH",
"118 620 OFFCURVE",
"135 637 OFFCURVE",
"135 656 CURVE SMOOTH",
"135 685 OFFCURVE",
"159 709 OFFCURVE",
"188 709 CURVE SMOOTH",
"214 709 OFFCURVE",
"241 686 OFFCURVE",
"241 656 CURVE SMOOTH",
"241 627 OFFCURVE",
"217 604 OFFCURVE",
"188 604 CURVE SMOOTH",
"167 604 OFFCURVE",
"152 587 OFFCURVE",
"152 568 CURVE SMOOTH",
"152 547 OFFCURVE",
"167 532 OFFCURVE",
"188 532 CURVE SMOOTH"
);
},
{
closed = 1;
nodes = (
"638 781 OFFCURVE",
"624 774 OFFCURVE",
"615 761 CURVE SMOOTH",
"160 78 LINE SMOOTH",
"155 71 OFFCURVE",
"152 62 OFFCURVE",
"152 51 CURVE SMOOTH",
"152 23 OFFCURVE",
"174 0 OFFCURVE",
"203 0 CURVE SMOOTH",
"221 0 OFFCURVE",
"235 8 OFFCURVE",
"247 25 CURVE",
"699 702 LINE SMOOTH",
"705 710 OFFCURVE",
"707 721 OFFCURVE",
"707 730 CURVE SMOOTH",
"707 758 OFFCURVE",
"684 781 OFFCURVE",
"656 781 CURVE SMOOTH"
);
},
{
closed = 1;
nodes = (
"502 184 LINE",
"597 321 LINE",
"597 184 LINE"
);
},
{
closed = 1;
nodes = (
"597 111 LINE",
"597 36 LINE SMOOTH",
"597 15 OFFCURVE",
"612 0 OFFCURVE",
"633 0 CURVE SMOOTH",
"654 0 OFFCURVE",
"669 15 OFFCURVE",
"669 36 CURVE SMOOTH",
"669 111 LINE",
"700 111 LINE SMOOTH",
"720 111 OFFCURVE",
"736 126 OFFCURVE",
"736 147 CURVE SMOOTH",
"736 168 OFFCURVE",
"720 184 OFFCURVE",
"700 184 CURVE SMOOTH",
"669 184 LINE",
"669 437 LINE SMOOTH",
"669 458 OFFCURVE",
"654 473 OFFCURVE",
"633 473 CURVE SMOOTH",
"620 473 OFFCURVE",
"610 468 OFFCURVE",
"603 458 CURVE SMOOTH",
"403 168 LINE SMOOTH",
"399 162 OFFCURVE",
"396 155 OFFCURVE",
"396 147 CURVE SMOOTH",
"396 126 OFFCURVE",
"412 111 OFFCURVE",
"433 111 CURVE SMOOTH"
);
}
);
width = 781;
}
);
unicode = 00BE;
},
{
glyphname = questiondown;
lastChange = "2016-10-19 22:32:10 +0000";
layers = (
{
layerId = UUID0;
paths = (
{
closed = 1;
nodes = (
"202 -132 OFFCURVE",
"140 -71 OFFCURVE",
"140 2 CURVE SMOOTH",
"140 39 OFFCURVE",
"153 70 OFFCURVE",
"179 97 CURVE",
"256 168 LINE",
"302 215 OFFCURVE",
"326 271 OFFCURVE",
"326 336 CURVE SMOOTH",
"326 365 OFFCURVE",
"304 387 OFFCURVE",
"274 387 CURVE SMOOTH",
"245 387 OFFCURVE",
"224 365 OFFCURVE",
"224 336 CURVE SMOOTH",
"224 298 OFFCURVE",
"210 267 OFFCURVE",
"185 241 CURVE",
"108 170 LINE",
"62 123 OFFCURVE",
"38 66 OFFCURVE",
"38 2 CURVE SMOOTH",
"38 -125 OFFCURVE",
"146 -234 OFFCURVE",
"274 -234 CURVE SMOOTH",
"403 -234 OFFCURVE",
"511 -128 OFFCURVE",
"511 2 CURVE SMOOTH",
"511 31 OFFCURVE",
"489 53 OFFCURVE",
"460 53 CURVE SMOOTH",
"432 53 OFFCURVE",
"409 31 OFFCURVE",
"409 2 CURVE SMOOTH",
"409 -73 OFFCURVE",
"349 -132 OFFCURVE",
"274 -132 CURVE SMOOTH"
);
},
{
closed = 1;
nodes = (
"313 408 OFFCURVE",
"344 439 OFFCURVE",
"344 477 CURVE SMOOTH",
"344 515 OFFCURVE",
"312 546 OFFCURVE",
"274 546 CURVE SMOOTH",
"237 546 OFFCURVE",
"205 516 OFFCURVE",
"205 477 CURVE SMOOTH",
"205 438 OFFCURVE",
"236 408 OFFCURVE",
"274 408 CURVE SMOOTH"
);
}
);
width = 547;
}
);
unicode = 00BF;
},
{
glyphname = AE;
lastChange = "2016-10-19 22:32:10 +0000";
layers = (
{
layerId = UUID0;
paths = (
{
closed = 1;
nodes = (
"416 405 LINE",
"347 405 LINE",
"416 529 LINE"
);
},
{
closed = 1;
nodes = (
"467 781 LINE SMOOTH",
"447 781 OFFCURVE",
"432 773 OFFCURVE",
"423 757 CURVE SMOOTH",
"46 78 LINE SMOOTH",
"42 69 OFFCURVE",
"39 62 OFFCURVE",
"39 52 CURVE SMOOTH",
"39 22 OFFCURVE",
"62 0 OFFCURVE",
"91 0 CURVE SMOOTH",
"109 0 OFFCURVE",
"124 8 OFFCURVE",
"134 23 CURVE",
"289 301 LINE",
"416 301 LINE",
"416 52 LINE SMOOTH",
"416 22 OFFCURVE",
"438 0 OFFCURVE",
"467 0 CURVE SMOOTH",
"769 0 LINE SMOOTH",
"798 0 OFFCURVE",
"820 22 OFFCURVE",
"820 52 CURVE SMOOTH",
"820 81 OFFCURVE",
"798 104 OFFCURVE",
"769 104 CURVE SMOOTH",
"519 104 LINE",
"519 301 LINE",
"693 301 LINE SMOOTH",
"723 301 OFFCURVE",
"745 324 OFFCURVE",
"745 353 CURVE SMOOTH",
"745 382 OFFCURVE",
"723 405 OFFCURVE",
"693 405 CURVE SMOOTH",
"519 405 LINE",
"519 678 LINE",
"769 678 LINE SMOOTH",
"798 678 OFFCURVE",
"820 700 OFFCURVE",
"820 729 CURVE SMOOTH",
"820 759 OFFCURVE",
"798 781 OFFCURVE",
"769 781 CURVE SMOOTH"
);
}
);
width = 859;
}
);
unicode = 00C6;
},
{
glyphname = Eth;
lastChange = "2016-10-19 22:32:10 +0000";
layers = (
{
layerId = UUID0;
paths = (
{
closed = 1;
nodes = (
"52 442 LINE SMOOTH",
"22 442 OFFCURVE",
"0 420 OFFCURVE",
"0 391 CURVE SMOOTH",
"0 361 OFFCURVE",
"22 339 OFFCURVE",
"52 339 CURVE SMOOTH",
"112 339 LINE",
"112 52 LINE SMOOTH",
"112 23 OFFCURVE",
"136 0 OFFCURVE",
"164 0 CURVE SMOOTH",
"315 0 LINE SMOOTH",
"423 0 OFFCURVE",
"515 38 OFFCURVE",
"591 114 CURVE SMOOTH",
"667 191 OFFCURVE",
"706 283 OFFCURVE",
"706 391 CURVE SMOOTH",
"706 500 OFFCURVE",
"667 590 OFFCURVE",
"591 667 CURVE SMOOTH",
"514 743 OFFCURVE",
"422 781 OFFCURVE",
"315 781 CURVE SMOOTH",
"164 781 LINE SMOOTH",
"136 781 OFFCURVE",
"112 758 OFFCURVE",
"112 729 CURVE SMOOTH",
"112 442 LINE"
);
},
{
closed = 1;
nodes = (
"216 678 LINE",
"315 678 LINE SMOOTH",
"471 678 OFFCURVE",
"602 547 OFFCURVE",
"602 391 CURVE SMOOTH",
"602 233 OFFCURVE",
"472 104 OFFCURVE",
"315 104 CURVE SMOOTH",
"216 104 LINE",
"216 339 LINE",
"353 339 LINE SMOOTH",
"382 339 OFFCURVE",
"404 361 OFFCURVE",
"404 391 CURVE SMOOTH",
"404 420 OFFCURVE",
"382 442 OFFCURVE",
"353 442 CURVE SMOOTH",
"216 442 LINE"
);
}
);
width = 742;
}
);
unicode = 00D0;
},
{
glyphname = multiply;
lastChange = "2016-10-19 22:32:10 +0000";
layers = (
{
layerId = UUID0;
paths = (
{
closed = 1;
nodes = (
"51 235 LINE SMOOTH",
"42 226 OFFCURVE",
"37 214 OFFCURVE",
"37 199 CURVE SMOOTH",
"37 170 OFFCURVE",
"59 148 OFFCURVE",
"88 148 CURVE SMOOTH",
"102 148 OFFCURVE",
"113 152 OFFCURVE",
"123 162 CURVE SMOOTH",
"236 275 LINE",
"349 162 LINE SMOOTH",
"358 153 OFFCURVE",
"371 148 OFFCURVE",
"385 148 CURVE SMOOTH",
"413 148 OFFCURVE",
"436 170 OFFCURVE",
"436 199 CURVE SMOOTH",
"436 213 OFFCURVE",
"431 225 OFFCURVE",
"421 235 CURVE",
"309 348 LINE",
"421 460 LINE",
"431 471 OFFCURVE",
"436 483 OFFCURVE",
"436 496 CURVE SMOOTH",
"436 524 OFFCURVE",
"413 547 OFFCURVE",
"385 547 CURVE SMOOTH",
"371 547 OFFCURVE",
"358 542 OFFCURVE",
"348 532 CURVE SMOOTH",
"236 420 LINE",
"125 532 LINE SMOOTH",
"114 542 OFFCURVE",
"102 547 OFFCURVE",
"88 547 CURVE SMOOTH",
"59 547 OFFCURVE",
"37 524 OFFCURVE",
"37 496 CURVE SMOOTH",
"37 482 OFFCURVE",
"42 471 OFFCURVE",
"51 460 CURVE",
"164 348 LINE"
);
}
);
width = 469;
}
);
unicode = 00D7;
},
{
glyphname = Oslash;
lastChange = "2016-10-19 22:32:10 +0000";
layers = (
{
layerId = UUID0;
paths = (
{
closed = 1;
nodes = (
"809 697 LINE",
"816 706 OFFCURVE",
"820 717 OFFCURVE",
"820 729 CURVE SMOOTH",
"820 759 OFFCURVE",
"798 781 OFFCURVE",
"769 781 CURVE SMOOTH",
"754 781 OFFCURVE",
"742 776 OFFCURVE",
"732 766 CURVE SMOOTH",
"667 701 LINE",
"598 756 OFFCURVE",
"521 781 OFFCURVE",
"430 781 CURVE SMOOTH",
"322 781 OFFCURVE",
"230 743 OFFCURVE",
"153 667 CURVE SMOOTH",
"77 590 OFFCURVE",
"39 499 OFFCURVE",
"39 391 CURVE SMOOTH",
"39 299 OFFCURVE",
"64 222 OFFCURVE",
"119 153 CURVE",
"53 87 LINE SMOOTH",
"43 78 OFFCURVE",
"39 66 OFFCURVE",
"39 52 CURVE SMOOTH",
"39 22 OFFCURVE",
"62 0 OFFCURVE",
"91 0 CURVE SMOOTH",
"104 0 OFFCURVE",
"117 4 OFFCURVE",
"127 15 CURVE SMOOTH",
"192 80 LINE",
"261 25 OFFCURVE",
"338 0 OFFCURVE",
"430 0 CURVE SMOOTH",
"538 0 OFFCURVE",
"629 38 OFFCURVE",
"706 114 CURVE SMOOTH",
"782 191 OFFCURVE",
"820 283 OFFCURVE",
"820 391 CURVE SMOOTH",
"820 482 OFFCURVE",
"795 559 OFFCURVE",
"740 628 CURVE"
);
},
{
closed = 1;
nodes = (
"193 228 LINE",
"159 275 OFFCURVE",
"143 329 OFFCURVE",
"143 391 CURVE SMOOTH",
"143 548 OFFCURVE",
"272 678 OFFCURVE",
"430 678 CURVE SMOOTH",
"491 678 OFFCURVE",
"546 661 OFFCURVE",
"593 627 CURVE"
);
},
{
closed = 1;
nodes = (
"666 554 LINE",
"700 505 OFFCURVE",
"717 451 OFFCURVE",
"717 391 CURVE SMOOTH",
"717 233 OFFCURVE",
"587 104 OFFCURVE",
"430 104 CURVE SMOOTH",
"368 104 OFFCURVE",
"314 120 OFFCURVE",
"267 154 CURVE"
);
}
);
width = 859;
}
);
unicode = 00D8;
},
{
glyphname = Thorn;
lastChange = "2016-10-19 22:32:10 +0000";
layers = (
{
layerId = UUID0;
paths = (
{
closed = 1;
nodes = (
"37 52 LINE SMOOTH",
"37 22 OFFCURVE",
"60 0 OFFCURVE",
"89 0 CURVE SMOOTH",
"118 0 OFFCURVE",
"141 22 OFFCURVE",
"141 52 CURVE SMOOTH",
"141 150 LINE",
"353 150 LINE SMOOTH",
"482 150 OFFCURVE",
"592 258 OFFCURVE",
"592 391 CURVE SMOOTH",
"592 522 OFFCURVE",
"483 631 OFFCURVE",
"353 631 CURVE SMOOTH",
"141 631 LINE",
"141 729 LINE SMOOTH",
"141 759 OFFCURVE",
"118 781 OFFCURVE",
"89 781 CURVE SMOOTH",
"60 781 OFFCURVE",
"37 759 OFFCURVE",
"37 729 CURVE SMOOTH"
);
},
{
closed = 1;
nodes = (
"141 254 LINE",
"141 527 LINE",
"353 527 LINE SMOOTH",
"427 527 OFFCURVE",
"489 466 OFFCURVE",
"489 391 CURVE SMOOTH",
"489 315 OFFCURVE",
"428 254 OFFCURVE",
"353 254 CURVE SMOOTH"
);
}
);
width = 625;
}
);
unicode = 00DE;
},
{
glyphname = germandbls;
lastChange = "2016-10-19 22:32:10 +0000";
layers = (
{
layerId = UUID0;
paths = (
{
closed = 1;
nodes = (
"142 578 LINE SMOOTH",
"142 634 OFFCURVE",
"185 677 OFFCURVE",
"240 677 CURVE SMOOTH",
"293 677 OFFCURVE",
"338 632 OFFCURVE",
"338 578 CURVE SMOOTH",
"338 555 OFFCURVE",
"332 535 OFFCURVE",
"320 520 CURVE SMOOTH",
"295 490 OFFCURVE",
"282 459 OFFCURVE",
"282 422 CURVE SMOOTH",
"282 371 OFFCURVE",
"305 329 OFFCURVE",
"353 296 CURVE SMOOTH",
"365 288 OFFCURVE",
"376 280 OFFCURVE",
"385 272 CURVE",
"385 272 LINE",
"404 253 OFFCURVE",
"414 230 OFFCURVE",
"414 202 CURVE SMOOTH",
"414 148 OFFCURVE",
"368 104 OFFCURVE",
"315 104 CURVE SMOOTH",
"288 104 OFFCURVE",
"266 113 OFFCURVE",
"246 133 CURVE SMOOTH",
"235 143 OFFCURVE",
"220 148 OFFCURVE",
"208 148 CURVE SMOOTH",
"179 148 OFFCURVE",
"156 125 OFFCURVE",
"156 97 CURVE SMOOTH",
"156 83 OFFCURVE",
"161 70 OFFCURVE",
"172 60 CURVE SMOOTH",
"212 20 OFFCURVE",
"259 0 OFFCURVE",
"315 0 CURVE SMOOTH",
"426 0 OFFCURVE",
"518 91 OFFCURVE",
"518 202 CURVE SMOOTH",
"518 277 OFFCURVE",
"477 346 OFFCURVE",
"406 383 CURVE SMOOTH",
"394 390 OFFCURVE",
"387 403 OFFCURVE",
"387 421 CURVE SMOOTH",
"387 432 OFFCURVE",
"390 441 OFFCURVE",
"396 449 CURVE",
"426 485 OFFCURVE",
"442 528 OFFCURVE",
"442 578 CURVE SMOOTH",
"442 688 OFFCURVE",
"351 780 OFFCURVE",
"240 780 CURVE SMOOTH",
"128 780 OFFCURVE",
"38 688 OFFCURVE",
"38 578 CURVE SMOOTH",
"38 51 LINE SMOOTH",
"38 23 OFFCURVE",
"61 0 OFFCURVE",
"89 0 CURVE SMOOTH",
"118 0 OFFCURVE",
"142 23 OFFCURVE",
"142 51 CURVE SMOOTH"
);
}
);
width = 547;
}
);
unicode = 00DF;
},
{
glyphname = ae;
lastChange = "2016-10-19 22:32:10 +0000";
layers = (
{
layerId = UUID0;
paths = (
{
closed = 1;
nodes = (
"414 445 OFFCURVE",
"490 369 OFFCURVE",
"490 273 CURVE SMOOTH",
"490 178 OFFCURVE",
"414 102 OFFCURVE",
"318 102 CURVE SMOOTH",
"223 102 OFFCURVE",
"147 178 OFFCURVE",
"147 273 CURVE SMOOTH",
"147 369 OFFCURVE",
"223 445 OFFCURVE",
"318 445 CURVE SMOOTH"
);
},
{
closed = 1;
nodes = (
"599 324 LINE",
"620 396 OFFCURVE",
"690 445 OFFCURVE",
"763 445 CURVE SMOOTH",
"837 445 OFFCURVE",
"905 396 OFFCURVE",
"928 324 CURVE"
);
},
{
closed = 1;
nodes = (
"592 61 LINE",
"641 21 OFFCURVE",
"698 0 OFFCURVE",
"763 0 CURVE SMOOTH",
"832 0 OFFCURVE",
"892 22 OFFCURVE",
"942 66 CURVE SMOOTH",
"952 76 OFFCURVE",
"957 89 OFFCURVE",
"957 103 CURVE SMOOTH",
"957 132 OFFCURVE",
"935 154 OFFCURVE",
"906 154 CURVE SMOOTH",
"894 154 OFFCURVE",
"882 149 OFFCURVE",
"872 141 CURVE SMOOTH",
"841 115 OFFCURVE",
"805 102 OFFCURVE",
"763 102 CURVE SMOOTH",
"689 102 OFFCURVE",
"622 149 OFFCURVE",
"599 223 CURVE",
"986 223 LINE SMOOTH",
"1015 223 OFFCURVE",
"1037 244 OFFCURVE",
"1037 273 CURVE SMOOTH",
"1037 423 OFFCURVE",
"913 547 OFFCURVE",
"763 547 CURVE SMOOTH",
"671 547 OFFCURVE",
"604 509 OFFCURVE",
"541 433 CURVE",
"480 509 OFFCURVE",
"410 547 OFFCURVE",
"318 547 CURVE SMOOTH",
"168 547 OFFCURVE",
"45 423 OFFCURVE",
"45 273 CURVE SMOOTH",
"45 124 OFFCURVE",
"168 0 OFFCURVE",
"318 0 CURVE SMOOTH",
"383 0 OFFCURVE",
"441 21 OFFCURVE",
"490 61 CURVE",
"490 51 LINE SMOOTH",
"490 23 OFFCURVE",
"512 0 OFFCURVE",
"541 0 CURVE SMOOTH",
"569 0 OFFCURVE",
"592 23 OFFCURVE",
"592 51 CURVE SMOOTH"
);
}
);
width = 1094;
}
);
unicode = 00E6;
},
{
glyphname = eth;
lastChange = "2016-10-19 22:32:10 +0000";
layers = (
{
layerId = UUID0;
paths = (
{
closed = 1;
nodes = (
"408 451 OFFCURVE",
"485 372 OFFCURVE",
"485 277 CURVE SMOOTH",
"485 183 OFFCURVE",
"408 104 OFFCURVE",
"312 104 CURVE SMOOTH",
"214 104 OFFCURVE",
"138 182 OFFCURVE",
"138 277 CURVE SMOOTH",
"138 373 OFFCURVE",
"214 451 OFFCURVE",
"312 451 CURVE SMOOTH"
);
},
{
closed = 1;
nodes = (
"219 668 LINE SMOOTH",
"202 659 OFFCURVE",
"194 642 OFFCURVE",
"194 624 CURVE SMOOTH",
"194 593 OFFCURVE",
"218 573 OFFCURVE",
"246 573 CURVE SMOOTH",
"254 573 OFFCURVE",
"262 574 OFFCURVE",
"268 578 CURVE SMOOTH",
"322 608 LINE",
"354 552 LINE",
"340 554 OFFCURVE",
"326 555 OFFCURVE",
"312 555 CURVE SMOOTH",
"160 555 OFFCURVE",
"34 429 OFFCURVE",
"34 277 CURVE SMOOTH",
"34 125 OFFCURVE",
"159 0 OFFCURVE",
"312 0 CURVE SMOOTH",
"461 0 OFFCURVE",
"589 123 OFFCURVE",
"589 277 CURVE SMOOTH",
"589 326 OFFCURVE",
"578 372 OFFCURVE",
"555 411 CURVE SMOOTH",
"412 661 LINE",
"454 686 LINE SMOOTH",
"471 695 OFFCURVE",
"479 712 OFFCURVE",
"479 730 CURVE SMOOTH",
"479 761 OFFCURVE",
"455 782 OFFCURVE",
"428 782 CURVE SMOOTH",
"419 782 OFFCURVE",
"412 780 OFFCURVE",
"406 777 CURVE",
"359 750 LINE",
"348 766 LINE",
"340 776 OFFCURVE",
"328 782 OFFCURVE",
"312 782 CURVE SMOOTH",
"283 782 OFFCURVE",
"259 758 OFFCURVE",
"259 730 CURVE SMOOTH",
"259 723 OFFCURVE",
"260 717 OFFCURVE",
"263 711 CURVE",
"271 698 LINE"
);
}
);
width = 625;
}
);
unicode = 00F0;
},
{
glyphname = divide;
lastChange = "2016-10-19 22:32:10 +0000";
layers = (
{
layerId = UUID0;
paths = (
{
closed = 1;
nodes = (
"385 296 LINE SMOOTH",
"414 296 OFFCURVE",
"436 318 OFFCURVE",
"436 348 CURVE SMOOTH",
"436 377 OFFCURVE",
"414 398 OFFCURVE",
"385 398 CURVE SMOOTH",
"88 398 LINE SMOOTH",
"59 398 OFFCURVE",
"37 377 OFFCURVE",
"37 348 CURVE SMOOTH",
"37 318 OFFCURVE",
"59 296 OFFCURVE",
"88 296 CURVE SMOOTH"
);
},
{
closed = 1;
nodes = (
"296 520 OFFCURVE",
"269 547 OFFCURVE",
"236 547 CURVE SMOOTH",
"203 547 OFFCURVE",
"176 520 OFFCURVE",
"176 487 CURVE SMOOTH",
"176 453 OFFCURVE",
"203 426 OFFCURVE",
"236 426 CURVE SMOOTH",
"270 426 OFFCURVE",
"296 453 OFFCURVE",
"296 487 CURVE SMOOTH"
);
},
{
closed = 1;
nodes = (
"296 242 OFFCURVE",
"269 269 OFFCURVE",
"236 269 CURVE SMOOTH",
"203 269 OFFCURVE",
"176 242 OFFCURVE",
"176 209 CURVE SMOOTH",
"176 175 OFFCURVE",
"203 148 OFFCURVE",
"236 148 CURVE SMOOTH",
"270 148 OFFCURVE",
"296 175 OFFCURVE",
"296 209 CURVE SMOOTH"
);
}
);
width = 469;
}
);
unicode = 00F7;
},
{
glyphname = oslash;
lastChange = "2016-10-19 22:32:10 +0000";
layers = (
{
layerId = UUID0;
paths = (
{
closed = 1;
nodes = (
"160 193 LINE",
"147 217 OFFCURVE",
"141 244 OFFCURVE",
"141 273 CURVE SMOOTH",
"141 367 OFFCURVE",
"217 445 OFFCURVE",
"313 445 CURVE SMOOTH",
"342 445 OFFCURVE",
"369 439 OFFCURVE",
"393 425 CURVE"
);
},
{
closed = 1;
nodes = (
"465 354 LINE",
"478 330 OFFCURVE",
"484 303 OFFCURVE",
"484 273 CURVE SMOOTH",
"484 180 OFFCURVE",
"408 102 OFFCURVE",
"313 102 CURVE SMOOTH",
"283 102 OFFCURVE",
"256 108 OFFCURVE",
"232 121 CURVE"
);
},
{
closed = 1;
nodes = (
"467 500 LINE",
"422 531 OFFCURVE",
"371 547 OFFCURVE",
"313 547 CURVE SMOOTH",
"163 547 OFFCURVE",
"39 423 OFFCURVE",
"39 273 CURVE SMOOTH",
"39 215 OFFCURVE",
"55 164 OFFCURVE",
"86 120 CURVE",
"53 86 LINE SMOOTH",
"43 77 OFFCURVE",
"39 64 OFFCURVE",
"39 51 CURVE SMOOTH",
"39 23 OFFCURVE",
"61 0 OFFCURVE",
"90 0 CURVE SMOOTH",
"104 0 OFFCURVE",
"116 4 OFFCURVE",
"125 12 CURVE",
"159 47 LINE",
"203 16 OFFCURVE",
"254 0 OFFCURVE",
"313 0 CURVE SMOOTH",
"459 0 OFFCURVE",
"586 121 OFFCURVE",
"586 273 CURVE SMOOTH",
"586 332 OFFCURVE",
"570 383 OFFCURVE",
"539 427 CURVE",
"571 460 LINE SMOOTH",
"581 470 OFFCURVE",
"586 482 OFFCURVE",
"586 496 CURVE SMOOTH",
"586 524 OFFCURVE",
"563 547 OFFCURVE",
"535 547 CURVE SMOOTH",
"520 547 OFFCURVE",
"508 542 OFFCURVE",
"498 531 CURVE SMOOTH"
);
}
);
width = 625;
}
);
unicode = 00F8;
},
{
glyphname = thorn;
lastChange = "2016-10-19 22:32:10 +0000";
layers = (
{
layerId = UUID0;
paths = (
{
closed = 1;
nodes = (
"141 368 OFFCURVE",
"217 446 OFFCURVE",
"313 446 CURVE SMOOTH",
"408 446 OFFCURVE",
"484 368 OFFCURVE",
"484 274 CURVE SMOOTH",
"484 181 OFFCURVE",
"408 103 OFFCURVE",
"313 103 CURVE SMOOTH",
"217 103 OFFCURVE",
"141 181 OFFCURVE",
"141 274 CURVE SMOOTH"
);
},
{
closed = 1;
nodes = (
"141 730 LINE SMOOTH",
"141 760 OFFCURVE",
"119 781 OFFCURVE",
"90 781 CURVE SMOOTH",
"61 781 OFFCURVE",
"39 760 OFFCURVE",
"39 730 CURVE SMOOTH",
"39 -183 LINE SMOOTH",
"39 -212 OFFCURVE",
"61 -234 OFFCURVE",
"90 -234 CURVE SMOOTH",
"118 -234 OFFCURVE",
"141 -211 OFFCURVE",
"141 -183 CURVE SMOOTH",
"141 62 LINE",
"190 22 OFFCURVE",
"248 1 OFFCURVE",
"313 1 CURVE SMOOTH",
"459 1 OFFCURVE",
"586 122 OFFCURVE",
"586 274 CURVE SMOOTH",
"586 427 OFFCURVE",
"459 548 OFFCURVE",
"313 548 CURVE SMOOTH",
"248 548 OFFCURVE",
"190 526 OFFCURVE",
"141 487 CURVE"
);
}
);
width = 625;
}
);
unicode = 00FE;
},
{
glyphname = dotlessi;
lastChange = "2016-10-19 22:32:10 +0000";
layers = (
{
layerId = UUID0;
paths = (
{
closed = 1;
nodes = (
"71 51 LINE SMOOTH",
"71 22 OFFCURVE",
"94 0 OFFCURVE",
"122 0 CURVE SMOOTH",
"150 0 OFFCURVE",
"173 22 OFFCURVE",
"173 51 CURVE",
"173 496 LINE",
"173 524 OFFCURVE",
"150 547 OFFCURVE",
"122 547 CURVE SMOOTH",
"94 547 OFFCURVE",
"71 524 OFFCURVE",
"71 496 CURVE SMOOTH"
);
}
);
width = 234;
}
);
unicode = 0131;
},
{
glyphname = circumflex;
lastChange = "2016-10-19 22:32:10 +0000";
layers = (
{
layerId = UUID0;
paths = (
{
closed = 1;
nodes = (
"220 773 LINE SMOOTH",
"211 779 OFFCURVE",
"203 781 OFFCURVE",
"193 781 CURVE SMOOTH",
"184 781 OFFCURVE",
"175 779 OFFCURVE",
"167 773 CURVE SMOOTH",
"55 700 LINE",
"39 688 OFFCURVE",
"31 673 OFFCURVE",
"31 656 CURVE SMOOTH",
"31 626 OFFCURVE",
"53 605 OFFCURVE",
"82 605 CURVE SMOOTH",
"94 605 OFFCURVE",
"104 608 OFFCURVE",
"114 616 CURVE",
"193 668 LINE",
"272 616 LINE SMOOTH",
"283 608 OFFCURVE",
"292 605 OFFCURVE",
"305 605 CURVE SMOOTH",
"334 605 OFFCURVE",
"355 626 OFFCURVE",
"355 656 CURVE SMOOTH",
"355 673 OFFCURVE",
"347 688 OFFCURVE",
"331 700 CURVE"
);
}
);
width = 391;
}
);
unicode = 02C6;
},
{
glyphname = caron;
lastChange = "2016-10-19 22:32:10 +0000";
layers = (
{
layerId = UUID0;
paths = (
{
closed = 1;
nodes = (
"331 687 LINE",
"347 699 OFFCURVE",
"355 713 OFFCURVE",
"355 730 CURVE SMOOTH",
"355 761 OFFCURVE",
"333 781 OFFCURVE",
"303 781 CURVE SMOOTH",
"292 781 OFFCURVE",
"282 777 OFFCURVE",
"272 771 CURVE SMOOTH",
"193 718 LINE",
"114 771 LINE",
"104 778 OFFCURVE",
"94 781 OFFCURVE",
"82 781 CURVE SMOOTH",
"53 781 OFFCURVE",
"31 760 OFFCURVE",
"31 730 CURVE SMOOTH",
"31 713 OFFCURVE",
"39 699 OFFCURVE",
"55 687 CURVE",
"167 613 LINE SMOOTH",
"175 607 OFFCURVE",
"184 605 OFFCURVE",
"193 605 CURVE SMOOTH",
"203 605 OFFCURVE",
"211 607 OFFCURVE",
"220 613 CURVE SMOOTH"
);
}
);
width = 391;
}
);
unicode = 02C7;
},
{
glyphname = uni02C9;
lastChange = "2016-10-19 22:32:10 +0000";
layers = (
{
layerId = UUID0;
paths = (
{
closed = 1;
nodes = (
"305 611 LINE SMOOTH",
"334 611 OFFCURVE",
"355 632 OFFCURVE",
"355 662 CURVE SMOOTH",
"355 690 OFFCURVE",
"334 713 OFFCURVE",
"305 713 CURVE SMOOTH",
"82 713 LINE SMOOTH",
"53 713 OFFCURVE",
"31 690 OFFCURVE",
"31 662 CURVE SMOOTH",
"31 632 OFFCURVE",
"53 611 OFFCURVE",
"82 611 CURVE SMOOTH"
);
}
);
width = 391;
}
);
unicode = 02C9;
},
{
glyphname = breve;
lastChange = "2016-10-19 22:32:10 +0000";
layers = (
{
layerId = UUID0;
paths = (
{
closed = 1;
nodes = (
"283 605 OFFCURVE",
"356 659 OFFCURVE",
"356 730 CURVE SMOOTH",
"356 759 OFFCURVE",
"335 781 OFFCURVE",
"306 781 CURVE SMOOTH",
"280 781 OFFCURVE",
"260 765 OFFCURVE",
"255 740 CURVE",
"254 721 OFFCURVE",
"225 707 OFFCURVE",
"194 707 CURVE SMOOTH",
"162 707 OFFCURVE",
"134 721 OFFCURVE",
"132 740 CURVE SMOOTH",
"129 765 OFFCURVE",
"106 781 OFFCURVE",
"82 781 CURVE SMOOTH",
"53 781 OFFCURVE",
"31 759 OFFCURVE",
"31 730 CURVE SMOOTH",
"31 659 OFFCURVE",
"104 605 OFFCURVE",
"194 605 CURVE SMOOTH"
);
}
);
width = 391;
}
);
unicode = 02D8;
},
{
glyphname = dotaccent;
lastChange = "2016-10-19 22:32:10 +0000";
layers = (
{
layerId = UUID0;
paths = (
{
closed = 1;
nodes = (
"167 711 OFFCURVE",
"136 743 OFFCURVE",
"98 743 CURVE SMOOTH",
"61 743 OFFCURVE",
"29 712 OFFCURVE",
"29 673 CURVE SMOOTH",
"29 635 OFFCURVE",
"60 604 OFFCURVE",
"98 604 CURVE SMOOTH",
"137 604 OFFCURVE",
"167 636 OFFCURVE",
"167 673 CURVE SMOOTH"
);
}
);
width = 195;
}
);
unicode = 02D9;
},
{
glyphname = ring;
lastChange = "2016-10-19 22:32:10 +0000";
layers = (
{
layerId = UUID0;
paths = (
{
closed = 1;
nodes = (
"244 730 OFFCURVE",
"196 781 OFFCURVE",
"137 781 CURVE SMOOTH",
"79 781 OFFCURVE",
"30 732 OFFCURVE",
"30 673 CURVE SMOOTH",
"30 613 OFFCURVE",
"79 566 OFFCURVE",
"137 566 CURVE SMOOTH",
"195 566 OFFCURVE",
"244 615 OFFCURVE",
"244 673 CURVE SMOOTH"
);
},
{
closed = 1;
nodes = (
"155 706 OFFCURVE",
"169 691 OFFCURVE",
"169 673 CURVE SMOOTH",
"169 655 OFFCURVE",
"155 641 OFFCURVE",
"137 641 CURVE SMOOTH",
"119 641 OFFCURVE",
"104 655 OFFCURVE",
"104 673 CURVE SMOOTH",
"104 691 OFFCURVE",
"119 706 OFFCURVE",
"137 706 CURVE SMOOTH"
);
}
);
width = 273;
}
);
unicode = 02DA;
},
{
glyphname = ogonek;
lastChange = "2016-10-19 22:32:10 +0000";
layers = (
{
layerId = UUID0;
paths = (
{
closed = 1;
nodes = (
"110 15 OFFCURVE",
"101 3 OFFCURVE",
"87 -7 CURVE SMOOTH",
"53 -35 OFFCURVE",
"35 -68 OFFCURVE",
"35 -109 CURVE SMOOTH",
"35 -178 OFFCURVE",
"93 -234 OFFCURVE",
"160 -234 CURVE SMOOTH",
"185 -234 OFFCURVE",
"208 -227 OFFCURVE",
"229 -212 CURVE SMOOTH",
"267 -187 LINE",
"279 -176 OFFCURVE",
"285 -163 OFFCURVE",
"285 -146 CURVE SMOOTH",
"285 -117 OFFCURVE",
"264 -95 OFFCURVE",
"234 -95 CURVE SMOOTH",
"222 -95 OFFCURVE",
"212 -99 OFFCURVE",
"203 -105 CURVE SMOOTH",
"172 -128 LINE SMOOTH",
"169 -131 OFFCURVE",
"165 -132 OFFCURVE",
"160 -132 CURVE SMOOTH",
"147 -132 OFFCURVE",
"137 -122 OFFCURVE",
"137 -109 CURVE SMOOTH",
"137 -103 OFFCURVE",
"140 -95 OFFCURVE",
"147 -89 CURVE SMOOTH",
"189 -59 OFFCURVE",
"211 -29 OFFCURVE",
"211 2 CURVE",
"209 31 OFFCURVE",
"188 52 OFFCURVE",
"160 52 CURVE SMOOTH",
"139 52 OFFCURVE",
"124 42 OFFCURVE",
"115 25 CURVE SMOOTH"
);
}
);
width = 313;
}
);
unicode = 02DB;
},
{
glyphname = tilde;
lastChange = "2016-10-19 22:32:10 +0000";
layers = (
{
layerId = UUID0;
paths = (
{
closed = 1;
nodes = (
"205 601 OFFCURVE",
"239 614 OFFCURVE",
"269 641 CURVE SMOOTH",
"279 650 OFFCURVE",
"292 654 OFFCURVE",
"305 654 CURVE SMOOTH",
"327 654 OFFCURVE",
"366 622 OFFCURVE",
"385 622 CURVE SMOOTH",
"414 622 OFFCURVE",
"436 644 OFFCURVE",
"436 673 CURVE SMOOTH",
"436 726 OFFCURVE",
"355 756 OFFCURVE",
"307 756 CURVE SMOOTH",
"262 756 OFFCURVE",
"228 743 OFFCURVE",
"200 716 CURVE SMOOTH",
"190 708 OFFCURVE",
"178 703 OFFCURVE",
"164 703 CURVE SMOOTH",
"140 703 OFFCURVE",
"106 735 OFFCURVE",
"83 735 CURVE SMOOTH",
"56 735 OFFCURVE",
"33 715 OFFCURVE",
"33 685 CURVE SMOOTH",
"33 630 OFFCURVE",
"113 601 OFFCURVE",
"162 601 CURVE SMOOTH"
);
}
);
width = 469;
}
);
unicode = 02DC;
},
{
glyphname = hungarumlaut;
lastChange = "2016-10-19 22:32:10 +0000";
layers = (
{
layerId = UUID0;
paths = (
{
closed = 1;
nodes = (
"175 711 LINE SMOOTH",
"178 718 OFFCURVE",
"179 725 OFFCURVE",
"179 730 CURVE",
"179 757 OFFCURVE",
"157 781 OFFCURVE",
"127 781 CURVE SMOOTH",
"106 781 OFFCURVE",
"85 767 OFFCURVE",
"80 749 CURVE SMOOTH",
"42 625 LINE",
"40 619 OFFCURVE",
"39 613 OFFCURVE",
"39 609 CURVE SMOOTH",
"39 582 OFFCURVE",
"62 567 OFFCURVE",
"81 567 CURVE SMOOTH",
"98 567 OFFCURVE",
"111 576 OFFCURVE",
"119 593 CURVE SMOOTH"
);
},
{
closed = 1;
nodes = (
"318 711 LINE SMOOTH",
"322 718 OFFCURVE",
"322 725 OFFCURVE",
"323 730 CURVE",
"323 757 OFFCURVE",
"300 781 OFFCURVE",
"271 781 CURVE SMOOTH",
"250 781 OFFCURVE",
"229 767 OFFCURVE",
"224 749 CURVE SMOOTH",
"185 625 LINE",
"184 619 OFFCURVE",
"183 613 OFFCURVE",
"183 609 CURVE SMOOTH",
"183 582 OFFCURVE",
"205 567 OFFCURVE",
"224 567 CURVE SMOOTH",
"242 567 OFFCURVE",
"254 576 OFFCURVE",
"263 593 CURVE SMOOTH"
);
}
);
width = 352;
}
);
unicode = 02DD;
},
{
glyphname = commaaccent;
lastChange = "2016-10-19 22:32:10 +0000";
layers = (
{
layerId = UUID0;
paths = (
{
closed = 1;
nodes = (
"227 -29 OFFCURVE",
"203 -21 OFFCURVE",
"177 -19 CURVE",
"135 -19 OFFCURVE",
"109 -32 OFFCURVE",
"109 -59 CURVE SMOOTH",
"109 -88 OFFCURVE",
"131 -110 OFFCURVE",
"161 -110 CURVE SMOOTH",
"175 -110 OFFCURVE",
"184 -114 OFFCURVE",
"184 -121 CURVE SMOOTH",
"184 -128 OFFCURVE",
"176 -132 OFFCURVE",
"161 -132 CURVE SMOOTH",
"157 -132 OFFCURVE",
"153 -131 OFFCURVE",
"149 -129 CURVE",
"114 -107 LINE SMOOTH",
"105 -102 OFFCURVE",
"96 -100 OFFCURVE",
"86 -100 CURVE SMOOTH",
"57 -100 OFFCURVE",
"36 -122 OFFCURVE",
"36 -151 CURVE SMOOTH",
"36 -167 OFFCURVE",
"43 -181 OFFCURVE",
"58 -193 CURVE",
"101 -219 LINE",
"120 -229 OFFCURVE",
"140 -234 OFFCURVE",
"161 -234 CURVE SMOOTH",
"230 -234 OFFCURVE",
"286 -183 OFFCURVE",
"286 -123 CURVE SMOOTH",
"286 -91 OFFCURVE",
"273 -65 OFFCURVE",
"249 -45 CURVE"
);
}
);
width = 313;
}
);
},
{
glyphname = endash;
lastChange = "2016-10-19 22:32:10 +0000";
layers = (
{
layerId = UUID0;
paths = (
{
closed = 1;
nodes = (
"392 223 LINE SMOOTH",
"420 223 OFFCURVE",
"443 244 OFFCURVE",
"443 273 CURVE SMOOTH",
"443 303 OFFCURVE",
"420 324 OFFCURVE",
"392 324 CURVE SMOOTH",
"0 324 LINE SMOOTH",
"-29 324 OFFCURVE",
"-51 303 OFFCURVE",
"-51 273 CURVE SMOOTH",
"-51 244 OFFCURVE",
"-29 223 OFFCURVE",
"0 223 CURVE SMOOTH"
);
}
);
width = 391;
}
);
unicode = 2013;
},
{
glyphname = emdash;
lastChange = "2016-10-19 22:32:10 +0000";
layers = (
{
layerId = UUID0;
paths = (
{
closed = 1;
nodes = (
"0 324 LINE SMOOTH",
"-29 324 OFFCURVE",
"-51 303 OFFCURVE",
"-51 273 CURVE SMOOTH",
"-51 244 OFFCURVE",
"-29 223 OFFCURVE",
"0 223 CURVE SMOOTH",
"937 223 LINE SMOOTH",
"966 223 OFFCURVE",
"988 244 OFFCURVE",
"988 273 CURVE SMOOTH",
"988 303 OFFCURVE",
"966 324 OFFCURVE",
"937 324 CURVE SMOOTH"
);
}
);
width = 938;
}
);
unicode = 2014;
},
{
glyphname = quoteleft;
lastChange = "2016-10-19 22:32:10 +0000";
layers = (
{
layerId = UUID0;
paths = (
{
closed = 1;
nodes = (
"198 514 OFFCURVE",
"196 523 OFFCURVE",
"192 531 CURVE SMOOTH",
"179 560 OFFCURVE",
"172 588 OFFCURVE",
"172 620 CURVE SMOOTH",
"172 652 OFFCURVE",
"180 687 OFFCURVE",
"194 722 CURVE SMOOTH",
"197 728 OFFCURVE",
"198 734 OFFCURVE",
"198 739 CURVE SMOOTH",
"198 762 OFFCURVE",
"179 781 OFFCURVE",
"156 781 CURVE SMOOTH",
"145 781 OFFCURVE",
"135 776 OFFCURVE",
"126 768 CURVE",
"77 708 OFFCURVE",
"53 650 OFFCURVE",
"53 593 CURVE SMOOTH",
"53 541 OFFCURVE",
"77 447 OFFCURVE",
"137 447 CURVE SMOOTH",
"170 447 OFFCURVE",
"198 474 OFFCURVE",
"198 507 CURVE SMOOTH"
);
}
);
width = 234;
}
);
unicode = 2018;
},
{
glyphname = quoteright;
lastChange = "2016-10-19 22:32:10 +0000";
layers = (
{
layerId = UUID0;
paths = (
{
closed = 1;
nodes = (
"53 711 OFFCURVE",
"54 704 OFFCURVE",
"58 696 CURVE SMOOTH",
"71 667 OFFCURVE",
"78 637 OFFCURVE",
"78 607 CURVE SMOOTH",
"78 575 OFFCURVE",
"71 541 OFFCURVE",
"56 505 CURVE SMOOTH",
"54 500 OFFCURVE",
"53 494 OFFCURVE",
"53 488 CURVE SMOOTH",
"53 465 OFFCURVE",
"71 447 OFFCURVE",
"94 447 CURVE SMOOTH",
"105 447 OFFCURVE",
"115 451 OFFCURVE",
"124 460 CURVE",
"173 519 OFFCURVE",
"198 577 OFFCURVE",
"198 635 CURVE SMOOTH",
"198 687 OFFCURVE",
"174 781 OFFCURVE",
"113 781 CURVE SMOOTH",
"80 781 OFFCURVE",
"53 754 OFFCURVE",
"53 720 CURVE SMOOTH"
);
}
);
width = 234;
}
);
unicode = 2019;
},
{
glyphname = quotesinglbase;
lastChange = "2016-10-19 22:32:10 +0000";
layers = (
{
layerId = UUID0;
paths = (
{
closed = 1;
nodes = (
"53 87 OFFCURVE",
"54 80 OFFCURVE",
"58 72 CURVE SMOOTH",
"71 43 OFFCURVE",
"78 13 OFFCURVE",
"78 -17 CURVE SMOOTH",
"78 -49 OFFCURVE",
"71 -83 OFFCURVE",
"56 -119 CURVE SMOOTH",
"54 -125 OFFCURVE",
"53 -130 OFFCURVE",
"53 -136 CURVE SMOOTH",
"53 -159 OFFCURVE",
"71 -177 OFFCURVE",
"94 -177 CURVE SMOOTH",
"105 -177 OFFCURVE",
"115 -173 OFFCURVE",
"124 -164 CURVE",
"173 -105 OFFCURVE",
"198 -47 OFFCURVE",
"198 11 CURVE SMOOTH",
"198 63 OFFCURVE",
"174 157 OFFCURVE",
"113 157 CURVE SMOOTH",
"80 157 OFFCURVE",
"53 130 OFFCURVE",
"53 96 CURVE SMOOTH"
);
}
);
width = 234;
}
);
unicode = 201A;
},
{
glyphname = quotedblleft;
lastChange = "2016-10-19 22:32:10 +0000";
layers = (
{
layerId = UUID0;
paths = (
{
closed = 1;
nodes = (
"181 514 OFFCURVE",
"179 523 OFFCURVE",
"175 531 CURVE SMOOTH",
"162 560 OFFCURVE",
"155 588 OFFCURVE",
"155 620 CURVE SMOOTH",
"155 652 OFFCURVE",
"163 687 OFFCURVE",
"177 722 CURVE SMOOTH",
"180 728 OFFCURVE",
"181 734 OFFCURVE",
"181 739 CURVE SMOOTH",
"181 762 OFFCURVE",
"162 781 OFFCURVE",
"139 781 CURVE SMOOTH",
"128 781 OFFCURVE",
"118 776 OFFCURVE",
"109 768 CURVE",
"60 708 OFFCURVE",
"36 650 OFFCURVE",
"36 593 CURVE SMOOTH",
"36 541 OFFCURVE",
"60 447 OFFCURVE",
"120 447 CURVE SMOOTH",
"153 447 OFFCURVE",
"181 474 OFFCURVE",
"181 507 CURVE SMOOTH"
);
},
{
closed = 1;
nodes = (
"341 514 OFFCURVE",
"339 523 OFFCURVE",
"336 531 CURVE SMOOTH",
"323 560 OFFCURVE",
"316 588 OFFCURVE",
"316 620 CURVE SMOOTH",
"316 652 OFFCURVE",
"323 687 OFFCURVE",
"338 722 CURVE SMOOTH",
"340 728 OFFCURVE",
"341 734 OFFCURVE",
"341 739 CURVE SMOOTH",
"341 762 OFFCURVE",
"323 781 OFFCURVE",
"300 781 CURVE SMOOTH",
"289 781 OFFCURVE",
"279 776 OFFCURVE",
"270 768 CURVE",
"221 708 OFFCURVE",
"196 650 OFFCURVE",
"196 593 CURVE SMOOTH",
"196 541 OFFCURVE",
"220 447 OFFCURVE",
"281 447 CURVE SMOOTH",
"314 447 OFFCURVE",
"341 474 OFFCURVE",
"341 507 CURVE SMOOTH"
);
}
);
width = 371;
}
);
unicode = 201C;
},
{
glyphname = quotedblright;
lastChange = "2016-10-19 22:32:10 +0000";
layers = (
{
layerId = UUID0;
paths = (
{
closed = 1;
nodes = (
"196 711 OFFCURVE",
"198 704 OFFCURVE",
"202 696 CURVE SMOOTH",
"215 667 OFFCURVE",
"222 637 OFFCURVE",
"222 607 CURVE SMOOTH",
"222 575 OFFCURVE",
"214 541 OFFCURVE",
"200 505 CURVE SMOOTH",
"197 500 OFFCURVE",
"196 494 OFFCURVE",
"196 488 CURVE SMOOTH",
"196 465 OFFCURVE",
"215 447 OFFCURVE",
"238 447 CURVE SMOOTH",
"249 447 OFFCURVE",
"259 451 OFFCURVE",
"268 460 CURVE",
"317 519 OFFCURVE",
"341 577 OFFCURVE",
"341 635 CURVE SMOOTH",
"341 687 OFFCURVE",
"317 781 OFFCURVE",
"257 781 CURVE SMOOTH",
"224 781 OFFCURVE",
"196 754 OFFCURVE",
"196 720 CURVE SMOOTH"
);
},
{
closed = 1;
nodes = (
"36 711 OFFCURVE",
"37 704 OFFCURVE",
"41 696 CURVE SMOOTH",
"54 667 OFFCURVE",
"61 637 OFFCURVE",
"61 607 CURVE SMOOTH",
"61 575 OFFCURVE",
"54 541 OFFCURVE",
"39 505 CURVE SMOOTH",
"37 500 OFFCURVE",
"36 494 OFFCURVE",
"36 488 CURVE SMOOTH",
"36 465 OFFCURVE",
"54 447 OFFCURVE",
"77 447 CURVE SMOOTH",
"88 447 OFFCURVE",
"98 451 OFFCURVE",
"107 460 CURVE",
"156 519 OFFCURVE",
"181 577 OFFCURVE",
"181 635 CURVE SMOOTH",
"181 687 OFFCURVE",
"157 781 OFFCURVE",
"96 781 CURVE SMOOTH",
"63 781 OFFCURVE",
"36 754 OFFCURVE",
"36 720 CURVE SMOOTH"
);
}
);
width = 371;
}
);
unicode = 201D;
},
{
glyphname = quotedblbase;
lastChange = "2016-10-19 22:32:10 +0000";
layers = (
{
layerId = UUID0;
paths = (
{
closed = 1;
nodes = (
"196 87 OFFCURVE",
"198 80 OFFCURVE",
"202 72 CURVE SMOOTH",
"215 43 OFFCURVE",
"222 13 OFFCURVE",
"222 -17 CURVE SMOOTH",
"222 -49 OFFCURVE",
"214 -83 OFFCURVE",
"200 -119 CURVE SMOOTH",
"197 -125 OFFCURVE",
"196 -130 OFFCURVE",
"196 -136 CURVE SMOOTH",
"196 -159 OFFCURVE",
"215 -177 OFFCURVE",
"238 -177 CURVE SMOOTH",
"249 -177 OFFCURVE",
"259 -173 OFFCURVE",
"268 -164 CURVE",
"317 -105 OFFCURVE",
"341 -47 OFFCURVE",
"341 11 CURVE SMOOTH",
"341 63 OFFCURVE",
"317 157 OFFCURVE",
"257 157 CURVE SMOOTH",
"224 157 OFFCURVE",
"196 130 OFFCURVE",
"196 96 CURVE SMOOTH"
);
},
{
closed = 1;
nodes = (
"36 87 OFFCURVE",
"37 80 OFFCURVE",
"41 72 CURVE SMOOTH",
"54 43 OFFCURVE",
"61 13 OFFCURVE",
"61 -17 CURVE SMOOTH",
"61 -49 OFFCURVE",
"54 -83 OFFCURVE",
"39 -119 CURVE SMOOTH",
"37 -125 OFFCURVE",
"36 -130 OFFCURVE",
"36 -136 CURVE SMOOTH",
"36 -159 OFFCURVE",
"54 -177 OFFCURVE",
"77 -177 CURVE SMOOTH",
"88 -177 OFFCURVE",
"98 -173 OFFCURVE",
"107 -164 CURVE",
"156 -105 OFFCURVE",
"181 -47 OFFCURVE",
"181 11 CURVE SMOOTH",
"181 63 OFFCURVE",
"157 157 OFFCURVE",
"96 157 CURVE SMOOTH",
"63 157 OFFCURVE",
"36 130 OFFCURVE",
"36 96 CURVE SMOOTH"
);
}
);
width = 371;
}
);
unicode = 201E;
},
{
glyphname = dagger;
lastChange = "2016-10-19 22:32:10 +0000";
layers = (
{
layerId = UUID0;
paths = (
{
closed = 1;
nodes = (
"223 445 LINE",
"223 -184 LINE SMOOTH",
"223 -211 OFFCURVE",
"247 -235 OFFCURVE",
"274 -235 CURVE SMOOTH",
"301 -235 OFFCURVE",
"325 -212 OFFCURVE",
"325 -184 CURVE SMOOTH",
"325 445 LINE",
"459 445 LINE SMOOTH",
"488 445 OFFCURVE",
"511 467 OFFCURVE",
"511 496 CURVE SMOOTH",
"511 524 OFFCURVE",
"488 547 OFFCURVE",
"459 547 CURVE SMOOTH",
"325 547 LINE",
"325 729 LINE SMOOTH",
"325 758 OFFCURVE",
"304 781 OFFCURVE",
"274 781 CURVE SMOOTH",
"246 781 OFFCURVE",
"223 758 OFFCURVE",
"223 729 CURVE SMOOTH",
"223 547 LINE",
"89 547 LINE SMOOTH",
"60 547 OFFCURVE",
"38 524 OFFCURVE",
"38 496 CURVE SMOOTH",
"38 467 OFFCURVE",
"60 445 OFFCURVE",
"89 445 CURVE SMOOTH"
);
}
);
width = 547;
}
);
unicode = 2020;
},
{
glyphname = daggerdbl;
lastChange = "2016-10-19 22:32:10 +0000";
layers = (
{
layerId = UUID0;
paths = (
{
closed = 1;
nodes = (
"89 102 LINE SMOOTH",
"60 102 OFFCURVE",
"38 80 OFFCURVE",
"38 51 CURVE SMOOTH",
"38 23 OFFCURVE",
"60 0 OFFCURVE",
"89 0 CURVE SMOOTH",
"223 0 LINE",
"223 -184 LINE SMOOTH",
"223 -211 OFFCURVE",
"247 -235 OFFCURVE",
"274 -235 CURVE SMOOTH",
"301 -235 OFFCURVE",
"325 -212 OFFCURVE",
"325 -184 CURVE SMOOTH",
"325 0 LINE",
"459 0 LINE SMOOTH",
"488 0 OFFCURVE",
"511 23 OFFCURVE",
"511 51 CURVE SMOOTH",
"511 79 OFFCURVE",
"488 102 OFFCURVE",
"459 102 CURVE SMOOTH",
"325 102 LINE",
"325 445 LINE",
"459 445 LINE SMOOTH",
"488 445 OFFCURVE",
"511 467 OFFCURVE",
"511 496 CURVE SMOOTH",
"511 524 OFFCURVE",
"488 547 OFFCURVE",
"459 547 CURVE SMOOTH",
"325 547 LINE",
"325 729 LINE SMOOTH",
"325 758 OFFCURVE",
"304 781 OFFCURVE",
"274 781 CURVE SMOOTH",
"246 781 OFFCURVE",
"223 758 OFFCURVE",
"223 729 CURVE SMOOTH",
"223 547 LINE",
"89 547 LINE SMOOTH",
"60 547 OFFCURVE",
"38 524 OFFCURVE",
"38 496 CURVE SMOOTH",
"38 467 OFFCURVE",
"60 445 OFFCURVE",
"89 445 CURVE SMOOTH",
"223 445 LINE",
"223 102 LINE"
);
}
);
width = 547;
}
);
unicode = 2021;
},
{
glyphname = bullet;
lastChange = "2016-10-19 22:32:10 +0000";
layers = (
{
layerId = UUID0;
paths = (
{
closed = 1;
nodes = (
"323 452 OFFCURVE",
"265 510 OFFCURVE",
"198 510 CURVE SMOOTH",
"132 510 OFFCURVE",
"73 455 OFFCURVE",
"73 385 CURVE SMOOTH",
"73 316 OFFCURVE",
"129 260 OFFCURVE",
"198 260 CURVE SMOOTH",
"268 260 OFFCURVE",
"323 318 OFFCURVE",
"323 385 CURVE SMOOTH"
);
}
);
width = 391;
}
);
unicode = 2022;
},
{
glyphname = ellipsis;
lastChange = "2016-10-19 22:32:10 +0000";
layers = (
{
layerId = UUID0;
paths = (
{
closed = 1;
nodes = (
"178 107 OFFCURVE",
"147 139 OFFCURVE",
"109 139 CURVE SMOOTH",
"70 139 OFFCURVE",
"40 106 OFFCURVE",
"40 69 CURVE SMOOTH",
"40 31 OFFCURVE",
"71 0 OFFCURVE",
"109 0 CURVE SMOOTH",
"146 0 OFFCURVE",
"178 30 OFFCURVE",
"178 69 CURVE SMOOTH"
);
},
{
closed = 1;
nodes = (
"643 106 OFFCURVE",
"612 139 OFFCURVE",
"573 139 CURVE SMOOTH",
"534 139 OFFCURVE",
"504 106 OFFCURVE",
"504 69 CURVE SMOOTH",
"504 31 OFFCURVE",
"535 0 OFFCURVE",
"573 0 CURVE SMOOTH",
"611 0 OFFCURVE",
"643 31 OFFCURVE",
"643 69 CURVE SMOOTH"
);
},
{
closed = 1;
nodes = (
"411 107 OFFCURVE",
"379 139 OFFCURVE",
"341 139 CURVE SMOOTH",
"302 139 OFFCURVE",
"271 106 OFFCURVE",
"271 69 CURVE SMOOTH",
"271 31 OFFCURVE",
"304 0 OFFCURVE",
"341 0 CURVE SMOOTH",
"378 0 OFFCURVE",
"411 31 OFFCURVE",
"411 69 CURVE SMOOTH"
);
}
);
width = 703;
}
);
unicode = 2026;
},
{
glyphname = guilsinglleft;
lastChange = "2016-10-19 22:32:10 +0000";
layers = (
{
layerId = UUID0;
paths = (
{
closed = 1;
nodes = (
"43 297 LINE SMOOTH",
"39 289 OFFCURVE",
"37 281 OFFCURVE",
"37 273 CURVE SMOOTH",
"37 265 OFFCURVE",
"40 256 OFFCURVE",
"44 247 CURVE SMOOTH",
"152 31 LINE",
"162 10 OFFCURVE",
"180 0 OFFCURVE",
"199 0 CURVE SMOOTH",
"228 0 OFFCURVE",
"250 23 OFFCURVE",
"250 51 CURVE SMOOTH",
"250 59 OFFCURVE",
"249 66 OFFCURVE",
"246 72 CURVE SMOOTH",
"146 273 LINE",
"246 474 LINE SMOOTH",
"249 480 OFFCURVE",
"250 487 OFFCURVE",
"250 496 CURVE",
"250 525 OFFCURVE",
"229 546 OFFCURVE",
"199 546 CURVE SMOOTH",
"178 546 OFFCURVE",
"162 536 OFFCURVE",
"152 515 CURVE"
);
}
);
width = 273;
}
);
unicode = 2039;
},
{
glyphname = guilsinglright;
lastChange = "2016-10-19 22:32:10 +0000";
layers = (
{
layerId = UUID0;
paths = (
{
closed = 1;
nodes = (
"135 515 LINE",
"126 536 OFFCURVE",
"109 546 OFFCURVE",
"88 546 CURVE SMOOTH",
"60 546 OFFCURVE",
"37 525 OFFCURVE",
"37 496 CURVE SMOOTH",
"37 487 OFFCURVE",
"40 480 OFFCURVE",
"42 474 CURVE",
"142 273 LINE",
"42 72 LINE SMOOTH",
"39 65 OFFCURVE",
"38 59 OFFCURVE",
"38 51 CURVE SMOOTH",
"38 23 OFFCURVE",
"60 0 OFFCURVE",
"88 0 CURVE SMOOTH",
"107 0 OFFCURVE",
"125 10 OFFCURVE",
"135 31 CURVE",
"243 247 LINE SMOOTH",
"248 256 OFFCURVE",
"250 265 OFFCURVE",
"250 273 CURVE SMOOTH",
"250 281 OFFCURVE",
"248 289 OFFCURVE",
"244 297 CURVE SMOOTH"
);
}
);
width = 273;
}
);
unicode = 203A;
},
{
glyphname = fraction;
lastChange = "2016-10-19 22:32:10 +0000";
layers = (
{
layerId = UUID0;
paths = (
{
closed = 1;
nodes = (
"452 781 OFFCURVE",
"439 775 OFFCURVE",
"429 763 CURVE SMOOTH",
"-176 84 LINE",
"-184 74 OFFCURVE",
"-188 63 OFFCURVE",
"-188 51 CURVE SMOOTH",
"-188 23 OFFCURVE",
"-165 0 OFFCURVE",
"-137 0 CURVE SMOOTH",
"-122 0 OFFCURVE",
"-108 6 OFFCURVE",
"-98 18 CURVE SMOOTH",
"508 698 LINE",
"515 708 OFFCURVE",
"519 718 OFFCURVE",
"519 730 CURVE SMOOTH",
"519 758 OFFCURVE",
"496 781 OFFCURVE",
"467 781 CURVE SMOOTH"
);
}
);
width = 313;
}
);
unicode = 2044;
},
{
glyphname = franc;
lastChange = "2016-10-19 22:32:10 +0000";
layers = (
{
layerId = UUID0;
paths = (
{
closed = 1;
nodes = (
"91 250 LINE SMOOTH",
"62 250 OFFCURVE",
"41 228 OFFCURVE",
"41 199 CURVE SMOOTH",
"41 170 OFFCURVE",
"62 148 OFFCURVE",
"91 148 CURVE SMOOTH",
"152 148 LINE",
"152 51 LINE SMOOTH",
"152 23 OFFCURVE",
"174 0 OFFCURVE",
"203 0 CURVE SMOOTH",
"231 0 OFFCURVE",
"253 23 OFFCURVE",
"253 51 CURVE SMOOTH",
"253 148 LINE",
"314 148 LINE SMOOTH",
"343 148 OFFCURVE",
"365 170 OFFCURVE",
"365 199 CURVE SMOOTH",
"365 228 OFFCURVE",
"343 250 OFFCURVE",
"314 250 CURVE SMOOTH",
"253 250 LINE",
"253 333 LINE",
"536 333 LINE SMOOTH",
"564 333 OFFCURVE",
"587 356 OFFCURVE",
"587 385 CURVE SMOOTH",
"587 414 OFFCURVE",
"565 436 OFFCURVE",
"536 436 CURVE SMOOTH",
"253 436 LINE",
"253 679 LINE",
"647 679 LINE SMOOTH",
"676 679 OFFCURVE",
"699 700 OFFCURVE",
"699 729 CURVE SMOOTH",
"699 758 OFFCURVE",
"676 781 OFFCURVE",
"647 781 CURVE SMOOTH",
"203 781 LINE SMOOTH",
"173 781 OFFCURVE",
"152 758 OFFCURVE",
"152 729 CURVE SMOOTH",
"152 250 LINE"
);
}
);
width = 742;
}
);
unicode = 20A3;
},
{
glyphname = lira;
lastChange = "2016-10-19 22:32:10 +0000";
layers = (
{
layerId = UUID0;
paths = (
{
closed = 1;
nodes = (
"89 467 LINE SMOOTH",
"60 467 OFFCURVE",
"38 444 OFFCURVE",
"38 415 CURVE SMOOTH",
"38 385 OFFCURVE",
"60 363 OFFCURVE",
"89 363 CURVE SMOOTH",
"123 363 LINE",
"125 356 OFFCURVE",
"125 350 OFFCURVE",
"125 344 CURVE",
"89 344 LINE SMOOTH",
"60 344 OFFCURVE",
"38 321 OFFCURVE",
"38 292 CURVE SMOOTH",
"38 264 OFFCURVE",
"60 240 OFFCURVE",
"89 240 CURVE SMOOTH",
"124 240 LINE",
"119 180 OFFCURVE",
"104 125 OFFCURVE",
"79 72 CURVE SMOOTH",
"76 67 OFFCURVE",
"75 61 OFFCURVE",
"75 52 CURVE SMOOTH",
"75 23 OFFCURVE",
"98 0 OFFCURVE",
"127 0 CURVE SMOOTH",
"391 0 LINE SMOOTH",
"411 0 OFFCURVE",
"427 10 OFFCURVE",
"438 31 CURVE SMOOTH",
"475 103 LINE SMOOTH",
"479 110 OFFCURVE",
"480 119 OFFCURVE",
"480 127 CURVE SMOOTH",
"480 156 OFFCURVE",
"457 179 OFFCURVE",
"428 179 CURVE SMOOTH",
"411 179 OFFCURVE",
"397 172 OFFCURVE",
"390 159 CURVE SMOOTH",
"359 104 LINE",
"202 104 LINE",
"216 146 OFFCURVE",
"225 191 OFFCURVE",
"229 240 CURVE",
"353 240 LINE SMOOTH",
"382 240 OFFCURVE",
"405 264 OFFCURVE",
"405 292 CURVE SMOOTH",
"405 321 OFFCURVE",
"383 344 OFFCURVE",
"353 344 CURVE SMOOTH",
"230 344 LINE",
"230 350 OFFCURVE",
"230 357 OFFCURVE",
"229 363 CURVE",
"353 363 LINE SMOOTH",
"383 363 OFFCURVE",
"405 385 OFFCURVE",
"405 415 CURVE SMOOTH",
"405 444 OFFCURVE",
"383 467 OFFCURVE",
"353 467 CURVE SMOOTH",
"211 467 LINE",
"205 503 OFFCURVE",
"179 544 OFFCURVE",
"179 579 CURVE SMOOTH",
"179 633 OFFCURVE",
"223 679 OFFCURVE",
"278 679 CURVE SMOOTH",
"320 679 OFFCURVE",
"343 656 OFFCURVE",
"374 622 CURVE SMOOTH",
"382 613 OFFCURVE",
"393 608 OFFCURVE",
"405 608 CURVE SMOOTH",
"435 608 OFFCURVE",
"457 631 OFFCURVE",
"457 661 CURVE SMOOTH",
"457 671 OFFCURVE",
"453 684 OFFCURVE",
"447 692 CURVE SMOOTH",
"402 751 OFFCURVE",
"348 782 OFFCURVE",
"278 782 CURVE SMOOTH",
"167 782 OFFCURVE",
"75 692 OFFCURVE",
"75 579 CURVE SMOOTH",
"75 538 OFFCURVE",
"91 504 OFFCURVE",
"104 467 CURVE"
);
}
);
width = 508;
}
);
unicode = 20A4;
},
{
glyphname = peseta;
lastChange = "2016-10-19 22:32:10 +0000";
layers = (
{
layerId = UUID0;
paths = (
{
closed = 1;
nodes = (
"227 679 LINE SMOOTH",
"303 679 OFFCURVE",
"366 609 OFFCURVE",
"366 523 CURVE SMOOTH",
"366 437 OFFCURVE",
"301 367 OFFCURVE",
"227 367 CURVE SMOOTH",
"140 367 LINE",
"140 679 LINE"
);
},
{
closed = 1;
nodes = (
"590 430 OFFCURVE",
"666 452 OFFCURVE",
"712 452 CURVE SMOOTH",
"761 452 OFFCURVE",
"802 435 OFFCURVE",
"835 401 CURVE",
"853 382 OFFCURVE",
"869 373 OFFCURVE",
"884 373 CURVE SMOOTH",
"914 373 OFFCURVE",
"937 395 OFFCURVE",
"937 425 CURVE SMOOTH",
"937 441 OFFCURVE",
"927 457 OFFCURVE",
"909 475 CURVE SMOOTH",
"855 526 OFFCURVE",
"792 555 OFFCURVE",
"717 556 CURVE",
"486 556 LINE",
"486 730 LINE SMOOTH",
"486 759 OFFCURVE",
"464 782 OFFCURVE",
"435 782 CURVE SMOOTH",
"406 782 OFFCURVE",
"382 759 OFFCURVE",
"382 730 CURVE SMOOTH",
"382 716 LINE",
"336 760 OFFCURVE",
"284 782 OFFCURVE",
"227 782 CURVE SMOOTH",
"92 782 LINE SMOOTH",
"64 782 OFFCURVE",
"43 760 OFFCURVE",
"43 730 CURVE SMOOTH",
"43 52 LINE SMOOTH",
"43 23 OFFCURVE",
"64 0 OFFCURVE",
"92 0 CURVE SMOOTH",
"119 0 OFFCURVE",
"140 23 OFFCURVE",
"140 52 CURVE SMOOTH",
"140 264 LINE",
"227 264 LINE SMOOTH",
"286 264 OFFCURVE",
"336 285 OFFCURVE",
"382 330 CURVE",
"382 203 LINE SMOOTH",
"382 67 OFFCURVE",
"450 0 OFFCURVE",
"585 0 CURVE SMOOTH",
"712 0 LINE SMOOTH",
"820 0 OFFCURVE",
"938 63 OFFCURVE",
"938 165 CURVE SMOOTH",
"938 218 OFFCURVE",
"918 259 OFFCURVE",
"835 292 CURVE",
"604 368 LINE SMOOTH",
"595 371 OFFCURVE",
"590 377 OFFCURVE",
"590 386 CURVE SMOOTH"
);
},
{
closed = 1;
nodes = (
"585 104 LINE SMOOTH",
"519 104 OFFCURVE",
"486 137 OFFCURVE",
"486 203 CURVE SMOOTH",
"486 386 LINE",
"488 335 OFFCURVE",
"511 294 OFFCURVE",
"589 265 CURVE",
"821 188 LINE",
"829 185 OFFCURVE",
"834 179 OFFCURVE",
"834 171 CURVE SMOOTH",
"834 126 OFFCURVE",
"760 104 OFFCURVE",
"712 104 CURVE SMOOTH"
);
}
);
width = 977;
}
);
unicode = 20A7;
},
{
glyphname = Euro;
lastChange = "2016-10-19 22:32:10 +0000";
layers = (
{
layerId = UUID0;
paths = (
{
closed = 1;
nodes = (
"172 517 LINE",
"225 621 OFFCURVE",
"324 677 OFFCURVE",
"430 677 CURVE SMOOTH",
"497 677 OFFCURVE",
"558 656 OFFCURVE",
"607 616 CURVE",
"617 606 OFFCURVE",
"629 602 OFFCURVE",
"643 602 CURVE SMOOTH",
"672 602 OFFCURVE",
"695 624 OFFCURVE",
"695 653 CURVE SMOOTH",
"695 668 OFFCURVE",
"690 680 OFFCURVE",
"681 689 CURVE",
"606 750 OFFCURVE",
"522 781 OFFCURVE",
"430 781 CURVE SMOOTH",
"323 781 OFFCURVE",
"231 742 OFFCURVE",
"154 666 CURVE SMOOTH",
"78 589 OFFCURVE",
"40 498 OFFCURVE",
"40 390 CURVE SMOOTH",
"40 282 OFFCURVE",
"78 190 OFFCURVE",
"154 114 CURVE SMOOTH",
"231 38 OFFCURVE",
"323 0 OFFCURVE",
"430 0 CURVE SMOOTH",
"521 0 OFFCURVE",
"603 29 OFFCURVE",
"676 87 CURVE",
"687 97 OFFCURVE",
"692 109 OFFCURVE",
"692 125 CURVE SMOOTH",
"692 152 OFFCURVE",
"668 176 OFFCURVE",
"640 176 CURVE SMOOTH",
"629 176 OFFCURVE",
"620 173 OFFCURVE",
"610 167 CURVE",
"558 125 OFFCURVE",
"498 104 OFFCURVE",
"430 104 CURVE SMOOTH",
"325 104 OFFCURVE",
"224 162 OFFCURVE",
"172 264 CURVE",
"581 264 LINE SMOOTH",
"610 264 OFFCURVE",
"632 285 OFFCURVE",
"632 315 CURVE SMOOTH",
"632 345 OFFCURVE",
"610 367 OFFCURVE",
"581 367 CURVE SMOOTH",
"144 367 LINE",
"143 375 OFFCURVE",
"143 382 OFFCURVE",
"143 390 CURVE SMOOTH",
"143 398 OFFCURVE",
"143 406 OFFCURVE",
"144 414 CURVE",
"581 414 LINE SMOOTH",
"610 414 OFFCURVE",
"632 436 OFFCURVE",
"632 466 CURVE SMOOTH",
"632 495 OFFCURVE",
"610 517 OFFCURVE",
"581 517 CURVE SMOOTH"
);
}
);
width = 723;
}
);
unicode = 20AC;
},
{
glyphname = afii61352;
lastChange = "2016-10-19 22:32:10 +0000";
layers = (
{
layerId = UUID0;
paths = (
{
closed = 1;
nodes = (
"149 577 LINE",
"584 18 LINE",
"595 6 OFFCURVE",
"608 0 OFFCURVE",
"624 0 CURVE SMOOTH",
"652 0 OFFCURVE",
"676 23 OFFCURVE",
"676 51 CURVE SMOOTH",
"676 729 LINE SMOOTH",
"676 757 OFFCURVE",
"652 780 OFFCURVE",
"624 780 CURVE SMOOTH",
"595 780 OFFCURVE",
"572 757 OFFCURVE",
"572 729 CURVE SMOOTH",
"572 202 LINE",
"138 761 LINE",
"126 774 OFFCURVE",
"112 780 OFFCURVE",
"97 780 CURVE SMOOTH",
"68 780 OFFCURVE",
"46 757 OFFCURVE",
"46 729 CURVE SMOOTH",
"46 51 LINE SMOOTH",
"46 23 OFFCURVE",
"68 0 OFFCURVE",
"97 0 CURVE SMOOTH",
"126 0 OFFCURVE",
"149 23 OFFCURVE",
"149 51 CURVE SMOOTH"
);
},
{
closed = 1;
nodes = (
"1126 688 OFFCURVE",
"1036 780 OFFCURVE",
"925 780 CURVE SMOOTH",
"813 780 OFFCURVE",
"723 688 OFFCURVE",
"723 578 CURVE SMOOTH",
"723 468 OFFCURVE",
"813 376 OFFCURVE",
"925 376 CURVE SMOOTH",
"1036 376 OFFCURVE",
"1126 468 OFFCURVE",
"1126 578 CURVE SMOOTH"
);
},
{
closed = 1;
nodes = (
"977 677 OFFCURVE",
"1023 632 OFFCURVE",
"1023 578 CURVE SMOOTH",
"1023 524 OFFCURVE",
"978 479 OFFCURVE",
"925 479 CURVE SMOOTH",
"869 479 OFFCURVE",
"826 523 OFFCURVE",
"826 578 CURVE SMOOTH",
"826 634 OFFCURVE",
"871 677 OFFCURVE",
"925 677 CURVE SMOOTH"
);
},
{
closed = 1;
nodes = (
"1075 239 LINE SMOOTH",
"1105 239 OFFCURVE",
"1126 261 OFFCURVE",
"1126 291 CURVE SMOOTH",
"1126 320 OFFCURVE",
"1105 342 OFFCURVE",
"1075 342 CURVE SMOOTH",
"774 342 LINE SMOOTH",
"745 342 OFFCURVE",
"723 320 OFFCURVE",
"723 291 CURVE SMOOTH",
"723 261 OFFCURVE",
"745 239 OFFCURVE",
"774 239 CURVE SMOOTH"
);
}
);
width = 1172;
}
);
unicode = 2116;
},
{
glyphname = partialdiff;
lastChange = "2016-10-19 22:32:10 +0000";
layers = (
{
layerId = UUID0;
paths = (
{
closed = 1;
nodes = (
"408 451 OFFCURVE",
"485 372 OFFCURVE",
"485 277 CURVE SMOOTH",
"485 183 OFFCURVE",
"408 104 OFFCURVE",
"312 104 CURVE SMOOTH",
"214 104 OFFCURVE",
"138 182 OFFCURVE",
"138 277 CURVE SMOOTH",
"138 373 OFFCURVE",
"214 451 OFFCURVE",
"312 451 CURVE SMOOTH"
);
},
{
closed = 1;
nodes = (
"589 428 LINE SMOOTH",
"589 620 OFFCURVE",
"428 781 OFFCURVE",
"236 781 CURVE SMOOTH",
"173 781 OFFCURVE",
"85 771 OFFCURVE",
"85 713 CURVE SMOOTH",
"85 684 OFFCURVE",
"108 661 OFFCURVE",
"138 661 CURVE SMOOTH",
"145 661 OFFCURVE",
"151 662 OFFCURVE",
"156 665 CURVE SMOOTH",
"178 673 OFFCURVE",
"205 677 OFFCURVE",
"236 677 CURVE SMOOTH",
"342 677 OFFCURVE",
"440 609 OFFCURVE",
"475 502 CURVE",
"428 537 OFFCURVE",
"374 555 OFFCURVE",
"312 555 CURVE SMOOTH",
"159 555 OFFCURVE",
"34 430 OFFCURVE",
"34 277 CURVE SMOOTH",
"34 125 OFFCURVE",
"159 0 OFFCURVE",
"312 0 CURVE SMOOTH",
"460 0 OFFCURVE",
"589 122 OFFCURVE",
"589 277 CURVE SMOOTH"
);
}
);
width = 625;
}
);
unicode = 2202;
},
{
glyphname = increment;
lastChange = "2016-10-19 22:32:10 +0000";
layers = (
{
layerId = UUID0;
paths = (
{
closed = 1;
nodes = (
"618 0 LINE SMOOTH",
"647 0 OFFCURVE",
"670 23 OFFCURVE",
"670 52 CURVE SMOOTH",
"670 60 OFFCURVE",
"668 68 OFFCURVE",
"665 78 CURVE SMOOTH",
"403 749 LINE SMOOTH",
"395 769 OFFCURVE",
"375 781 OFFCURVE",
"355 781 CURVE SMOOTH",
"335 781 OFFCURVE",
"316 768 OFFCURVE",
"308 749 CURVE",
"45 78 LINE SMOOTH",
"42 69 OFFCURVE",
"40 61 OFFCURVE",
"40 52 CURVE SMOOTH",
"40 23 OFFCURVE",
"63 0 OFFCURVE",
"92 0 CURVE SMOOTH"
);
},
{
closed = 1;
nodes = (
"167 104 LINE",
"355 586 LINE",
"542 104 LINE"
);
}
);
width = 703;
}
);
unicode = 2206;
},
{
glyphname = product;
lastChange = "2016-10-19 22:32:10 +0000";
layers = (
{
layerId = UUID0;
paths = (
{
closed = 1;
nodes = (
"86 782 LINE SMOOTH",
"56 782 OFFCURVE",
"34 759 OFFCURVE",
"34 729 CURVE SMOOTH",
"34 -182 LINE SMOOTH",
"34 -212 OFFCURVE",
"56 -234 OFFCURVE",
"86 -234 CURVE SMOOTH",
"115 -234 OFFCURVE",
"139 -211 OFFCURVE",
"139 -182 CURVE SMOOTH",
"139 678 LINE",
"566 678 LINE",
"566 -182 LINE SMOOTH",
"566 -212 OFFCURVE",
"588 -234 OFFCURVE",
"618 -234 CURVE SMOOTH",
"647 -234 OFFCURVE",
"670 -211 OFFCURVE",
"670 -182 CURVE SMOOTH",
"670 729 LINE SMOOTH",
"670 759 OFFCURVE",
"647 782 OFFCURVE",
"618 782 CURVE SMOOTH"
);
}
);
width = 703;
}
);
unicode = 220F;
},
{
glyphname = summation;
lastChange = "2016-10-19 22:32:10 +0000";
layers = (
{
layerId = UUID0;
paths = (
{
closed = 1;
nodes = (
"198 -129 LINE",
"507 241 LINE SMOOTH",
"515 250 OFFCURVE",
"519 262 OFFCURVE",
"519 274 CURVE SMOOTH",
"519 287 OFFCURVE",
"515 297 OFFCURVE",
"507 307 CURVE SMOOTH",
"198 678 LINE",
"619 678 LINE SMOOTH",
"648 678 OFFCURVE",
"671 700 OFFCURVE",
"671 729 CURVE SMOOTH",
"671 759 OFFCURVE",
"648 782 OFFCURVE",
"619 782 CURVE SMOOTH",
"87 782 LINE SMOOTH",
"57 782 OFFCURVE",
"35 759 OFFCURVE",
"35 729 CURVE SMOOTH",
"35 717 OFFCURVE",
"39 706 OFFCURVE",
"46 697 CURVE SMOOTH",
"399 274 LINE",
"46 -149 LINE SMOOTH",
"39 -158 OFFCURVE",
"35 -169 OFFCURVE",
"35 -181 CURVE SMOOTH",
"35 -212 OFFCURVE",
"55 -234 OFFCURVE",
"94 -234 CURVE SMOOTH",
"619 -234 LINE SMOOTH",
"648 -234 OFFCURVE",
"671 -211 OFFCURVE",
"671 -181 CURVE SMOOTH",
"671 -151 OFFCURVE",
"648 -129 OFFCURVE",
"619 -129 CURVE SMOOTH"
);
}
);
width = 703;
}
);
unicode = 2211;
},
{
glyphname = minus;
lastChange = "2016-10-19 22:32:10 +0000";
layers = (
{
layerId = UUID0;
paths = (
{
closed = 1;
nodes = (
"459 296 LINE SMOOTH",
"488 296 OFFCURVE",
"511 319 OFFCURVE",
"511 348 CURVE SMOOTH",
"511 377 OFFCURVE",
"488 398 OFFCURVE",
"459 398 CURVE SMOOTH",
"89 398 LINE SMOOTH",
"60 398 OFFCURVE",
"38 377 OFFCURVE",
"38 348 CURVE SMOOTH",
"38 318 OFFCURVE",
"60 296 OFFCURVE",
"89 296 CURVE SMOOTH"
);
}
);
width = 547;
}
);
unicode = 2212;
},
{
glyphname = radical;
lastChange = "2016-10-19 22:32:10 +0000";
layers = (
{
layerId = UUID0;
paths = (
{
closed = 1;
nodes = (
"611 843 LINE SMOOTH",
"590 843 OFFCURVE",
"574 833 OFFCURVE",
"564 813 CURVE SMOOTH",
"240 165 LINE",
"139 368 LINE SMOOTH",
"128 388 OFFCURVE",
"112 398 OFFCURVE",
"92 398 CURVE SMOOTH",
"63 398 OFFCURVE",
"41 377 OFFCURVE",
"41 348 CURVE SMOOTH",
"41 339 OFFCURVE",
"43 331 OFFCURVE",
"48 322 CURVE SMOOTH",
"195 27 LINE",
"205 10 OFFCURVE",
"220 0 OFFCURVE",
"240 0 CURVE SMOOTH",
"259 0 OFFCURVE",
"276 10 OFFCURVE",
"286 29 CURVE SMOOTH",
"643 742 LINE",
"685 742 LINE SMOOTH",
"714 742 OFFCURVE",
"736 763 OFFCURVE",
"736 792 CURVE SMOOTH",
"736 822 OFFCURVE",
"714 843 OFFCURVE",
"685 843 CURVE SMOOTH"
);
}
);
width = 781;
}
);
unicode = 221A;
},
{
glyphname = infinity;
lastChange = "2016-10-19 22:32:10 +0000";
layers = (
{
layerId = UUID0;
paths = (
{
closed = 1;
nodes = (
"292 445 OFFCURVE",
"337 400 OFFCURVE",
"337 348 CURVE SMOOTH",
"337 294 OFFCURVE",
"293 250 OFFCURVE",
"240 250 CURVE SMOOTH",
"185 250 OFFCURVE",
"143 294 OFFCURVE",
"143 348 CURVE SMOOTH",
"143 400 OFFCURVE",
"186 445 OFFCURVE",
"240 445 CURVE SMOOTH"
);
},
{
closed = 1;
nodes = (
"590 445 OFFCURVE",
"634 400 OFFCURVE",
"634 348 CURVE SMOOTH",
"634 295 OFFCURVE",
"591 250 OFFCURVE",
"537 250 CURVE SMOOTH",
"482 250 OFFCURVE",
"439 293 OFFCURVE",
"439 348 CURVE SMOOTH",
"439 400 OFFCURVE",
"484 445 OFFCURVE",
"537 445 CURVE SMOOTH"
);
},
{
closed = 1;
nodes = (
"431 170 OFFCURVE",
"480 148 OFFCURVE",
"537 148 CURVE SMOOTH",
"645 148 OFFCURVE",
"736 238 OFFCURVE",
"736 348 CURVE SMOOTH",
"736 457 OFFCURVE",
"646 547 OFFCURVE",
"537 547 CURVE SMOOTH",
"479 547 OFFCURVE",
"430 525 OFFCURVE",
"389 481 CURVE",
"350 525 OFFCURVE",
"297 547 OFFCURVE",
"240 547 CURVE SMOOTH",
"132 547 OFFCURVE",
"41 458 OFFCURVE",
"41 348 CURVE SMOOTH",
"41 238 OFFCURVE",
"130 148 OFFCURVE",
"240 148 CURVE SMOOTH",
"297 148 OFFCURVE",
"347 170 OFFCURVE",
"389 214 CURVE"
);
}
);
width = 781;
}
);
unicode = 221E;
},
{
glyphname = integral;
lastChange = "2016-10-19 22:32:10 +0000";
layers = (
{
layerId = UUID0;
paths = (
{
closed = 1;
nodes = (
"486 709 OFFCURVE",
"509 730 OFFCURVE",
"509 766 CURVE SMOOTH",
"509 814 OFFCURVE",
"455 874 OFFCURVE",
"384 876 CURVE",
"323 876 OFFCURVE",
"268 828 OFFCURVE",
"260 765 CURVE",
"186 21 LINE",
"186 9 OFFCURVE",
"175 1 OFFCURVE",
"163 1 CURVE SMOOTH",
"130 1 OFFCURVE",
"147 65 OFFCURVE",
"90 65 CURVE SMOOTH",
"61 65 OFFCURVE",
"39 44 OFFCURVE",
"39 8 CURVE SMOOTH",
"39 -52 OFFCURVE",
"107 -102 OFFCURVE",
"164 -102 CURVE SMOOTH",
"226 -102 OFFCURVE",
"282 -51 OFFCURVE",
"288 10 CURVE SMOOTH",
"361 753 LINE",
"363 764 OFFCURVE",
"373 773 OFFCURVE",
"384 773 CURVE SMOOTH",
"418 773 OFFCURVE",
"397 709 OFFCURVE",
"458 709 CURVE SMOOTH"
);
}
);
width = 547;
}
);
unicode = 222B;
},
{
glyphname = uniF001;
lastChange = "2016-10-19 22:32:10 +0000";
layers = (
{
layerId = UUID0;
paths = (
{
closed = 1;
nodes = (
"409 51 LINE SMOOTH",
"409 23 OFFCURVE",
"431 0 OFFCURVE",
"460 0 CURVE SMOOTH",
"489 0 OFFCURVE",
"511 23 OFFCURVE",
"511 51 CURVE SMOOTH",
"511 496 LINE SMOOTH",
"511 524 OFFCURVE",
"489 547 OFFCURVE",
"460 547 CURVE SMOOTH",
"431 547 OFFCURVE",
"409 524 OFFCURVE",
"409 496 CURVE SMOOTH"
);
},
{
closed = 1;
nodes = (
"376 667 OFFCURVE",
"399 660 OFFCURVE",
"399 644 CURVE SMOOTH",
"399 611 OFFCURVE",
"426 584 OFFCURVE",
"460 584 CURVE SMOOTH",
"493 584 OFFCURVE",
"520 611 OFFCURVE",
"520 644 CURVE SMOOTH",
"520 728 OFFCURVE",
"457 770 OFFCURVE",
"330 770 CURVE SMOOTH",
"185 770 OFFCURVE",
"112 691 OFFCURVE",
"112 533 CURVE SMOOTH",
"112 519 LINE",
"89 519 LINE SMOOTH",
"60 519 OFFCURVE",
"38 498 OFFCURVE",
"38 468 CURVE SMOOTH",
"38 439 OFFCURVE",
"60 417 OFFCURVE",
"89 417 CURVE SMOOTH",
"112 417 LINE",
"112 51 LINE SMOOTH",
"112 23 OFFCURVE",
"134 0 OFFCURVE",
"163 0 CURVE SMOOTH",
"191 0 OFFCURVE",
"214 23 OFFCURVE",
"214 51 CURVE SMOOTH",
"214 417 LINE",
"312 417 LINE SMOOTH",
"341 417 OFFCURVE",
"363 439 OFFCURVE",
"363 468 CURVE SMOOTH",
"363 498 OFFCURVE",
"341 519 OFFCURVE",
"312 519 CURVE SMOOTH",
"214 519 LINE",
"214 533 LINE SMOOTH",
"214 623 OFFCURVE",
"253 667 OFFCURVE",
"330 667 CURVE SMOOTH"
);
}
);
width = 547;
}
);
unicode = F001;
},
{
glyphname = uniF002;
lastChange = "2016-10-19 22:32:10 +0000";
layers = (
{
layerId = UUID0;
paths = (
{
closed = 1;
nodes = (
"372 51 LINE SMOOTH",
"372 23 OFFCURVE",
"395 0 OFFCURVE",
"423 0 CURVE SMOOTH",
"497 0 LINE SMOOTH",
"525 0 OFFCURVE",
"548 23 OFFCURVE",
"548 51 CURVE SMOOTH",
"548 79 OFFCURVE",
"525 102 OFFCURVE",
"497 102 CURVE SMOOTH",
"474 102 LINE",
"474 644 LINE SMOOTH",
"474 728 OFFCURVE",
"433 770 OFFCURVE",
"349 770 CURVE SMOOTH",
"191 770 OFFCURVE",
"113 691 OFFCURVE",
"113 533 CURVE SMOOTH",
"113 519 LINE",
"89 519 LINE SMOOTH",
"60 519 OFFCURVE",
"39 498 OFFCURVE",
"39 468 CURVE SMOOTH",
"39 439 OFFCURVE",
"60 417 OFFCURVE",
"89 417 CURVE SMOOTH",
"113 417 LINE",
"113 51 LINE SMOOTH",
"113 23 OFFCURVE",
"135 0 OFFCURVE",
"164 0 CURVE SMOOTH",
"192 0 OFFCURVE",
"214 23 OFFCURVE",
"214 51 CURVE SMOOTH",
"214 417 LINE",
"313 417 LINE SMOOTH",
"342 417 OFFCURVE",
"363 439 OFFCURVE",
"363 468 CURVE SMOOTH",
"363 498 OFFCURVE",
"342 519 OFFCURVE",
"313 519 CURVE SMOOTH",
"214 519 LINE",
"214 533 LINE SMOOTH",
"214 623 OFFCURVE",
"259 667 OFFCURVE",
"349 667 CURVE SMOOTH",
"364 667 OFFCURVE",
"372 660 OFFCURVE",
"372 644 CURVE SMOOTH"
);
}
);
width = 586;
}
);
unicode = F002;
},
{
glyphname = dslash;
lastChange = "2016-10-19 22:32:10 +0000";
layers = (
{
layerId = UUID0;
paths = (
{
closed = 1;
nodes = (
"485 180 OFFCURVE",
"409 102 OFFCURVE",
"313 102 CURVE SMOOTH",
"218 102 OFFCURVE",
"142 180 OFFCURVE",
"142 273 CURVE SMOOTH",
"142 367 OFFCURVE",
"218 445 OFFCURVE",
"313 445 CURVE SMOOTH",
"409 445 OFFCURVE",
"485 367 OFFCURVE",
"485 273 CURVE SMOOTH"
);
},
{
closed = 1;
nodes = (
"351 707 LINE SMOOTH",
"322 707 OFFCURVE",
"299 684 OFFCURVE",
"299 655 CURVE SMOOTH",
"299 626 OFFCURVE",
"321 604 OFFCURVE",
"351 604 CURVE SMOOTH",
"485 604 LINE",
"485 487 LINE",
"436 527 OFFCURVE",
"378 547 OFFCURVE",
"313 547 CURVE SMOOTH",
"164 547 OFFCURVE",
"40 423 OFFCURVE",
"40 273 CURVE SMOOTH",
"40 124 OFFCURVE",
"164 0 OFFCURVE",
"313 0 CURVE SMOOTH",
"460 0 OFFCURVE",
"587 121 OFFCURVE",
"587 273 CURVE SMOOTH",
"587 604 LINE",
"610 604 LINE SMOOTH",
"639 604 OFFCURVE",
"661 626 OFFCURVE",
"661 655 CURVE SMOOTH",
"661 684 OFFCURVE",
"638 707 OFFCURVE",
"610 707 CURVE SMOOTH",
"587 707 LINE",
"587 730 LINE SMOOTH",
"587 760 OFFCURVE",
"564 781 OFFCURVE",
"536 781 CURVE SMOOTH",
"506 781 OFFCURVE",
"485 760 OFFCURVE",
"485 730 CURVE SMOOTH",
"485 707 LINE"
);
}
);
width = 703;
}
);
unicode = 0111;
},
{
glyphname = Hbar;
lastChange = "2016-10-19 22:32:10 +0000";
layers = (
{
layerId = UUID0;
paths = (
{
closed = 1;
nodes = (
"90 649 LINE SMOOTH",
"61 649 OFFCURVE",
"39 627 OFFCURVE",
"39 598 CURVE SMOOTH",
"39 568 OFFCURVE",
"61 546 OFFCURVE",
"90 546 CURVE SMOOTH",
"114 546 LINE",
"114 52 LINE SMOOTH",
"114 22 OFFCURVE",
"136 0 OFFCURVE",
"166 0 CURVE SMOOTH",
"195 0 OFFCURVE",
"217 22 OFFCURVE",
"217 52 CURVE SMOOTH",
"217 339 LINE",
"565 339 LINE",
"565 52 LINE SMOOTH",
"565 22 OFFCURVE",
"588 0 OFFCURVE",
"617 0 CURVE SMOOTH",
"646 0 OFFCURVE",
"669 22 OFFCURVE",
"669 52 CURVE SMOOTH",
"669 546 LINE",
"692 546 LINE SMOOTH",
"722 546 OFFCURVE",
"744 568 OFFCURVE",
"744 598 CURVE SMOOTH",
"744 627 OFFCURVE",
"722 649 OFFCURVE",
"692 649 CURVE SMOOTH",
"669 649 LINE",
"669 729 LINE SMOOTH",
"669 759 OFFCURVE",
"646 781 OFFCURVE",
"617 781 CURVE SMOOTH",
"588 781 OFFCURVE",
"565 759 OFFCURVE",
"565 729 CURVE SMOOTH",
"565 649 LINE",
"217 649 LINE",
"217 729 LINE SMOOTH",
"217 759 OFFCURVE",
"195 781 OFFCURVE",
"166 781 CURVE SMOOTH",
"136 781 OFFCURVE",
"114 759 OFFCURVE",
"114 729 CURVE SMOOTH",
"114 649 LINE"
);
},
{
closed = 1;
nodes = (
"565 546 LINE",
"565 442 LINE",
"217 442 LINE",
"217 546 LINE"
);
}
);
width = 781;
}
);
unicode = 0126;
},
{
glyphname = hbar;
lastChange = "2016-10-19 22:32:10 +0000";
layers = (
{
layerId = UUID0;
paths = (
{
closed = 1;
nodes = (
"71 707 LINE SMOOTH",
"42 707 OFFCURVE",
"21 685 OFFCURVE",
"21 656 CURVE SMOOTH",
"21 626 OFFCURVE",
"42 605 OFFCURVE",
"71 605 CURVE SMOOTH",
"95 605 LINE",
"95 51 LINE SMOOTH",
"95 23 OFFCURVE",
"117 0 OFFCURVE",
"146 0 CURVE SMOOTH",
"174 0 OFFCURVE",
"196 23 OFFCURVE",
"196 51 CURVE SMOOTH",
"196 292 LINE SMOOTH",
"196 375 OFFCURVE",
"266 445 OFFCURVE",
"350 445 CURVE SMOOTH",
"433 445 OFFCURVE",
"502 375 OFFCURVE",
"502 292 CURVE SMOOTH",
"502 51 LINE SMOOTH",
"502 23 OFFCURVE",
"524 0 OFFCURVE",
"553 0 CURVE SMOOTH",
"582 0 OFFCURVE",
"604 23 OFFCURVE",
"604 51 CURVE SMOOTH",
"604 292 LINE SMOOTH",
"604 433 OFFCURVE",
"487 547 OFFCURVE",
"350 547 CURVE SMOOTH",
"292 547 OFFCURVE",
"241 530 OFFCURVE",
"196 497 CURVE",
"196 605 LINE",
"331 605 LINE SMOOTH",
"360 605 OFFCURVE",
"382 626 OFFCURVE",
"382 656 CURVE SMOOTH",
"382 685 OFFCURVE",
"360 707 OFFCURVE",
"331 707 CURVE SMOOTH",
"196 707 LINE",
"196 730 LINE SMOOTH",
"196 759 OFFCURVE",
"175 781 OFFCURVE",
"146 781 CURVE SMOOTH",
"116 781 OFFCURVE",
"95 759 OFFCURVE",
"95 730 CURVE SMOOTH",
"95 707 LINE"
);
}
);
width = 645;
}
);
unicode = 0127;
},
{
glyphname = jcircumflex;
lastChange = "2016-10-19 22:32:10 +0000";
layers = (
{
layerId = UUID0;
paths = (
{
closed = 1;
nodes = (
"184 14 LINE SMOOTH",
"184 -61 OFFCURVE",
"124 -121 OFFCURVE",
"50 -121 CURVE SMOOTH",
"21 -121 OFFCURVE",
"-1 -142 OFFCURVE",
"-1 -171 CURVE SMOOTH",
"-1 -201 OFFCURVE",
"21 -223 OFFCURVE",
"50 -223 CURVE SMOOTH",
"179 -223 OFFCURVE",
"286 -115 OFFCURVE",
"286 14 CURVE SMOOTH",
"286 496 LINE SMOOTH",
"286 524 OFFCURVE",
"264 547 OFFCURVE",
"235 547 CURVE SMOOTH",
"207 547 OFFCURVE",
"184 524 OFFCURVE",
"184 496 CURVE SMOOTH"
);
},
{
closed = 1;
nodes = (
"260 773 LINE SMOOTH",
"251 779 OFFCURVE",
"243 781 OFFCURVE",
"233 781 CURVE SMOOTH",
"224 781 OFFCURVE",
"215 779 OFFCURVE",
"207 773 CURVE SMOOTH",
"95 700 LINE",
"79 688 OFFCURVE",
"71 673 OFFCURVE",
"71 656 CURVE SMOOTH",
"71 626 OFFCURVE",
"93 605 OFFCURVE",
"122 605 CURVE SMOOTH",
"134 605 OFFCURVE",
"145 608 OFFCURVE",
"154 616 CURVE",
"233 668 LINE",
"313 616 LINE SMOOTH",
"323 608 OFFCURVE",
"332 605 OFFCURVE",
"345 605 CURVE SMOOTH",
"374 605 OFFCURVE",
"396 626 OFFCURVE",
"396 656 CURVE SMOOTH",
"396 673 OFFCURVE",
"387 688 OFFCURVE",
"371 700 CURVE"
);
}
);
width = 371;
}
);
unicode = 0135;
},
{
glyphname = kgreenlandic;
lastChange = "2016-10-19 22:32:10 +0000";
layers = (
{
layerId = UUID0;
paths = (
{
closed = 1;
nodes = (
"140 496 LINE SMOOTH",
"140 525 OFFCURVE",
"118 546 OFFCURVE",
"89 546 CURVE SMOOTH",
"60 546 OFFCURVE",
"38 525 OFFCURVE",
"38 496 CURVE SMOOTH",
"38 51 LINE SMOOTH",
"38 23 OFFCURVE",
"60 0 OFFCURVE",
"89 0 CURVE SMOOTH",
"117 0 OFFCURVE",
"140 23 OFFCURVE",
"140 51 CURVE SMOOTH",
"140 228 LINE",
"200 267 LINE",
"425 13 LINE",
"435 4 OFFCURVE",
"446 0 OFFCURVE",
"459 0 CURVE SMOOTH",
"488 0 OFFCURVE",
"511 23 OFFCURVE",
"511 51 CURVE SMOOTH",
"511 64 OFFCURVE",
"506 76 OFFCURVE",
"497 86 CURVE SMOOTH",
"287 323 LINE",
"490 455 LINE SMOOTH",
"504 464 OFFCURVE",
"511 478 OFFCURVE",
"511 496 CURVE SMOOTH",
"511 524 OFFCURVE",
"488 547 OFFCURVE",
"459 547 CURVE SMOOTH",
"449 547 OFFCURVE",
"440 544 OFFCURVE",
"432 539 CURVE SMOOTH",
"140 349 LINE"
);
}
);
width = 547;
}
);
unicode = 0138;
},
{
glyphname = Lslash;
lastChange = "2016-10-19 22:32:10 +0000";
layers = (
{
layerId = UUID0;
paths = (
{
closed = 1;
nodes = (
"26 328 LINE SMOOTH",
"16 318 OFFCURVE",
"11 306 OFFCURVE",
"11 292 CURVE SMOOTH",
"11 262 OFFCURVE",
"35 240 OFFCURVE",
"65 240 CURVE SMOOTH",
"79 240 OFFCURVE",
"90 245 OFFCURVE",
"100 255 CURVE SMOOTH",
"112 268 LINE",
"112 52 LINE SMOOTH",
"112 22 OFFCURVE",
"135 0 OFFCURVE",
"164 0 CURVE SMOOTH",
"578 0 LINE SMOOTH",
"607 0 OFFCURVE",
"630 22 OFFCURVE",
"630 52 CURVE SMOOTH",
"630 81 OFFCURVE",
"607 104 OFFCURVE",
"578 104 CURVE SMOOTH",
"216 104 LINE",
"216 371 LINE",
"314 467 LINE SMOOTH",
"324 477 OFFCURVE",
"329 489 OFFCURVE",
"329 503 CURVE SMOOTH",
"329 530 OFFCURVE",
"306 556 OFFCURVE",
"277 556 CURVE SMOOTH",
"263 556 OFFCURVE",
"250 551 OFFCURVE",
"240 541 CURVE SMOOTH",
"216 516 LINE",
"216 729 LINE SMOOTH",
"216 759 OFFCURVE",
"193 781 OFFCURVE",
"164 781 CURVE SMOOTH",
"135 781 OFFCURVE",
"112 759 OFFCURVE",
"112 729 CURVE SMOOTH",
"112 414 LINE"
);
}
);
width = 664;
}
);
unicode = 0141;
},
{
glyphname = lslash;
lastChange = "2016-10-19 22:32:10 +0000";
layers = (
{
layerId = UUID0;
paths = (
{
closed = 1;
nodes = (
"24 323 LINE SMOOTH",
"15 313 OFFCURVE",
"10 301 OFFCURVE",
"10 287 CURVE SMOOTH",
"10 258 OFFCURVE",
"34 236 OFFCURVE",
"61 236 CURVE SMOOTH",
"75 236 OFFCURVE",
"86 240 OFFCURVE",
"97 251 CURVE SMOOTH",
"109 264 LINE",
"109 51 LINE SMOOTH",
"109 23 OFFCURVE",
"131 0 OFFCURVE",
"160 0 CURVE SMOOTH",
"234 0 LINE SMOOTH",
"263 0 OFFCURVE",
"285 23 OFFCURVE",
"285 51 CURVE SMOOTH",
"285 80 OFFCURVE",
"264 102 OFFCURVE",
"234 102 CURVE SMOOTH",
"211 102 LINE",
"211 365 LINE",
"308 460 LINE SMOOTH",
"317 470 OFFCURVE",
"322 482 OFFCURVE",
"322 496 CURVE SMOOTH",
"322 524 OFFCURVE",
"299 547 OFFCURVE",
"271 547 CURVE SMOOTH",
"257 547 OFFCURVE",
"246 542 OFFCURVE",
"235 532 CURVE SMOOTH",
"211 508 LINE",
"211 718 LINE SMOOTH",
"211 747 OFFCURVE",
"188 770 OFFCURVE",
"160 770 CURVE SMOOTH",
"131 770 OFFCURVE",
"109 747 OFFCURVE",
"109 718 CURVE SMOOTH",
"109 407 LINE"
);
}
);
width = 352;
}
);
unicode = 0142;
},
{
glyphname = Eng;
lastChange = "2016-10-19 22:32:10 +0000";
layers = (
{
layerId = UUID0;
paths = (
{
closed = 1;
nodes = (
"141 466 LINE SMOOTH",
"141 582 OFFCURVE",
"235 678 OFFCURVE",
"353 678 CURVE SMOOTH",
"470 678 OFFCURVE",
"565 582 OFFCURVE",
"565 466 CURVE SMOOTH",
"565 240 LINE SMOOTH",
"565 166 OFFCURVE",
"504 104 OFFCURVE",
"428 104 CURVE SMOOTH",
"389 104 OFFCURVE",
"359 117 OFFCURVE",
"332 144 CURVE SMOOTH",
"321 154 OFFCURVE",
"309 159 OFFCURVE",
"295 159 CURVE SMOOTH",
"267 159 OFFCURVE",
"243 136 OFFCURVE",
"243 107 CURVE SMOOTH",
"243 92 OFFCURVE",
"249 81 OFFCURVE",
"259 71 CURVE SMOOTH",
"306 23 OFFCURVE",
"361 0 OFFCURVE",
"428 0 CURVE SMOOTH",
"561 0 OFFCURVE",
"668 109 OFFCURVE",
"668 240 CURVE SMOOTH",
"668 466 LINE SMOOTH",
"668 638 OFFCURVE",
"525 781 OFFCURVE",
"353 781 CURVE SMOOTH",
"271 781 OFFCURVE",
"201 754 OFFCURVE",
"141 699 CURVE",
"141 729 LINE SMOOTH",
"141 759 OFFCURVE",
"119 781 OFFCURVE",
"89 781 CURVE SMOOTH",
"60 781 OFFCURVE",
"38 759 OFFCURVE",
"38 729 CURVE SMOOTH",
"38 52 LINE SMOOTH",
"38 22 OFFCURVE",
"60 0 OFFCURVE",
"89 0 CURVE SMOOTH",
"119 0 OFFCURVE",
"141 22 OFFCURVE",
"141 52 CURVE SMOOTH"
);
}
);
width = 703;
}
);
unicode = 014A;
},
{
glyphname = eng;
lastChange = "2016-10-19 22:32:10 +0000";
layers = (
{
layerId = UUID0;
paths = (
{
closed = 1;
nodes = (
"446 -72 LINE SMOOTH",
"446 -106 OFFCURVE",
"418 -132 OFFCURVE",
"386 -132 CURVE SMOOTH",
"371 -132 OFFCURVE",
"354 -122 OFFCURVE",
"339 -122 CURVE SMOOTH",
"310 -122 OFFCURVE",
"288 -145 OFFCURVE",
"288 -173 CURVE SMOOTH",
"288 -219 OFFCURVE",
"342 -234 OFFCURVE",
"386 -234 CURVE SMOOTH",
"475 -234 OFFCURVE",
"548 -160 OFFCURVE",
"548 -72 CURVE SMOOTH",
"548 292 LINE SMOOTH",
"548 433 OFFCURVE",
"430 547 OFFCURVE",
"293 547 CURVE SMOOTH",
"235 547 OFFCURVE",
"184 530 OFFCURVE",
"141 497 CURVE",
"141 524 OFFCURVE",
"117 547 OFFCURVE",
"89 547 CURVE SMOOTH",
"61 547 OFFCURVE",
"39 524 OFFCURVE",
"39 496 CURVE SMOOTH",
"39 51 LINE SMOOTH",
"39 23 OFFCURVE",
"61 0 OFFCURVE",
"89 0 CURVE SMOOTH",
"118 0 OFFCURVE",
"141 23 OFFCURVE",
"141 51 CURVE SMOOTH",
"141 292 LINE SMOOTH",
"141 376 OFFCURVE",
"209 445 OFFCURVE",
"293 445 CURVE SMOOTH",
"377 445 OFFCURVE",
"446 375 OFFCURVE",
"446 292 CURVE SMOOTH"
);
}
);
width = 586;
}
);
unicode = 014B;
},
{
glyphname = OE;
lastChange = "2016-10-19 22:32:10 +0000";
layers = (
{
layerId = UUID0;
paths = (
{
closed = 1;
nodes = (
"455 678 LINE",
"455 104 LINE",
"432 104 LINE SMOOTH",
"274 104 OFFCURVE",
"145 231 OFFCURVE",
"145 391 CURVE SMOOTH",
"145 549 OFFCURVE",
"274 678 OFFCURVE",
"432 678 CURVE SMOOTH"
);
},
{
closed = 1;
nodes = (
"958 0 LINE SMOOTH",
"988 0 OFFCURVE",
"1010 22 OFFCURVE",
"1010 52 CURVE SMOOTH",
"1010 81 OFFCURVE",
"988 104 OFFCURVE",
"958 104 CURVE SMOOTH",
"559 104 LINE",
"559 338 LINE",
"846 338 LINE SMOOTH",
"875 338 OFFCURVE",
"898 361 OFFCURVE",
"898 391 CURVE SMOOTH",
"898 420 OFFCURVE",
"875 442 OFFCURVE",
"846 442 CURVE SMOOTH",
"559 442 LINE",
"559 678 LINE",
"959 678 LINE SMOOTH",
"988 678 OFFCURVE",
"1011 700 OFFCURVE",
"1011 729 CURVE SMOOTH",
"1011 759 OFFCURVE",
"988 781 OFFCURVE",
"959 781 CURVE SMOOTH",
"432 781 LINE SMOOTH",
"324 781 OFFCURVE",
"232 743 OFFCURVE",
"155 667 CURVE SMOOTH",
"79 590 OFFCURVE",
"41 499 OFFCURVE",
"41 391 CURVE SMOOTH",
"41 283 OFFCURVE",
"79 190 OFFCURVE",
"155 114 CURVE SMOOTH",
"231 38 OFFCURVE",
"324 0 OFFCURVE",
"432 0 CURVE SMOOTH"
);
}
);
width = 1055;
}
);
unicode = 0152;
},
{
glyphname = oe;
lastChange = "2016-10-19 22:32:10 +0000";
layers = (
{
layerId = UUID0;
paths = (
{
closed = 1;
nodes = (
"414 445 OFFCURVE",
"490 369 OFFCURVE",
"490 273 CURVE SMOOTH",
"490 178 OFFCURVE",
"414 102 OFFCURVE",
"318 102 CURVE SMOOTH",
"223 102 OFFCURVE",
"147 178 OFFCURVE",
"147 273 CURVE SMOOTH",
"147 369 OFFCURVE",
"223 445 OFFCURVE",
"318 445 CURVE SMOOTH"
);
},
{
closed = 1;
nodes = (
"599 324 LINE",
"620 396 OFFCURVE",
"690 445 OFFCURVE",
"763 445 CURVE SMOOTH",
"837 445 OFFCURVE",
"905 396 OFFCURVE",
"928 324 CURVE"
);
},
{
closed = 1;
nodes = (
"623 27 OFFCURVE",
"688 0 OFFCURVE",
"763 0 CURVE SMOOTH",
"832 0 OFFCURVE",
"892 22 OFFCURVE",
"942 66 CURVE SMOOTH",
"952 75 OFFCURVE",
"957 88 OFFCURVE",
"957 103 CURVE SMOOTH",
"957 132 OFFCURVE",
"935 154 OFFCURVE",
"906 154 CURVE SMOOTH",
"894 154 OFFCURVE",
"882 149 OFFCURVE",
"872 141 CURVE SMOOTH",
"841 115 OFFCURVE",
"805 102 OFFCURVE",
"763 102 CURVE SMOOTH",
"689 102 OFFCURVE",
"622 149 OFFCURVE",
"599 223 CURVE",
"986 223 LINE SMOOTH",
"1015 223 OFFCURVE",
"1037 244 OFFCURVE",
"1037 273 CURVE SMOOTH",
"1037 423 OFFCURVE",
"913 547 OFFCURVE",
"763 547 CURVE SMOOTH",
"671 547 OFFCURVE",
"604 509 OFFCURVE",
"541 433 CURVE",
"480 509 OFFCURVE",
"410 547 OFFCURVE",
"318 547 CURVE SMOOTH",
"168 547 OFFCURVE",
"45 423 OFFCURVE",
"45 273 CURVE SMOOTH",
"45 124 OFFCURVE",
"168 0 OFFCURVE",
"318 0 CURVE SMOOTH",
"410 0 OFFCURVE",
"480 38 OFFCURVE",
"541 114 CURVE",
"550 102 OFFCURVE",
"560 90 OFFCURVE",
"570 80 CURVE SMOOTH"
);
}
);
width = 1094;
}
);
unicode = 0153;
},
{
glyphname = Tbar;
lastChange = "2016-10-19 22:32:10 +0000";
layers = (
{
layerId = UUID0;
paths = (
{
closed = 1;
nodes = (
"146 405 LINE SMOOTH",
"116 405 OFFCURVE",
"94 382 OFFCURVE",
"94 353 CURVE SMOOTH",
"94 324 OFFCURVE",
"116 301 OFFCURVE",
"146 301 CURVE SMOOTH",
"282 301 LINE",
"282 52 LINE SMOOTH",
"282 22 OFFCURVE",
"305 0 OFFCURVE",
"334 0 CURVE SMOOTH",
"363 0 OFFCURVE",
"386 22 OFFCURVE",
"386 52 CURVE SMOOTH",
"386 301 LINE",
"522 301 LINE SMOOTH",
"551 301 OFFCURVE",
"574 324 OFFCURVE",
"574 353 CURVE SMOOTH",
"574 382 OFFCURVE",
"551 405 OFFCURVE",
"522 405 CURVE SMOOTH",
"386 405 LINE",
"386 678 LINE",
"579 678 LINE SMOOTH",
"608 678 OFFCURVE",
"630 700 OFFCURVE",
"630 729 CURVE SMOOTH",
"630 759 OFFCURVE",
"608 781 OFFCURVE",
"579 781 CURVE SMOOTH",
"89 781 LINE SMOOTH",
"61 781 OFFCURVE",
"37 758 OFFCURVE",
"37 729 CURVE SMOOTH",
"37 701 OFFCURVE",
"61 678 OFFCURVE",
"89 678 CURVE SMOOTH",
"282 678 LINE",
"282 405 LINE"
);
}
);
width = 664;
}
);
unicode = 0166;
},
{
glyphname = tbar;
lastChange = "2016-10-19 22:32:10 +0000";
layers = (
{
layerId = UUID0;
paths = (
{
closed = 1;
nodes = (
"272 260 LINE SMOOTH",
"302 260 OFFCURVE",
"323 281 OFFCURVE",
"323 311 CURVE SMOOTH",
"323 340 OFFCURVE",
"302 361 OFFCURVE",
"272 361 CURVE SMOOTH",
"212 361 LINE",
"212 445 LINE",
"273 445 LINE SMOOTH",
"302 445 OFFCURVE",
"324 467 OFFCURVE",
"324 496 CURVE SMOOTH",
"324 524 OFFCURVE",
"302 547 OFFCURVE",
"273 547 CURVE SMOOTH",
"212 547 LINE",
"212 718 LINE SMOOTH",
"212 747 OFFCURVE",
"190 770 OFFCURVE",
"161 770 CURVE SMOOTH",
"132 770 OFFCURVE",
"110 747 OFFCURVE",
"110 718 CURVE SMOOTH",
"110 547 LINE",
"87 547 LINE SMOOTH",
"58 547 OFFCURVE",
"36 524 OFFCURVE",
"36 496 CURVE SMOOTH",
"36 467 OFFCURVE",
"58 445 OFFCURVE",
"87 445 CURVE SMOOTH",
"110 445 LINE",
"110 361 LINE",
"86 361 LINE SMOOTH",
"57 361 OFFCURVE",
"36 340 OFFCURVE",
"36 311 CURVE SMOOTH",
"36 281 OFFCURVE",
"57 260 OFFCURVE",
"86 260 CURVE SMOOTH",
"110 260 LINE",
"110 199 LINE SMOOTH",
"110 66 OFFCURVE",
"176 0 OFFCURVE",
"310 0 CURVE SMOOTH",
"337 0 OFFCURVE",
"360 23 OFFCURVE",
"360 51 CURVE SMOOTH",
"360 79 OFFCURVE",
"337 102 OFFCURVE",
"310 102 CURVE SMOOTH",
"245 102 OFFCURVE",
"212 134 OFFCURVE",
"212 199 CURVE SMOOTH",
"212 260 LINE"
);
}
);
width = 391;
}
);
unicode = 0167;
},
{
glyphname = longs;
lastChange = "2016-10-19 22:32:10 +0000";
layers = (
{
layerId = UUID0;
paths = (
{
closed = 1;
nodes = (
"104 781 OFFCURVE",
"26 702 OFFCURVE",
"26 544 CURVE SMOOTH",
"26 51 LINE SMOOTH",
"26 23 OFFCURVE",
"48 0 OFFCURVE",
"77 0 CURVE SMOOTH",
"105 0 OFFCURVE",
"127 23 OFFCURVE",
"127 51 CURVE SMOOTH",
"127 544 LINE SMOOTH",
"127 634 OFFCURVE",
"172 679 OFFCURVE",
"262 679 CURVE SMOOTH",
"292 679 OFFCURVE",
"313 700 OFFCURVE",
"313 729 CURVE SMOOTH",
"313 758 OFFCURVE",
"292 781 OFFCURVE",
"262 781 CURVE SMOOTH"
);
}
);
width = 313;
}
);
unicode = 017F;
},
{
glyphname = florin;
lastChange = "2016-10-19 22:32:10 +0000";
layers = (
{
layerId = UUID0;
paths = (
{
closed = 1;
nodes = (
"186 2 LINE",
"185 -87 OFFCURVE",
"140 -132 OFFCURVE",
"51 -132 CURVE SMOOTH",
"21 -132 OFFCURVE",
"0 -153 OFFCURVE",
"0 -183 CURVE SMOOTH",
"0 -212 OFFCURVE",
"21 -234 OFFCURVE",
"51 -234 CURVE SMOOTH",
"208 -234 OFFCURVE",
"287 -155 OFFCURVE",
"287 2 CURVE SMOOTH",
"287 417 LINE",
"385 417 LINE SMOOTH",
"413 417 OFFCURVE",
"436 439 OFFCURVE",
"436 468 CURVE SMOOTH",
"436 498 OFFCURVE",
"414 519 OFFCURVE",
"385 519 CURVE SMOOTH",
"287 519 LINE",
"287 544 LINE SMOOTH",
"287 634 OFFCURVE",
"332 679 OFFCURVE",
"421 679 CURVE SMOOTH",
"450 679 OFFCURVE",
"473 700 OFFCURVE",
"473 729 CURVE SMOOTH",
"473 758 OFFCURVE",
"450 781 OFFCURVE",
"421 781 CURVE SMOOTH",
"264 781 OFFCURVE",
"185 702 OFFCURVE",
"185 544 CURVE SMOOTH",
"185 519 LINE",
"162 519 LINE SMOOTH",
"133 519 OFFCURVE",
"111 498 OFFCURVE",
"111 468 CURVE SMOOTH",
"111 439 OFFCURVE",
"133 417 OFFCURVE",
"162 417 CURVE SMOOTH",
"186 417 LINE"
);
}
);
width = 469;
}
);
unicode = 0192;
},
{
glyphname = Aringacute;
lastChange = "2016-10-19 22:32:10 +0000";
layers = (
{
layerId = UUID0;
paths = (
{
closed = 1;
nodes = (
"270 370 LINE",
"355 591 LINE",
"441 370 LINE"
);
},
{
closed = 1;
nodes = (
"373 854 OFFCURVE",
"388 839 OFFCURVE",
"388 821 CURVE SMOOTH",
"388 803 OFFCURVE",
"373 788 OFFCURVE",
"355 788 CURVE SMOOTH",
"335 788 OFFCURVE",
"321 803 OFFCURVE",
"321 821 CURVE SMOOTH",
"321 839 OFFCURVE",
"335 854 OFFCURVE",
"355 854 CURVE SMOOTH"
);
},
{
closed = 1;
nodes = (
"415 728 LINE",
"448 750 OFFCURVE",
"464 784 OFFCURVE",
"464 821 CURVE SMOOTH",
"464 865 OFFCURVE",
"437 909 OFFCURVE",
"392 925 CURVE",
"402 937 OFFCURVE",
"407 949 OFFCURVE",
"407 962 CURVE SMOOTH",
"407 991 OFFCURVE",
"384 1015 OFFCURVE",
"355 1015 CURVE SMOOTH",
"341 1015 OFFCURVE",
"329 1010 OFFCURVE",
"318 1000 CURVE SMOOTH",
"279 959 LINE SMOOTH",
"269 950 OFFCURVE",
"265 938 OFFCURVE",
"265 925 CURVE SMOOTH",
"265 915 OFFCURVE",
"268 905 OFFCURVE",
"274 896 CURVE",
"254 874 OFFCURVE",
"245 849 OFFCURVE",
"245 821 CURVE SMOOTH",
"245 786 OFFCURVE",
"262 748 OFFCURVE",
"296 728 CURVE",
"42 73 LINE SMOOTH",
"39 66 OFFCURVE",
"38 60 OFFCURVE",
"38 52 CURVE SMOOTH",
"38 22 OFFCURVE",
"60 0 OFFCURVE",
"90 0 CURVE SMOOTH",
"109 0 OFFCURVE",
"126 10 OFFCURVE",
"138 32 CURVE",
"229 266 LINE",
"481 266 LINE",
"572 32 LINE",
"582 12 OFFCURVE",
"600 0 OFFCURVE",
"621 0 CURVE SMOOTH",
"650 0 OFFCURVE",
"673 22 OFFCURVE",
"673 52 CURVE SMOOTH",
"673 59 OFFCURVE",
"671 65 OFFCURVE",
"668 73 CURVE SMOOTH"
);
}
);
width = 703;
}
);
unicode = 01FA;
},
{
glyphname = dieresistonos;
lastChange = "2016-10-19 22:32:10 +0000";
layers = (
{
layerId = UUID0;
paths = (
{
closed = 1;
nodes = (
"143 702 OFFCURVE",
"116 729 OFFCURVE",
"83 729 CURVE SMOOTH",
"50 729 OFFCURVE",
"23 702 OFFCURVE",
"23 668 CURVE SMOOTH",
"23 635 OFFCURVE",
"50 608 OFFCURVE",
"83 608 CURVE SMOOTH",
"116 608 OFFCURVE",
"143 635 OFFCURVE",
"143 668 CURVE SMOOTH"
);
},
{
closed = 1;
nodes = (
"450 702 OFFCURVE",
"422 729 OFFCURVE",
"390 729 CURVE SMOOTH",
"356 729 OFFCURVE",
"329 702 OFFCURVE",
"329 668 CURVE SMOOTH",
"329 635 OFFCURVE",
"356 608 OFFCURVE",
"390 608 CURVE SMOOTH",
"422 608 OFFCURVE",
"450 635 OFFCURVE",
"450 668 CURVE SMOOTH"
);
},
{
closed = 1;
nodes = (
"225 571 OFFCURVE",
"239 579 OFFCURVE",
"249 593 CURVE",
"320 703 LINE SMOOTH",
"325 711 OFFCURVE",
"328 720 OFFCURVE",
"328 730 CURVE SMOOTH",
"328 758 OFFCURVE",
"305 781 OFFCURVE",
"277 781 CURVE SMOOTH",
"259 781 OFFCURVE",
"245 773 OFFCURVE",
"234 757 CURVE SMOOTH",
"163 648 LINE SMOOTH",
"158 641 OFFCURVE",
"156 631 OFFCURVE",
"156 622 CURVE SMOOTH",
"156 594 OFFCURVE",
"179 571 OFFCURVE",
"207 571 CURVE SMOOTH"
);
}
);
width = 469;
}
);
unicode = 0385;
},
{
glyphname = Alphatonos;
lastChange = "2016-10-19 22:32:10 +0000";
layers = (
{
layerId = UUID0;
paths = (
{
closed = 1;
nodes = (
"231 694 LINE SMOOTH",
"241 703 OFFCURVE",
"245 715 OFFCURVE",
"245 729 CURVE SMOOTH",
"245 758 OFFCURVE",
"224 781 OFFCURVE",
"194 781 CURVE SMOOTH",
"181 781 OFFCURVE",
"168 776 OFFCURVE",
"158 766 CURVE SMOOTH",
"61 668 LINE",
"52 659 OFFCURVE",
"48 648 OFFCURVE",
"48 634 CURVE SMOOTH",
"48 604 OFFCURVE",
"69 583 OFFCURVE",
"99 583 CURVE SMOOTH",
"113 583 OFFCURVE",
"125 587 OFFCURVE",
"134 597 CURVE SMOOTH"
);
},
{
closed = 1;
nodes = (
"265 367 LINE",
"350 586 LINE",
"435 367 LINE"
);
},
{
closed = 1;
nodes = (
"40 75 LINE SMOOTH",
"37 66 OFFCURVE",
"35 59 OFFCURVE",
"35 52 CURVE SMOOTH",
"35 23 OFFCURVE",
"57 0 OFFCURVE",
"86 0 CURVE SMOOTH",
"105 0 OFFCURVE",
"127 13 OFFCURVE",
"134 32 CURVE SMOOTH",
"225 264 LINE",
"475 264 LINE",
"565 32 LINE SMOOTH",
"573 13 OFFCURVE",
"593 0 OFFCURVE",
"613 0 CURVE SMOOTH",
"642 0 OFFCURVE",
"665 23 OFFCURVE",
"665 52 CURVE SMOOTH",
"665 59 OFFCURVE",
"664 66 OFFCURVE",
"661 73 CURVE SMOOTH",
"399 746 LINE",
"390 770 OFFCURVE",
"373 781 OFFCURVE",
"350 781 CURVE SMOOTH",
"328 781 OFFCURVE",
"311 770 OFFCURVE",
"301 746 CURVE"
);
}
);
width = 703;
}
);
unicode = 0386;
},
{
glyphname = Epsilontonos;
lastChange = "2016-10-19 22:32:10 +0000";
layers = (
{
layerId = UUID0;
paths = (
{
closed = 1;
nodes = (
"165 694 LINE SMOOTH",
"174 703 OFFCURVE",
"178 715 OFFCURVE",
"178 729 CURVE SMOOTH",
"178 758 OFFCURVE",
"157 781 OFFCURVE",
"127 781 CURVE SMOOTH",
"114 781 OFFCURVE",
"102 776 OFFCURVE",
"91 766 CURVE SMOOTH",
"-6 668 LINE",
"-15 659 OFFCURVE",
"-19 648 OFFCURVE",
"-19 634 CURVE SMOOTH",
"-19 604 OFFCURVE",
"2 583 OFFCURVE",
"32 583 CURVE SMOOTH",
"46 583 OFFCURVE",
"58 587 OFFCURVE",
"67 597 CURVE SMOOTH"
);
},
{
closed = 1;
nodes = (
"308 104 LINE",
"308 339 LINE",
"595 339 LINE SMOOTH",
"624 339 OFFCURVE",
"647 362 OFFCURVE",
"647 391 CURVE SMOOTH",
"647 419 OFFCURVE",
"624 442 OFFCURVE",
"595 442 CURVE SMOOTH",
"308 442 LINE",
"308 678 LINE",
"708 678 LINE SMOOTH",
"737 678 OFFCURVE",
"760 701 OFFCURVE",
"760 729 CURVE SMOOTH",
"760 758 OFFCURVE",
"737 781 OFFCURVE",
"708 781 CURVE SMOOTH",
"256 781 LINE SMOOTH",
"227 781 OFFCURVE",
"205 759 OFFCURVE",
"205 729 CURVE SMOOTH",
"205 52 LINE SMOOTH",
"205 22 OFFCURVE",
"227 0 OFFCURVE",
"256 0 CURVE SMOOTH",
"708 0 LINE SMOOTH",
"737 0 OFFCURVE",
"760 23 OFFCURVE",
"760 52 CURVE SMOOTH",
"760 81 OFFCURVE",
"737 104 OFFCURVE",
"708 104 CURVE SMOOTH"
);
}
);
width = 801;
}
);
unicode = 0388;
},
{
glyphname = Etatonos;
lastChange = "2016-10-19 22:32:10 +0000";
layers = (
{
layerId = UUID0;
paths = (
{
closed = 1;
nodes = (
"164 694 LINE SMOOTH",
"173 703 OFFCURVE",
"177 715 OFFCURVE",
"177 729 CURVE SMOOTH",
"177 758 OFFCURVE",
"156 781 OFFCURVE",
"126 781 CURVE SMOOTH",
"113 781 OFFCURVE",
"101 776 OFFCURVE",
"90 766 CURVE SMOOTH",
"-7 668 LINE",
"-16 659 OFFCURVE",
"-20 648 OFFCURVE",
"-20 634 CURVE SMOOTH",
"-20 604 OFFCURVE",
"1 583 OFFCURVE",
"31 583 CURVE SMOOTH",
"45 583 OFFCURVE",
"57 587 OFFCURVE",
"66 597 CURVE SMOOTH"
);
},
{
closed = 1;
nodes = (
"758 729 LINE SMOOTH",
"758 758 OFFCURVE",
"735 781 OFFCURVE",
"707 781 CURVE SMOOTH",
"678 781 OFFCURVE",
"655 758 OFFCURVE",
"655 729 CURVE SMOOTH",
"655 442 LINE",
"307 442 LINE",
"307 729 LINE SMOOTH",
"307 758 OFFCURVE",
"284 781 OFFCURVE",
"255 781 CURVE SMOOTH",
"226 781 OFFCURVE",
"203 758 OFFCURVE",
"203 729 CURVE SMOOTH",
"203 52 LINE SMOOTH",
"203 23 OFFCURVE",
"226 0 OFFCURVE",
"255 0 CURVE SMOOTH",
"284 0 OFFCURVE",
"307 23 OFFCURVE",
"307 52 CURVE SMOOTH",
"307 339 LINE",
"655 339 LINE",
"655 52 LINE SMOOTH",
"655 23 OFFCURVE",
"678 0 OFFCURVE",
"707 0 CURVE SMOOTH",
"735 0 OFFCURVE",
"758 23 OFFCURVE",
"758 52 CURVE SMOOTH"
);
}
);
width = 801;
}
);
unicode = 0389;
},
{
glyphname = Iotatonos;
lastChange = "2016-10-19 22:32:10 +0000";
layers = (
{
layerId = UUID0;
paths = (
{
closed = 1;
nodes = (
"164 694 LINE SMOOTH",
"173 703 OFFCURVE",
"177 715 OFFCURVE",
"177 729 CURVE SMOOTH",
"177 758 OFFCURVE",
"156 781 OFFCURVE",
"126 781 CURVE SMOOTH",
"113 781 OFFCURVE",
"101 776 OFFCURVE",
"90 766 CURVE SMOOTH",
"-7 668 LINE",
"-16 659 OFFCURVE",
"-20 648 OFFCURVE",
"-20 634 CURVE SMOOTH",
"-20 604 OFFCURVE",
"1 583 OFFCURVE",
"31 583 CURVE SMOOTH",
"45 583 OFFCURVE",
"57 587 OFFCURVE",
"66 597 CURVE SMOOTH"
);
},
{
closed = 1;
nodes = (
"312 729 LINE SMOOTH",
"312 758 OFFCURVE",
"289 781 OFFCURVE",
"260 781 CURVE SMOOTH",
"231 781 OFFCURVE",
"208 758 OFFCURVE",
"208 729 CURVE SMOOTH",
"208 52 LINE SMOOTH",
"208 23 OFFCURVE",
"231 0 OFFCURVE",
"260 0 CURVE SMOOTH",
"289 0 OFFCURVE",
"312 23 OFFCURVE",
"312 52 CURVE SMOOTH"
);
}
);
width = 371;
}
);
unicode = 038A;
},
